# Blender v2.71 (sub 0) OBJ File: 'WeaponPlatforms.blend'
# www.blender.org
o Platform5_Cube.693
v 0.251432 0.070563 -0.087367
v 0.251432 0.070562 -0.359649
v 1.186333 0.260315 -0.359649
v 1.186333 0.260315 -0.087367
v 0.251432 0.387283 -0.087367
v 0.251432 0.387283 -0.359649
v 1.186333 0.387283 -0.359649
v 1.186333 0.387283 -0.087367
v -0.251432 0.070563 -0.087367
v -0.251432 0.070562 -0.359649
v -1.186333 0.260315 -0.359649
v -1.186333 0.260315 -0.087367
v -0.251432 0.387283 -0.087367
v -0.251432 0.387283 -0.359649
v -1.186333 0.387283 -0.359649
v -1.186333 0.387283 -0.087367
v 0.251432 0.070563 0.878536
v 0.251432 0.070563 0.606253
v 1.186333 0.260315 0.606253
v 1.186333 0.260315 0.878536
v 0.251432 0.387283 0.878536
v 0.251432 0.387283 0.606253
v 1.186333 0.387283 0.606253
v 1.186333 0.387283 0.878536
v 0.301031 -0.656811 -1.273696
v 0.301031 0.161085 1.607651
v 0.301031 0.380184 -1.273696
v 0.301031 0.638781 1.607651
v 0.301031 0.380185 0.218958
v 0.301031 -0.656811 -0.307929
v 0.301031 -0.138938 0.218957
v 0.301031 0.638781 0.537012
v 0.301031 -0.138938 0.867796
v 0.205046 -0.763541 -1.273696
v 0.205046 -0.763540 -0.307929
v 0.895616 0.459293 -0.763159
v 1.701752 0.514403 -1.607651
v 1.968657 0.514403 -1.407352
v 1.383080 0.459293 -0.397341
v 0.895616 0.622658 -0.763159
v 1.701752 0.567547 -1.607651
v 1.968657 0.567547 -1.407352
v 1.383080 0.622658 -0.397341
v 0.940339 0.318411 -0.878104
v 0.940339 0.318412 1.414599
v 0.940339 0.763540 -0.878104
v 0.940339 0.763541 1.414599
v 0.564742 0.763540 -0.878104
v 0.564742 0.318411 -0.878104
v 0.414196 0.763540 -1.376858
v 0.414196 0.318411 -1.376858
v 1.479975 0.318411 -0.470702
v 1.479975 0.318411 1.007197
v 1.479975 0.763540 -0.470702
v 1.479975 0.763541 1.007197
v -0.251432 0.070563 0.878536
v -0.251432 0.070563 0.606253
v -1.186333 0.260315 0.606253
v -1.186333 0.260315 0.878536
v -0.251432 0.387283 0.878536
v -0.251432 0.387283 0.606253
v -1.186333 0.387283 0.606253
v -1.186333 0.387283 0.878536
v -0.301031 -0.656811 -1.273696
v -0.301031 0.161085 1.607651
v -0.301031 0.380184 -1.273696
v -0.301031 0.638781 1.607651
v 0.000000 0.380184 -1.273696
v 0.000000 -0.763541 -1.273695
v 0.000000 0.161085 1.607651
v -0.301031 0.380185 0.218958
v -0.301031 -0.656811 -0.307929
v 0.000000 -0.656811 -0.307929
v 0.000000 -0.138938 0.218957
v -0.301031 -0.138938 0.218957
v -0.301031 0.638781 0.537012
v 0.000000 -0.138938 0.867796
v -0.301031 -0.138938 0.867796
v 0.000000 0.638781 1.607650
v 0.000000 0.638781 0.537012
v -0.205046 -0.763541 -1.273696
v -0.205046 -0.763540 -0.307929
v 0.000000 -0.763540 -0.307929
v -0.895616 0.459293 -0.763159
v -1.701752 0.514403 -1.607651
v -1.968657 0.514403 -1.407352
v -1.383080 0.459293 -0.397341
v -0.895616 0.622658 -0.763159
v -1.701752 0.567547 -1.607651
v -1.968657 0.567547 -1.407352
v -1.383080 0.622658 -0.397341
v -0.940339 0.318411 -0.878104
v -0.940339 0.318412 1.414599
v -0.940339 0.763540 -0.878104
v -0.940339 0.763541 1.414599
v 0.000000 0.763540 -1.376857
v 0.000000 0.318411 -1.376857
v 0.000000 0.763541 1.414599
v 0.000000 0.318412 1.414599
v -0.564742 0.763540 -0.878104
v -0.564742 0.318411 -0.878104
v -0.414196 0.763540 -1.376858
v -0.414196 0.318411 -1.376858
v -1.479975 0.318411 -0.470702
v -1.479975 0.318411 1.007197
v -1.479975 0.763540 -0.470702
v -1.479975 0.763541 1.007197
vt 0.218584 0.626584
vt 0.428350 0.669159
vt 0.422568 0.697647
vt 0.204161 0.697647
vt 0.451637 0.697647
vt 0.451637 0.759985
vt 0.422568 0.759985
vt 0.428350 0.788473
vt 0.218584 0.831048
vt 0.204161 0.759985
vt 0.935896 0.929612
vt 0.870034 0.929549
vt 0.870251 0.702666
vt 0.936135 0.679378
vt 0.473818 0.985749
vt 0.239574 0.985526
vt 0.239673 0.881012
vt 0.401608 0.815524
vt 0.658952 0.702464
vt 0.658982 0.671059
vt 0.870281 0.671261
vt 0.543458 0.929237
vt 0.991651 0.530863
vt 0.991653 0.659382
vt 0.939285 0.659382
vt 0.939283 0.530863
vt 0.991651 0.417988
vt 0.939282 0.417988
vt 0.991653 0.279094
vt 0.939283 0.279094
vt 0.939283 0.195991
vt 0.939282 0.009733
vt 0.991652 0.009733
vt 0.991652 0.195990
vt 0.991653 0.677948
vt 0.955983 0.677949
vt 0.543566 0.815659
vt 0.659025 0.626198
vt 0.870323 0.626400
vt 0.891273 0.679335
vt 0.055999 0.370434
vt 0.082944 0.597450
vt 0.072692 0.599160
vt 0.024478 0.375692
vt 0.148214 0.597452
vt 0.148211 0.607841
vt 0.082949 0.607848
vt 0.175207 0.370446
vt 0.206726 0.375711
vt 0.158468 0.599165
vt 0.056023 0.834820
vt 0.175207 0.834800
vt 0.730192 0.343871
vt 0.664857 0.343871
vt 0.664859 0.266440
vt 0.730193 0.266442
vt 0.219256 0.172551
vt 0.618116 0.172557
vt 0.547238 0.266435
vt 0.290131 0.266433
vt 0.820815 0.343872
vt 0.820815 0.266443
vt 0.892862 0.343872
vt 0.892863 0.266444
vt 0.547237 0.343870
vt 0.290132 0.343871
vt 0.618112 0.437749
vt 0.219259 0.437750
vt 0.172504 0.343873
vt 0.172503 0.266435
vt 0.219257 0.008959
vt 0.618118 0.107214
vt 0.219259 0.601337
vt 0.704881 0.529281
vt 0.704881 0.601338
vt 0.704887 0.081025
vt 0.008915 0.343876
vt 0.008914 0.266438
vt 0.618113 0.503091
vt 0.704888 0.008966
vn 0.000000 -0.000000 -1.000000
vn 0.707100 -0.000000 -0.707100
vn 0.625900 -0.511600 -0.588600
vn 0.149900 -0.738400 -0.657400
vn 0.707100 0.000000 0.707100
vn 0.625900 -0.511600 0.588600
vn 0.000000 0.000000 1.000000
vn 0.149900 -0.738400 0.657400
vn -0.149900 -0.738400 -0.657400
vn -0.625900 -0.511600 -0.588600
vn -0.707100 -0.000000 -0.707100
vn -0.625900 -0.511600 0.588600
vn -0.707100 0.000000 0.707100
vn -0.149900 -0.738400 0.657400
vn 0.721500 -0.276700 -0.634700
vn 0.000000 -0.707100 -0.707100
vn 0.842700 0.538300 -0.000000
vn 0.577300 0.577300 0.577300
vn 0.600300 -0.446800 0.663300
vn 0.666400 -0.731700 0.142700
vn 0.771800 -0.474200 0.423700
vn 0.317400 -0.712300 0.625900
vn 0.317400 -0.712300 -0.625900
vn 1.000000 0.000000 0.000000
vn 0.000000 -0.925500 0.378700
vn 0.000000 -0.386600 0.922200
vn 0.803000 -0.551500 0.225700
vn 0.000000 -0.981500 0.191400
vn 0.000000 -0.558600 0.829400
vn 0.000000 1.000000 -0.000000
vn 0.000000 0.707100 0.707100
vn 0.000000 -0.707100 0.707100
vn -0.721500 -0.276700 -0.634700
vn -0.842700 0.538300 -0.000000
vn -0.666400 -0.731700 0.142700
vn -0.600300 -0.446800 0.663300
vn -0.577300 0.577300 0.577300
vn -0.317400 -0.712300 -0.625900
vn -0.317400 -0.712300 0.625900
vn -0.771800 -0.474200 0.423700
vn -1.000000 0.000000 0.000000
vn -0.803000 -0.551500 0.225700
vn -0.502500 0.687300 -0.524500
vn -0.060400 0.568000 -0.820800
vn -0.060400 -0.568000 -0.820800
vn -0.502500 -0.687300 -0.524500
vn 0.804900 0.568000 -0.171400
vn 0.804900 -0.568000 -0.171400
vn 0.644000 0.687300 0.335900
vn 0.644000 -0.687300 0.335900
vn 0.295500 0.868500 -0.397900
vn 0.243600 0.642100 -0.726900
vn 0.243600 -0.642100 -0.726900
vn 0.295500 -0.868500 -0.397900
vn 0.243600 -0.642100 0.726900
vn 0.702900 -0.619200 -0.350000
vn 0.702900 -0.619200 0.350000
vn 0.479500 0.594300 -0.645600
vn 0.479500 -0.594300 -0.645600
vn 0.000000 0.707100 -0.707100
vn 0.702900 0.619200 -0.350000
vn 0.702900 0.619200 0.350000
vn 0.243600 0.642100 0.726900
vn -0.295500 0.868500 -0.397900
vn -0.295500 -0.868500 -0.397900
vn -0.243600 -0.642100 -0.726900
vn -0.243600 0.642100 -0.726900
vn -0.243600 -0.642100 0.726900
vn -0.702900 -0.619200 0.350000
vn -0.702900 -0.619200 -0.350000
vn -0.479500 0.594300 -0.645600
vn -0.479500 -0.594300 -0.645600
vn -0.702900 0.619200 -0.350000
vn -0.702900 0.619200 0.350000
vn -0.243600 0.642100 0.726900
vn 0.502500 0.687300 -0.524500
vn 0.502500 -0.687300 -0.524500
vn 0.060400 -0.568000 -0.820800
vn 0.060400 0.568000 -0.820800
vn -0.804900 -0.568000 -0.171400
vn -0.804900 0.568000 -0.171400
vn -0.644000 -0.687300 0.335900
vn -0.644000 0.687300 0.335900
s 1
f 6/1/1 7/2/2 3/3/3 2/4/4
f 7/5/2 8/6/5 4/7/6 3/3/3
f 8/8/5 5/9/7 1/10/8 4/7/6
f 1/10/8 2/4/4 3/3/3 4/7/6
s 2
f 14/1/1 10/4/9 11/3/10 15/2/11
f 15/5/11 11/3/10 12/7/12 16/6/13
f 16/8/13 12/7/12 9/10/14 13/9/7
f 9/10/14 12/7/12 11/3/10 10/4/9
s 3
f 22/1/1 23/2/2 19/3/3 18/4/4
f 23/5/2 24/6/5 20/7/6 19/3/3
f 24/8/5 21/9/7 17/10/8 20/7/6
f 17/10/8 18/4/4 19/3/3 20/7/6
s 4
f 68/11/1 27/12/2 25/13/15 69/14/16
f 32/15/17 28/16/18 26/17/19 33/18/20
f 25/13/15 30/19/21 35/20/22 34/21/23
f 27/12/2 29/22/24 30/19/21 25/13/15
f 74/23/25 73/24/26 30/25/21 31/26/27
f 77/27/28 74/23/25 31/26/27 33/28/20
f 70/29/29 77/27/28 33/28/20 26/30/19
f 28/31/18 32/32/17 80/33/30 79/34/31
f 28/31/18 79/34/31 70/29/29 26/30/19
f 30/25/21 73/24/26 83/35/32 35/36/22
f 29/22/24 31/37/27 30/19/21
f 29/22/24 32/15/17 33/18/20 31/37/27
f 83/38/32 69/39/16 34/21/23 35/20/22
f 69/14/16 25/13/15 34/40/23
f 68/11/1 69/14/16 64/13/33 66/12/11
f 76/15/34 78/18/35 65/17/36 67/16/37
f 64/13/33 81/21/38 82/20/39 72/19/40
f 66/12/11 64/13/33 72/19/40 71/22/41
f 74/23/25 75/26/42 72/25/40 73/24/26
f 77/27/28 78/28/35 75/26/42 74/23/25
f 70/29/29 65/30/36 78/28/35 77/27/28
f 67/31/37 79/34/31 80/33/30 76/32/34
f 67/31/37 65/30/36 70/29/29 79/34/31
f 72/25/40 82/36/39 83/35/32 73/24/26
f 71/22/41 72/19/40 75/37/42
f 71/22/41 75/37/42 78/18/35 76/15/34
f 83/38/32 82/20/39 81/21/38 69/39/16
f 69/14/16 81/40/38 64/13/33
s 5
f 40/41/43 41/42/44 37/43/45 36/44/46
f 41/42/44 42/45/47 38/46/48 37/47/45
f 42/45/47 43/48/49 39/49/50 38/50/48
f 36/51/46 37/47/45 38/46/48 39/52/50
f 43/48/49 42/45/47 41/42/44 40/41/43
s 6
f 48/53/51 46/54/52 44/55/53 49/56/54
f 45/57/55 44/58/53 52/59/56 53/60/57
f 50/61/58 48/53/51 49/56/54 51/62/59
f 96/63/60 50/61/58 51/62/59 97/64/16
f 54/65/61 55/66/62 53/60/57 52/59/56
f 44/55/53 46/54/52 54/65/61 52/59/56
f 46/67/52 47/68/63 55/66/62 54/65/61
f 47/69/63 45/70/55 53/60/57 55/66/62
f 99/71/32 49/72/54 44/58/53 45/57/55
f 98/73/31 50/74/58 96/75/60
f 99/71/32 51/76/59 49/72/54
f 47/69/63 98/77/31 99/78/32 45/70/55
f 47/68/63 46/67/52 48/79/51 98/73/31
f 98/73/31 48/79/51 50/74/58
f 99/71/32 97/80/16 51/76/59
f 100/53/64 101/56/65 92/55/66 94/54/67
f 93/57/68 105/60/69 104/59/70 92/58/66
f 102/61/71 103/62/72 101/56/65 100/53/64
f 96/63/60 97/64/16 103/62/72 102/61/71
f 106/65/73 104/59/70 105/60/69 107/66/74
f 92/55/66 104/59/70 106/65/73 94/54/67
f 94/67/67 106/65/73 107/66/74 95/68/75
f 95/69/75 107/66/74 105/60/69 93/70/68
f 99/71/32 93/57/68 92/58/66 101/72/65
f 98/73/31 96/75/60 102/74/71
f 99/71/32 101/72/65 103/76/72
f 95/69/75 93/70/68 99/78/32 98/77/31
f 95/68/75 98/73/31 100/79/64 94/67/67
f 98/73/31 102/74/71 100/79/64
f 99/71/32 103/76/72 97/80/16
s 7
f 61/1/1 57/4/9 58/3/10 62/2/11
f 62/5/11 58/3/10 59/7/12 63/6/13
f 63/8/13 59/7/12 56/10/14 60/9/7
f 56/10/14 59/7/12 58/3/10 57/4/9
s 8
f 88/41/76 84/44/77 85/43/78 89/42/79
f 89/42/79 85/47/78 86/46/80 90/45/81
f 90/45/81 86/50/80 87/49/82 91/48/83
f 84/51/77 87/52/82 86/46/80 85/47/78
f 91/48/83 88/41/76 89/42/79 90/45/81
