# Blender v2.71 (sub 0) OBJ File: 'WeaponPlatforms.blend'
# www.blender.org
o PlatformHeavyTorpedoLauncher_Cube.709
v 0.059237 -0.121591 1.109602
v 0.071097 -0.159476 0.851057
v 0.071097 0.268135 0.851057
v 0.059237 0.230249 1.109602
v -0.050911 -0.121591 1.109602
v -0.062772 -0.159476 0.851057
v -0.062772 0.268135 0.851057
v -0.050911 0.230249 1.109602
v -0.125111 -0.087206 0.851057
v -0.125111 0.195865 0.851057
v 0.133436 0.195865 0.851057
v 0.133436 -0.087206 0.851057
v -0.102204 0.170785 1.109602
v -0.102203 -0.062126 1.109602
v 0.110529 -0.062126 1.109602
v 0.110529 0.170785 1.109602
v 0.045054 -0.083546 1.109602
v 0.045054 0.192205 1.109602
v -0.036728 -0.083546 1.109602
v -0.036728 0.192205 1.109602
v -0.074811 0.145600 1.109602
v -0.074811 -0.036941 1.109602
v 0.083137 -0.036941 1.109602
v 0.083137 0.145600 1.109602
v 0.045054 -0.083546 0.994633
v 0.045054 0.192205 0.994632
v -0.036728 -0.083546 0.994633
v -0.036728 0.192205 0.994632
v -0.074811 0.145600 0.994632
v -0.074811 -0.036941 0.994633
v 0.083137 -0.036941 0.994633
v 0.083137 0.145600 0.994632
v -0.156992 -0.185683 0.895850
v 0.156992 -0.185683 0.895850
v -0.087935 0.311939 0.895849
v -0.087935 0.191468 -0.064480
v 0.087935 0.191468 -0.064480
v 0.087935 0.311939 0.895849
v -0.087935 0.311939 0.193853
v -0.156992 -0.185683 -0.064479
v 0.087935 0.311939 0.193853
v 0.156992 -0.185683 -0.064479
v -0.156992 0.122790 -0.064480
v -0.156992 0.221323 0.895849
v 0.156992 0.122790 -0.064480
v 0.156992 0.221323 0.895849
v -0.156992 0.221323 0.193853
v 0.156992 0.221323 0.193853
vt 0.245792 0.833185
vt 0.242032 0.851157
vt 0.207283 0.842224
vt 0.210378 0.827436
vt 0.180480 0.889718
vt 0.185859 0.891161
vt 0.177093 0.903467
vt 0.173971 0.898854
vt 0.246849 0.820137
vt 0.211248 0.816700
vt 0.222197 0.899103
vt 0.215995 0.910632
vt 0.190962 0.881674
vt 0.186546 0.879115
vt 0.182829 0.886487
vt 0.169795 0.911388
vt 0.205341 0.925587
vt 0.196471 0.935215
vt 0.211245 0.784755
vt 0.246845 0.781311
vt 0.203775 0.852408
vt 0.237768 0.863534
vt 0.198899 0.850899
vt 0.201795 0.843168
vt 0.204872 0.828271
vt 0.202574 0.839251
vt 0.165933 0.908051
vt 0.171687 0.902131
vt 0.206177 0.816127
vt 0.205729 0.824370
vt 0.189376 0.376312
vt 0.205145 0.376305
vt 0.205149 0.384560
vt 0.189380 0.384568
vt 0.189354 0.312322
vt 0.205125 0.312318
vt 0.205129 0.323536
vt 0.189357 0.323541
vt 0.189359 0.331798
vt 0.205131 0.331793
vt 0.205138 0.356833
vt 0.189367 0.356838
vt 0.205141 0.365088
vt 0.189371 0.365094
vt 0.189351 0.304066
vt 0.205123 0.304061
vt 0.205162 0.409596
vt 0.189393 0.409604
vt 0.172937 0.378185
vt 0.184153 0.378179
vt 0.184174 0.415998
vt 0.172957 0.416004
vt 0.188905 0.877002
vt 0.198947 0.854065
vt 0.167731 0.409615
vt 0.167717 0.384580
vt 0.207491 0.813246
vt 0.207488 0.788209
vt 0.618446 0.523924
vt 0.618448 0.427637
vt 0.674274 0.427638
vt 0.674271 0.559358
vt 0.428715 0.875415
vt 0.428715 0.832348
vt 0.484540 0.832347
vt 0.484541 0.875414
vt 0.602820 0.523924
vt 0.602821 0.563021
vt 0.578698 0.563022
vt 0.578697 0.523925
vt 0.563070 0.427636
vt 0.563070 0.523925
vt 0.507243 0.559359
vt 0.507243 0.427635
vt 0.616262 0.832347
vt 0.616262 0.875414
vt 0.602821 0.427637
vt 0.578698 0.427636
vt 0.565961 0.567050
vt 0.563980 0.529178
vt 0.667994 0.841820
vt 0.667994 0.865943
vt 0.658573 0.875415
vt 0.658574 0.832348
vt 0.416286 0.865943
vt 0.416286 0.841821
vt 0.617538 0.529177
vt 0.615559 0.567049
vt 0.549555 0.559359
vt 0.631960 0.559357
vn 0.407400 0.900700 0.150700
vn -0.407400 0.900700 0.150700
vn -0.308800 0.664800 0.680200
vn 0.308800 0.664800 0.680200
vn 0.246900 0.520500 0.817300
vn -0.308800 -0.664800 0.680200
vn 0.308800 -0.664800 0.680200
vn -0.246900 0.520500 0.817300
vn 0.926400 0.357900 0.116800
vn 0.691400 0.246300 0.679100
vn -0.926400 -0.357900 0.116800
vn -0.407400 -0.900700 0.150700
vn -0.691400 -0.246300 0.679100
vn 0.576200 0.205500 0.791100
vn 0.691400 -0.246300 0.679100
vn 0.407400 -0.900700 0.150700
vn 0.926400 -0.357900 0.116800
vn -0.691400 0.246300 0.679100
vn -0.926400 0.357900 0.116800
vn 0.576200 -0.205500 0.791100
vn 0.246900 -0.520500 0.817300
vn -0.246900 -0.520500 0.817300
vn -0.576200 0.205500 0.791100
vn -0.576200 -0.205500 0.791100
vn 0.335500 -0.707300 0.622200
vn 0.724700 -0.258400 0.638700
vn 0.335500 0.707300 0.622200
vn -0.335500 0.707300 0.622200
vn -0.724700 0.258400 0.638700
vn -0.724700 -0.258400 0.638700
vn -0.335500 -0.707300 0.622200
vn 0.724700 0.258400 0.638700
vn 0.926600 0.366000 -0.085600
vn 0.726600 0.245300 0.641700
vn 0.577300 -0.577300 0.577300
vn 0.577300 -0.577300 -0.577300
vn -0.726600 0.245300 0.641700
vn -0.577300 -0.577300 0.577300
vn 0.406000 0.894300 -0.188000
vn 0.297100 0.567700 -0.767700
vn -0.297100 0.567700 -0.767700
vn -0.406000 0.894300 -0.188000
vn -0.926600 0.366000 -0.085600
vn -0.577300 -0.577300 -0.577300
vn 0.348300 0.703400 0.619500
vn -0.348300 0.703400 0.619500
vn -0.714900 0.205300 -0.668400
vn 0.714900 0.205300 -0.668400
s 1
f 3/1/1 7/2/2 8/3/3 4/4/4
f 19/5/5 5/6/6 1/7/7 17/8/8
f 11/9/9 3/1/1 4/4/4 16/10/10
f 9/11/11 6/12/12 5/6/6 14/13/13
f 22/14/14 14/13/13 5/6/6 19/15/5
f 15/16/15 1/7/7 2/17/16 12/18/17
f 16/10/10 15/19/15 12/20/17 11/9/9
f 13/21/18 8/3/3 7/2/2 10/22/19
f 14/13/13 13/21/18 10/22/19 9/11/11
f 13/21/18 21/23/20 20/24/21 8/3/3
f 18/25/22 4/4/4 8/3/3 20/26/21
f 15/16/15 23/27/23 17/28/8 1/7/7
f 24/29/24 16/10/10 4/4/4 18/30/22
f 28/31/25 20/32/21 21/33/20 29/34/26
f 27/35/27 19/36/5 17/37/8 25/38/28
f 31/39/29 23/40/23 24/41/24 32/42/30
f 32/42/30 24/41/24 18/43/22 26/44/31
f 26/44/31 18/43/22 20/32/21 28/31/25
f 25/38/28 17/37/8 23/40/23 31/39/29
f 30/45/32 22/46/14 19/36/5 27/35/27
f 29/34/26 21/33/20 22/47/14 30/48/32
f 26/49/31 28/50/25 27/51/27 25/52/28
f 14/13/13 22/53/14 21/54/20 13/21/18
f 29/34/26 30/48/32 27/51/27 28/50/25
f 31/55/29 32/56/30 26/49/31 25/52/28
f 16/10/10 24/57/24 23/58/23 15/19/15
f 1/7/7 5/6/6 6/12/12 2/17/16
s 2
f 48/59/33 46/60/34 34/61/35 42/62/36
f 46/63/34 44/64/37 33/65/38 34/66/35
f 41/67/39 37/68/40 36/69/41 39/70/42
f 44/71/37 47/72/43 40/73/44 33/74/38
f 33/65/38 40/75/44 42/76/36 34/66/35
f 38/77/45 41/67/39 39/70/42 35/78/46
f 39/70/42 36/69/41 43/79/47 47/80/43
f 36/81/41 37/82/40 45/83/48 43/84/47
f 41/67/39 38/77/45 46/60/34 48/59/33
f 38/85/45 35/86/46 44/64/37 46/63/34
f 35/78/46 39/70/42 47/72/43 44/71/37
f 37/68/40 41/67/39 48/87/33 45/88/48
f 47/72/43 43/89/47 40/73/44
f 43/84/47 45/83/48 42/76/36 40/75/44
f 45/90/48 48/59/33 42/62/36
