# Blender v2.71 (sub 0) OBJ File: 'WeaponPlatforms.blend'
# www.blender.org
o PlatformFlakBarrelAnimated1_Cube.000
v 0.346138 -0.051478 0.128938
v 0.346138 -0.051479 -0.128939
v 0.604016 -0.051479 -0.128939
v 0.604016 -0.051478 0.128938
v 0.346138 0.051479 0.128938
v 0.346138 0.051479 -0.128939
v 0.604016 0.051479 -0.128939
v 0.604016 0.051479 0.128938
v 0.346138 0.128939 0.042978
v 0.346138 0.128939 -0.042981
v 0.346138 -0.128938 -0.042981
v 0.346138 -0.128938 0.042978
v 0.604016 0.128939 -0.042981
v 0.604016 0.128939 0.042978
v 0.604016 -0.128938 0.042978
v 0.604016 -0.128938 -0.042981
v -0.346138 -0.051479 0.128939
v -0.346138 -0.051479 -0.128938
v -0.604016 -0.051479 -0.128938
v -0.604016 -0.051479 0.128939
v -0.346138 0.051479 0.128939
v -0.346138 0.051478 -0.128938
v -0.604016 0.051478 -0.128938
v -0.604016 0.051479 0.128939
v -0.346138 0.128938 0.042979
v -0.346138 0.128938 -0.042980
v -0.346138 -0.128939 -0.042980
v -0.346138 -0.128939 0.042979
v -0.604016 0.128938 -0.042980
v -0.604016 0.128938 0.042979
v -0.604016 -0.128939 0.042979
v -0.604016 -0.128939 -0.042980
v 0.554642 -0.284099 0.228763
v 0.554642 -0.284099 -0.372046
v 0.749227 -0.284099 -0.372046
v 0.749227 -0.284099 0.228763
v 0.554642 0.298748 0.228763
v 0.554642 0.298748 -0.372047
v 0.749227 0.298748 -0.372047
v 0.749227 0.298748 0.228763
v 0.554642 -0.158639 -0.513106
v 0.749227 -0.158639 -0.513106
v 0.554642 0.173287 -0.513106
v 0.749227 0.173287 -0.513106
v 0.868628 -0.192134 -0.372046
v 0.868628 -0.192134 0.228763
v 0.868628 0.206783 -0.372047
v 0.868628 0.206783 0.228763
v 0.868628 -0.065944 -0.513106
v 0.868628 0.080592 -0.513106
v 0.822419 -0.038018 0.171260
v 0.708749 -0.038018 -0.580859
v 0.892467 -0.038018 -0.580859
v 0.901966 -0.038018 0.171260
v 0.822419 0.051662 0.171260
v 0.708749 0.051662 -0.580859
v 0.892467 0.051662 -0.580859
v 0.901966 0.051662 0.171260
v 0.646666 0.051662 -0.179065
v 0.646666 -0.038018 -0.179065
v 0.954551 0.051662 -0.179065
v 0.954551 -0.038018 -0.179065
v 0.646666 0.051662 -0.536269
v 0.954551 -0.038018 -0.536269
v 0.646666 -0.038018 -0.536269
v 0.954551 0.051662 -0.536269
v -0.554642 -0.284099 0.228764
v -0.554642 -0.284099 -0.372045
v -0.749227 -0.284099 -0.372045
v -0.749227 -0.284099 0.228764
v -0.554642 0.298748 0.228764
v -0.554642 0.298748 -0.372046
v -0.749227 0.298748 -0.372046
v -0.749227 0.298748 0.228764
v -0.554642 -0.158639 -0.513105
v -0.749227 -0.158639 -0.513105
v -0.554642 0.173287 -0.513105
v -0.749227 0.173287 -0.513105
v -0.868628 -0.192134 -0.372046
v -0.868628 -0.192134 0.228764
v -0.868628 0.206783 -0.372046
v -0.868628 0.206783 0.228764
v -0.868628 -0.065944 -0.513105
v -0.868628 0.080592 -0.513105
v -0.822419 -0.038018 0.171261
v -0.708749 -0.038018 -0.580858
v -0.892467 -0.038018 -0.580858
v -0.901966 -0.038018 0.171261
v -0.822419 0.051662 0.171261
v -0.708749 0.051661 -0.580858
v -0.892467 0.051661 -0.580858
v -0.901966 0.051662 0.171261
v -0.646666 0.051662 -0.179064
v -0.646666 -0.038018 -0.179064
v -0.954551 0.051662 -0.179064
v -0.954551 -0.038018 -0.179064
v -0.646666 0.051661 -0.536268
v -0.954551 -0.038018 -0.536268
v -0.646666 -0.038018 -0.536268
v -0.954551 0.051661 -0.536268
vt 0.465384 0.543693
vt 0.500755 0.543692
vt 0.500756 0.557814
vt 0.465385 0.557815
vt 0.500755 0.500160
vt 0.465384 0.500160
vt 0.465384 0.486038
vt 0.500755 0.486038
vt 0.465385 0.573686
vt 0.500756 0.573685
vt 0.500755 0.527821
vt 0.465384 0.527822
vt 0.465383 0.470166
vt 0.500755 0.470166
vt 0.465385 0.585476
vt 0.500757 0.585475
vt 0.500755 0.516031
vt 0.465384 0.516031
vt 0.322075 0.285283
vt 0.322075 0.367691
vt 0.242130 0.367691
vt 0.242131 0.285283
vt 0.304868 0.387040
vt 0.259338 0.387040
vt 0.260553 0.114054
vt 0.342964 0.114059
vt 0.342961 0.134729
vt 0.260553 0.134727
vt 0.322075 0.258594
vt 0.242132 0.258594
vt 0.260555 0.087364
vt 0.342966 0.087368
vt 0.260552 0.210116
vt 0.342962 0.210116
vt 0.342962 0.236807
vt 0.260553 0.236807
vt 0.304870 0.413730
vt 0.259338 0.413732
vt 0.260552 0.189444
vt 0.342961 0.189445
vt 0.368860 0.087370
vt 0.368858 0.114060
vt 0.368856 0.210115
vt 0.368857 0.236806
vt 0.362309 0.152037
vt 0.362309 0.172136
vt 0.366630 0.199615
vt 0.366675 0.178882
vt 0.254746 0.242218
vt 0.309461 0.242218
vt 0.366629 0.124565
vt 0.366668 0.145297
vt 0.292156 0.430112
vt 0.272054 0.430112
vt 0.216842 0.560739
vt 0.216838 0.550252
vt 0.229141 0.550248
vt 0.229145 0.560734
vt 0.216830 0.525049
vt 0.229132 0.525046
vt 0.216833 0.465560
vt 0.216831 0.417012
vt 0.229121 0.417010
vt 0.229129 0.465561
vt 0.216827 0.406113
vt 0.229118 0.406108
vt 0.271364 0.514561
vt 0.262848 0.520678
vt 0.237646 0.520678
vt 0.229130 0.514561
vt 0.216827 0.514562
vt 0.208309 0.520678
vt 0.183104 0.520674
vt 0.174589 0.514556
vt 0.216805 0.352399
vt 0.229096 0.352394
vt 0.247255 0.417504
vt 0.271364 0.465561
vt 0.236343 0.417503
vt 0.209626 0.417500
vt 0.174596 0.465554
vt 0.198714 0.417499
vt 0.162286 0.514555
vt 0.162293 0.465552
vn 0.000000 0.406600 -0.913600
vn 0.000000 -0.406600 -0.913600
vn 0.000000 0.406600 0.913600
vn 0.000000 -0.406600 0.913600
vn 0.000000 -0.933500 -0.358600
vn 0.000000 0.933500 -0.358600
vn 0.000000 -0.933500 0.358600
vn 0.000000 0.933500 0.358500
vn -0.577300 0.577300 0.577300
vn -0.635200 0.721900 -0.274600
vn -0.635200 -0.721900 -0.274600
vn -0.577300 -0.577300 0.577300
vn -0.625500 0.319500 -0.711800
vn -0.625500 -0.319500 -0.711800
vn 0.247300 -0.726400 0.641200
vn 0.291700 -0.899700 -0.324700
vn 0.843600 -0.489100 -0.221700
vn 0.704000 -0.346400 0.619900
vn 0.247300 0.726400 0.641200
vn 0.291700 0.899700 -0.324700
vn 0.185100 0.457800 -0.869500
vn 0.185100 -0.457800 -0.869500
vn 0.704000 0.346400 0.619900
vn 0.843600 0.489100 -0.221700
vn 0.693400 -0.179200 -0.697900
vn 0.693400 0.179200 -0.697900
vn -0.699900 0.617400 -0.359100
vn -0.234400 0.644200 -0.728000
vn -0.234400 -0.644200 -0.728000
vn -0.699900 -0.617400 -0.359100
vn 0.234400 0.644200 -0.728000
vn 0.234400 -0.644200 -0.728000
vn 0.721100 0.690700 0.053800
vn 0.528900 0.585600 0.614200
vn 0.528900 -0.585600 0.614200
vn 0.721100 -0.690700 0.053800
vn -0.417800 0.605800 0.677100
vn -0.417800 -0.605800 0.677100
vn 0.699900 -0.617400 -0.359100
vn 0.699900 0.617400 -0.359100
vn -0.732100 0.658700 0.173300
vn -0.732100 -0.658700 0.173300
vn 0.577300 0.577300 0.577300
vn 0.577300 -0.577300 0.577300
vn 0.635200 -0.721900 -0.274600
vn 0.635200 0.721900 -0.274600
vn 0.625500 -0.319500 -0.711800
vn 0.625500 0.319500 -0.711800
vn -0.247300 -0.726400 0.641200
vn -0.704000 -0.346400 0.619900
vn -0.843600 -0.489100 -0.221700
vn -0.291700 -0.899700 -0.324700
vn -0.247300 0.726400 0.641200
vn -0.291700 0.899700 -0.324700
vn -0.185100 -0.457800 -0.869500
vn -0.185100 0.457800 -0.869500
vn -0.843600 0.489100 -0.221700
vn -0.704000 0.346400 0.619900
vn -0.693400 0.179200 -0.697900
vn -0.693400 -0.179200 -0.697900
vn -0.721100 0.690700 0.053800
vn -0.721100 -0.690700 0.053800
vn -0.528900 -0.585600 0.614200
vn -0.528900 0.585600 0.614200
vn 0.417800 -0.605800 0.677100
vn 0.417800 0.605800 0.677100
vn 0.732100 -0.658700 0.173300
vn 0.732100 0.658700 0.173300
s 1
f 6/1/1 7/2/1 3/3/2 2/4/2
f 8/5/3 5/6/3 1/7/4 4/8/4
f 11/9/5 2/4/2 3/3/2 16/10/5
f 13/11/6 7/2/1 6/1/1 10/12/6
f 1/7/4 12/13/7 15/14/7 4/8/4
f 12/15/7 11/9/5 16/10/5 15/16/7
f 8/5/3 14/17/8 9/18/8 5/6/3
f 14/17/8 13/11/6 10/12/6 9/18/8
s 2
f 22/1/1 18/4/2 19/3/2 23/2/1
f 24/5/3 20/8/4 17/7/4 21/6/3
f 27/9/5 32/10/5 19/3/2 18/4/2
f 29/11/6 26/12/6 22/1/1 23/2/1
f 17/7/4 20/8/4 31/14/7 28/13/7
f 28/15/7 31/16/7 32/10/5 27/9/5
f 24/5/3 21/6/3 25/18/8 30/17/8
f 30/17/8 25/18/8 26/12/6 29/11/6
s 3
f 37/19/9 38/20/10 34/21/11 33/22/12
f 34/21/11 38/20/10 43/23/13 41/24/14
f 36/25/15 35/26/16 45/27/17 46/28/18
f 40/29/19 37/19/9 33/22/12 36/30/15
f 33/31/12 34/32/11 35/26/16 36/25/15
f 40/33/19 39/34/20 38/35/10 37/36/9
f 43/23/13 44/37/21 42/38/22 41/24/14
f 39/34/20 40/33/19 48/39/23 47/40/24
f 35/26/16 34/32/11 41/41/14 42/42/22
f 38/35/10 39/34/20 44/43/21 43/44/13
f 47/40/24 48/39/23 46/28/18 45/27/17
f 47/40/24 45/27/17 49/45/25 50/46/26
f 44/47/21 39/34/20 47/40/24 50/48/26
f 40/29/19 36/30/15 46/49/18 48/50/23
f 35/26/16 42/51/22 49/52/25 45/27/17
f 42/38/22 44/37/21 50/53/26 49/54/25
s 4
f 63/55/27 56/56/28 52/57/29 65/58/30
f 56/56/28 57/59/31 53/60/32 52/57/29
f 61/61/33 58/62/34 54/63/35 62/64/36
f 58/62/34 55/65/37 51/66/38 54/63/35
f 65/67/30 52/68/29 53/69/32 64/70/39
f 66/71/40 57/72/31 56/73/28 63/74/27
f 55/65/37 59/75/41 60/76/42 51/66/38
f 66/71/40 61/61/33 62/64/36 64/70/39
f 51/77/38 60/78/42 62/64/36 54/79/35
f 58/80/34 61/61/33 59/81/41 55/82/37
f 59/81/41 63/74/27 65/83/30 60/84/42
f 60/78/42 65/67/30 64/70/39 62/64/36
f 61/61/33 66/71/40 63/74/27 59/81/41
f 57/59/31 66/71/40 64/70/39 53/60/32
s 5
f 71/19/43 67/22/44 68/21/45 72/20/46
f 68/21/45 75/24/47 77/23/48 72/20/46
f 70/25/49 80/28/50 79/27/51 69/26/52
f 74/29/53 70/30/49 67/22/44 71/19/43
f 67/31/44 70/25/49 69/26/52 68/32/45
f 74/33/53 71/36/43 72/35/46 73/34/54
f 77/23/48 75/24/47 76/38/55 78/37/56
f 73/34/54 81/40/57 82/39/58 74/33/53
f 69/26/52 76/42/55 75/41/47 68/32/45
f 72/35/46 77/44/48 78/43/56 73/34/54
f 81/40/57 79/27/51 80/28/50 82/39/58
f 81/40/57 84/46/59 83/45/60 79/27/51
f 78/47/56 84/48/59 81/40/57 73/34/54
f 74/29/53 82/50/58 80/49/50 70/30/49
f 69/26/52 79/27/51 83/52/60 76/51/55
f 76/38/55 83/54/60 84/53/59 78/37/56
s 6
f 97/55/40 99/58/39 86/57/32 90/56/31
f 90/56/31 86/57/32 87/60/29 91/59/28
f 95/61/61 96/64/62 88/63/63 92/62/64
f 92/62/64 88/63/63 85/66/65 89/65/66
f 99/67/39 98/70/30 87/69/29 86/68/32
f 100/71/27 97/74/40 90/73/31 91/72/28
f 89/65/66 85/66/65 94/76/67 93/75/68
f 100/71/27 98/70/30 96/64/62 95/61/61
f 85/77/65 88/79/63 96/64/62 94/78/67
f 92/80/64 89/82/66 93/81/68 95/61/61
f 93/81/68 94/84/67 99/83/39 97/74/40
f 94/78/67 96/64/62 98/70/30 99/67/39
f 95/61/61 93/81/68 97/74/40 100/71/27
f 91/59/28 87/60/29 98/70/30 100/71/27
