# Blender v2.71 (sub 0) OBJ File: 'WeaponPlatforms.blend'
# www.blender.org
o Platform4_Cube.601
v 4.383234 -0.109526 -2.768690
v 4.383234 -0.109525 1.161566
v 4.383234 0.109525 -2.768690
v 4.383234 0.109526 1.161566
v 2.677345 0.109525 -1.717022
v 2.677345 -0.109525 2.213234
v 2.677345 -0.109526 -1.717022
v 2.677345 0.109526 2.213234
v 4.807441 -0.109526 -2.768690
v 4.807441 -0.109525 1.161566
v 4.807441 0.109525 -2.768690
v 4.807441 0.109526 1.161566
v 4.383234 -0.207827 -2.690078
v 4.383234 -0.207826 0.967989
v 4.383234 0.207826 -2.690078
v 4.383234 0.207827 0.967989
v 2.677345 0.207826 -1.640323
v 2.677345 -0.207826 2.018671
v 2.677345 -0.207826 -1.640323
v 2.677345 0.207827 2.018671
v 4.807441 -0.207827 -2.690078
v 4.807441 -0.207826 0.967989
v 4.807441 0.207826 -2.690078
v 4.807441 0.207827 0.967989
v 1.328989 -0.085006 2.768690
v 1.328989 -0.273362 1.822353
v 1.948899 -0.273362 1.822353
v 1.948899 -0.085006 2.768690
v 1.328989 0.085007 2.768690
v 1.328989 0.273364 1.822353
v 1.948899 0.273364 1.822353
v 1.948899 0.085007 2.768690
v 1.328989 0.273364 2.344108
v 1.328989 -0.273362 2.344108
v 1.948899 0.273364 2.344108
v 1.948899 -0.273362 2.344108
v 4.623834 -0.274183 0.668037
v 4.623834 -0.274184 -2.376496
v 5.520558 -0.094381 -2.376496
v 5.520558 -0.094380 0.668037
v 4.623834 0.274184 0.668037
v 4.623834 0.274183 -2.376496
v 5.520558 0.094380 -2.376496
v 5.520558 0.094380 0.668037
v 5.031044 0.274183 -2.376496
v 5.031044 -0.274184 -2.376496
v 5.031044 0.274184 0.668037
v 5.031044 -0.274183 0.668037
v -4.383234 -0.109526 -2.768690
v -4.383234 -0.109525 1.161566
v -4.383234 0.109525 -2.768690
v -4.383234 0.109526 1.161566
v 0.000000 0.109525 -1.717022
v 0.000000 -0.109526 -1.717022
v 0.000000 0.109526 2.213234
v 0.000000 -0.109525 2.213234
v -2.677345 0.109525 -1.717022
v -2.677345 -0.109525 2.213234
v -2.677345 -0.109526 -1.717022
v -2.677345 0.109526 2.213234
v -4.807441 -0.109526 -2.768690
v -4.807441 -0.109525 1.161566
v -4.807441 0.109525 -2.768690
v -4.807441 0.109526 1.161566
v -4.383234 -0.207827 -2.690078
v -4.383234 -0.207826 0.967989
v -4.383234 0.207826 -2.690078
v -4.383234 0.207827 0.967989
v 0.000000 0.207826 -1.640322
v 0.000000 -0.207826 -1.640322
v 0.000000 0.207827 2.018671
v 0.000000 -0.207826 2.018671
v -2.677345 0.207826 -1.640323
v -2.677345 -0.207826 2.018671
v -2.677345 -0.207826 -1.640323
v -2.677345 0.207827 2.018671
v -4.807441 -0.207827 -2.690078
v -4.807441 -0.207826 0.967989
v -4.807441 0.207826 -2.690078
v -4.807441 0.207827 0.967989
v -1.328989 -0.085006 2.768690
v -1.328989 -0.273362 1.822353
v -1.948899 -0.273362 1.822353
v -1.948899 -0.085006 2.768690
v -1.328989 0.085007 2.768690
v -1.328989 0.273364 1.822353
v -1.948899 0.273364 1.822353
v -1.948899 0.085007 2.768690
v -1.328989 0.273364 2.344108
v -1.328989 -0.273362 2.344108
v -1.948899 0.273364 2.344108
v -1.948899 -0.273362 2.344108
v -4.623834 -0.274183 0.668037
v -4.623834 -0.274184 -2.376496
v -5.520558 -0.094381 -2.376496
v -5.520558 -0.094380 0.668037
v -4.623834 0.274184 0.668037
v -4.623834 0.274183 -2.376496
v -5.520558 0.094380 -2.376496
v -5.520558 0.094380 0.668037
v -5.031044 0.274183 -2.376496
v -5.031044 -0.274184 -2.376496
v -5.031044 0.274184 0.668037
v -5.031044 -0.274183 0.668037
vt 0.559542 0.576005
vt 0.778091 0.576006
vt 0.778091 0.599895
vt 0.559542 0.599894
vt 0.988459 0.424934
vt 0.988459 0.448822
vt 0.942196 0.448822
vt 0.942196 0.424933
vt 0.988459 0.462548
vt 0.942197 0.462549
vt 0.852499 0.369281
vt 0.852497 0.693372
vt 0.825981 0.693372
vt 0.825982 0.369281
vt 0.825982 0.126684
vt 0.802668 0.356920
vt 0.802755 0.114387
vt 0.488787 0.650557
vt 0.780769 0.650557
vt 0.780769 0.674446
vt 0.488787 0.674446
vt 0.907587 0.453977
vt 0.907601 0.882592
vt 0.896880 0.861483
vt 0.896867 0.462550
vt 0.852500 0.126684
vt 0.878886 0.369281
vt 0.878884 0.693373
vt 0.931476 0.453976
vt 0.931490 0.882592
vt 0.942209 0.861481
vt 0.988472 0.885156
vt 0.988473 0.909045
vt 0.942211 0.909047
vt 0.942210 0.885158
vt 0.988474 0.932721
vt 0.942212 0.932723
vt 0.008853 0.300558
vt 0.407889 0.300584
vt 0.522360 0.486629
vt 0.123425 0.486603
vt 0.009162 0.680774
vt 0.408198 0.680668
vt 0.408276 0.972649
vt 0.009239 0.972755
vt 0.008872 0.008577
vt 0.407908 0.008603
vt 0.123696 0.494706
vt 0.522631 0.494600
vt 0.988471 0.861480
vt 0.988474 0.012262
vt 0.988460 0.411207
vt 0.942196 0.411206
vt 0.942210 0.012260
vt 0.488787 0.636959
vt 0.780769 0.636960
vt 0.773592 0.612863
vt 0.555152 0.612763
vt 0.555152 0.563136
vt 0.773592 0.563037
vt 0.799594 0.693372
vt 0.799595 0.369280
vt 0.875727 0.114387
vt 0.875814 0.356921
vt 0.780769 0.688043
vt 0.488787 0.688043
vt 0.780428 0.098516
vt 0.694252 0.098516
vt 0.694252 0.008217
vt 0.780428 0.008217
vt 0.591866 0.098516
vt 0.591866 0.008218
vt 0.505693 0.098515
vt 0.435570 0.067407
vt 0.435570 0.039328
vt 0.505693 0.008218
vt 0.591863 0.261408
vt 0.694251 0.261410
vt 0.694250 0.289490
vt 0.591862 0.289488
vt 0.694249 0.366208
vt 0.694247 0.452385
vt 0.591859 0.452383
vt 0.591860 0.366206
vt 0.591864 0.184691
vt 0.694252 0.184693
vt 0.850553 0.067406
vt 0.850553 0.039326
vt 0.518124 0.932424
vt 0.850149 0.932425
vt 0.850149 0.992228
vt 0.518124 0.992227
vt 0.894558 0.932425
vt 0.947942 0.952034
vt 0.947942 0.972619
vt 0.894558 0.992228
vt 0.850149 0.831145
vt 0.518124 0.831143
vt 0.518124 0.810558
vt 0.850149 0.810559
vt 0.473715 0.932424
vt 0.473715 0.992227
vt 0.518124 0.753686
vt 0.850149 0.753688
vt 0.518124 0.888015
vt 0.850149 0.888016
vt 0.420330 0.952033
vt 0.420330 0.972618
vt 0.518125 0.709277
vt 0.850150 0.709279
vn -0.271600 0.333300 -0.902800
vn -0.249900 0.306500 -0.918500
vn -0.249900 -0.306500 -0.918500
vn -0.271600 -0.333300 -0.902800
vn 0.639600 0.254300 -0.725300
vn 0.639600 -0.254300 -0.725300
vn -0.154500 0.863800 -0.479500
vn 0.621300 0.706100 -0.339500
vn 0.230500 0.482300 0.845100
vn 0.000000 0.523900 0.851700
vn 0.000000 -0.523900 0.851700
vn 0.230500 -0.482300 0.845100
vn 0.242100 -0.557400 0.794200
vn 0.091900 -0.959300 0.267100
vn 0.047300 -0.980200 0.192400
vn 0.000000 0.325200 -0.945600
vn 0.000000 -0.325200 -0.945600
vn 0.606200 -0.416000 0.677800
vn 0.658300 -0.732100 0.175200
vn 0.621300 -0.706100 -0.339500
vn 0.242100 0.557400 0.794200
vn 0.091900 0.959300 0.267100
vn 0.000000 0.972700 0.231800
vn 0.606200 0.416000 0.677800
vn 0.658300 0.732100 0.175200
vn -0.093500 -0.925900 -0.366000
vn -0.154500 -0.863800 -0.479500
vn -0.093500 0.925900 -0.366000
vn 0.000000 0.898600 -0.438600
vn 0.000000 -0.972700 0.231800
vn 0.000000 -0.898600 -0.438600
vn 0.047300 0.980200 0.192400
vn 0.271600 0.333300 -0.902800
vn 0.271600 -0.333300 -0.902800
vn 0.249900 -0.306500 -0.918500
vn 0.249900 0.306500 -0.918500
vn -0.639600 -0.254300 -0.725300
vn -0.639600 0.254300 -0.725300
vn -0.621300 0.706200 -0.339500
vn 0.154500 0.863800 -0.479500
vn -0.230500 0.482300 0.845100
vn -0.230500 -0.482300 0.845100
vn -0.242100 -0.557400 0.794200
vn -0.047300 -0.980200 0.192400
vn -0.091900 -0.959300 0.267100
vn -0.621300 -0.706100 -0.339500
vn -0.658300 -0.732100 0.175200
vn -0.606200 -0.416000 0.677800
vn -0.242100 0.557400 0.794200
vn -0.091900 0.959300 0.267100
vn -0.606200 0.416000 0.677800
vn -0.658300 0.732100 0.175200
vn 0.154500 -0.863800 -0.479500
vn 0.093500 -0.925900 -0.366000
vn 0.093500 0.925900 -0.366000
vn -0.047300 0.980200 0.192400
vn -0.663300 0.732100 0.155100
vn -0.577300 0.577300 -0.577300
vn -0.577300 -0.577300 -0.577300
vn -0.663300 -0.732100 0.155100
vn 0.577300 0.577300 -0.577300
vn 0.577300 -0.577300 -0.577300
vn 0.663300 0.732100 0.155100
vn 0.602500 0.435100 0.669000
vn 0.602500 -0.435100 0.669000
vn 0.663300 -0.732100 0.155100
vn -0.602500 0.435100 0.669000
vn -0.602500 -0.435100 0.669000
vn -0.577300 0.577300 0.577300
vn -0.577300 -0.577300 0.577300
vn 0.130000 0.731100 -0.669700
vn 0.657100 0.458700 -0.598100
vn 0.657100 -0.458700 -0.598100
vn 0.130000 -0.731100 -0.669700
vn 0.657100 0.458700 0.598100
vn 0.657100 -0.458700 0.598100
vn 0.130000 0.731100 0.669700
vn 0.130000 -0.731100 0.669700
vn 0.577300 0.577300 0.577300
vn 0.577300 -0.577300 0.577300
vn -0.130000 0.731100 -0.669700
vn -0.130000 -0.731100 -0.669700
vn -0.657100 -0.458700 -0.598100
vn -0.657100 0.458700 -0.598100
vn -0.657100 -0.458700 0.598100
vn -0.657100 0.458700 0.598100
vn -0.130000 0.731100 0.669700
vn -0.130000 -0.731100 0.669700
s 1
f 5/1/1 3/2/2 1/3/3 7/4/4
f 1/5/3 3/6/2 11/7/5 9/8/6
f 11/7/5 3/6/2 15/9/7 23/10/8
f 8/11/9 55/12/10 56/13/11 6/14/12
f 2/15/13 6/14/12 18/16/14 14/17/15
f 53/18/16 5/19/1 7/20/4 54/21/17
f 9/22/6 10/23/18 22/24/19 21/25/20
f 4/26/21 8/11/9 6/14/12 2/15/13
f 55/12/10 8/11/9 20/27/22 71/28/23
f 11/29/5 12/30/24 10/23/18 9/22/6
f 12/30/24 11/29/5 23/10/8 24/31/25
f 4/32/21 2/33/13 10/34/18 12/35/24
f 10/34/18 2/33/13 14/36/15 22/37/19
f 18/38/14 19/39/26 13/40/27 14/41/15
f 20/42/22 17/43/28 69/44/29 71/45/23
f 72/46/30 70/47/31 19/39/26 18/38/14
f 16/48/32 15/49/7 17/43/28 20/42/22
f 15/9/7 16/50/32 24/31/25 23/10/8
f 14/51/15 13/52/27 21/53/20 22/54/19
f 5/19/1 53/18/16 69/55/29 17/56/28
f 7/4/4 1/3/3 13/57/27 19/58/26
f 3/2/2 5/1/1 17/59/28 15/60/7
f 1/5/3 9/8/6 21/53/20 13/52/27
f 6/14/12 56/13/11 72/61/30 18/62/14
f 8/11/9 4/26/21 16/63/32 20/64/22
f 4/32/21 12/35/24 24/31/25 16/50/32
f 54/21/17 7/20/4 19/65/26 70/66/31
f 57/1/33 59/4/34 49/3/35 51/2/36
f 49/5/35 61/8/37 63/7/38 51/6/36
f 63/7/38 79/10/39 67/9/40 51/6/36
f 60/11/41 58/14/42 56/13/11 55/12/10
f 50/15/43 66/17/44 74/16/45 58/14/42
f 53/18/16 54/21/17 59/20/34 57/19/33
f 61/22/37 77/25/46 78/24/47 62/23/48
f 52/26/49 50/15/43 58/14/42 60/11/41
f 55/12/10 71/28/23 76/27/50 60/11/41
f 63/29/38 61/22/37 62/23/48 64/30/51
f 64/30/51 80/31/52 79/10/39 63/29/38
f 52/32/49 64/35/51 62/34/48 50/33/43
f 62/34/48 78/37/47 66/36/44 50/33/43
f 74/38/45 66/41/44 65/40/53 75/39/54
f 76/42/50 71/45/23 69/44/29 73/43/55
f 72/46/30 74/38/45 75/39/54 70/47/31
f 68/48/56 76/42/50 73/43/55 67/49/40
f 67/9/40 79/10/39 80/31/52 68/50/56
f 66/51/44 78/54/47 77/53/46 65/52/53
f 57/19/33 73/56/55 69/55/29 53/18/16
f 59/4/34 75/58/54 65/57/53 49/3/35
f 51/2/36 67/60/40 73/59/55 57/1/33
f 49/5/35 65/52/53 77/53/46 61/8/37
f 58/14/42 74/62/45 72/61/30 56/13/11
f 60/11/41 76/64/50 68/63/56 52/26/49
f 52/32/49 68/50/56 80/31/52 64/35/51
f 54/21/17 70/66/31 75/65/54 59/20/34
s 2
f 33/67/57 30/68/58 26/69/59 34/70/60
f 30/68/58 31/71/61 27/72/62 26/69/59
f 35/73/63 32/74/64 28/75/65 36/76/66
f 32/77/64 29/78/67 25/79/68 28/80/65
f 34/81/60 26/82/59 27/83/62 36/84/66
f 35/85/63 31/71/61 30/68/58 33/86/57
f 29/87/67 33/67/57 34/70/60 25/88/68
f 31/71/61 35/73/63 36/76/66 27/72/62
f 25/79/68 34/81/60 36/84/66 28/80/65
f 32/77/64 35/85/63 33/86/57 29/78/67
s 3
f 41/89/69 42/90/58 38/91/59 37/92/70
f 45/93/71 43/94/72 39/95/73 46/96/74
f 43/97/72 44/98/75 40/99/76 39/100/73
f 47/101/77 41/89/69 37/92/70 48/102/78
f 48/103/78 46/104/74 39/100/73 40/99/76
f 47/105/77 45/106/71 42/90/58 41/89/69
f 42/90/58 45/93/71 46/96/74 38/91/59
f 44/107/75 47/101/77 48/102/78 40/108/76
f 37/109/70 38/110/59 46/104/74 48/103/78
f 44/98/75 43/97/72 45/106/71 47/105/77
s 4
f 89/67/63 90/70/66 82/69/62 86/68/61
f 86/68/61 82/69/62 83/72/59 87/71/58
f 91/73/57 92/76/60 84/75/68 88/74/67
f 88/77/67 84/80/68 81/79/65 85/78/64
f 90/81/66 92/84/60 83/83/59 82/82/62
f 91/85/57 89/86/63 86/68/61 87/71/58
f 85/87/64 81/88/65 90/70/66 89/67/63
f 87/71/58 83/72/59 92/76/60 91/73/57
f 81/79/65 84/80/68 92/84/60 90/81/66
f 88/77/67 85/78/64 89/86/63 91/85/57
s 5
f 97/89/79 93/92/80 94/91/62 98/90/61
f 101/93/81 102/96/82 95/95/83 99/94/84
f 99/97/84 95/100/83 96/99/85 100/98/86
f 103/101/87 104/102/88 93/92/80 97/89/79
f 104/103/88 96/99/85 95/100/83 102/104/82
f 103/105/87 97/89/79 98/90/61 101/106/81
f 98/90/61 94/91/62 102/96/82 101/93/81
f 100/107/86 96/108/85 104/102/88 103/101/87
f 93/109/80 104/103/88 102/104/82 94/110/62
f 100/98/86 103/105/87 101/106/81 99/97/84
