# Blender v2.71 (sub 0) OBJ File: 'WeaponPlatforms.blend'
# www.blender.org
o PlatformHeavyTurretBody_Cube.715
v 0.517147 -0.004677 -0.198943
v 0.517147 -0.004677 0.198943
v 0.517147 0.378920 -0.198943
v 0.517147 0.378920 0.198943
v 0.258573 0.378920 -0.517147
v 0.258573 -0.004677 0.517147
v 0.258573 -0.004677 -0.517147
v 0.258573 0.378920 0.517147
v -0.517147 -0.004677 -0.198943
v -0.517147 -0.004677 0.198943
v -0.517147 0.378920 -0.198943
v -0.517147 0.378920 0.198943
v 0.000000 0.378920 -0.517147
v 0.000000 -0.004677 -0.517147
v 0.000000 0.378920 0.517147
v 0.000000 -0.004677 0.517147
v -0.258573 0.378920 -0.517147
v -0.258573 -0.004677 0.517147
v -0.258573 -0.004677 -0.517147
v -0.258573 0.378920 0.517147
v 0.840880 1.083446 -1.188912
v 0.840880 1.083447 0.492848
v 1.290385 0.763880 -1.188912
v 1.290385 0.763880 0.492848
v 0.187148 1.083447 0.492848
v 1.290385 0.560524 -1.188912
v 0.514014 1.083447 0.492848
v 0.187148 0.717945 0.870606
v 0.514014 0.717945 0.870606
v 0.840880 0.921230 0.948320
v 1.290385 0.601664 0.948320
v 0.187148 0.921230 0.948320
v 0.514014 0.921230 0.948320
v 1.290385 0.560524 0.948320
v 0.187148 0.717945 0.948320
v 0.514014 0.717945 0.948320
v 0.683163 0.317816 -1.054102
v 0.683163 0.317817 0.615966
v 1.001695 0.567327 -1.054102
v 1.001695 0.567327 0.615966
v 0.218161 0.579476 1.413021
v 0.218161 0.376295 0.584608
v 0.461218 0.376295 0.584608
v 0.461218 0.579476 1.413021
v 0.218161 0.697607 1.413021
v 0.461218 0.697607 1.413021
v 0.218161 0.697607 0.584608
v 0.218161 0.376295 0.985134
v 0.461218 0.697607 0.584608
v 0.461218 0.376295 0.985134
v 0.602509 0.963188 0.731837
v 0.602509 0.963188 -0.339032
v 0.769011 0.963188 -0.339032
v 0.769011 0.963188 0.731837
v 0.602509 1.026072 0.731837
v 0.602509 1.129690 -0.339032
v 0.769011 1.129690 -0.339032
v 0.769011 1.026072 0.731837
v 0.602509 1.129690 0.490654
v 0.769011 1.129690 0.490654
v 0.148492 0.879863 0.897311
v 0.148492 1.193103 -0.831195
v 0.148492 1.073888 0.897311
v 0.148492 1.316606 0.459592
v 0.148492 1.019621 -0.831195
v 0.148492 1.316606 -0.717523
v 0.141224 1.061223 0.366517
v 0.141224 1.061223 0.199473
v 0.499826 1.061223 0.199473
v 0.499826 1.061223 0.366517
v 0.141224 1.228267 0.366517
v 0.141224 1.228267 0.199473
v 0.499826 1.127603 0.199473
v 0.499826 1.127603 0.366517
v 0.135253 0.381782 -1.027730
v 0.135253 0.523885 -1.472110
v 0.579634 0.523885 -1.472110
v 0.579634 0.381782 -1.027730
v 0.135253 1.028057 -1.027730
v 0.135253 0.885953 -1.472110
v 0.579634 0.885953 -1.472110
v 0.579634 1.028057 -1.027730
v 0.135253 1.028057 -1.316194
v 0.135253 0.381781 -1.316194
v 0.579634 1.028057 -1.316194
v 0.579634 0.381781 -1.316194
v 0.141224 1.061223 -0.377159
v 0.141224 1.061223 -0.544204
v 0.499826 1.061223 -0.544204
v 0.499826 1.061223 -0.377159
v 0.141224 1.228267 -0.377159
v 0.141224 1.228267 -0.544204
v 0.499826 1.127603 -0.544204
v 0.499826 1.127603 -0.377159
v -0.840880 1.083446 -1.188912
v -0.840880 1.083447 0.492848
v 0.000000 0.560524 -1.188912
v 0.000000 1.083447 0.492848
v -1.290385 0.763880 -1.188912
v -1.290385 0.763880 0.492848
v 0.000000 1.083446 -1.188912
v -0.187148 1.083447 0.492848
v -1.290385 0.560524 -1.188912
v -0.514014 1.083447 0.492848
v -0.187148 0.717945 0.870606
v -0.514014 0.717945 0.870606
v -0.840880 0.921230 0.948320
v 0.000000 0.921230 0.948320
v -1.290385 0.601664 0.948320
v -0.187148 0.921230 0.948320
v -0.514014 0.921230 0.948320
v -1.290385 0.560524 0.948320
v 0.000000 0.560524 0.948320
v -0.187148 0.717945 0.948320
v -0.514014 0.717945 0.948320
v -0.683163 0.317816 -1.054102
v -0.683163 0.317817 0.615966
v -1.001695 0.567327 -1.054102
v -1.001695 0.567327 0.615966
v 0.000000 0.567327 -1.054102
v 0.000000 0.317816 -1.054102
v 0.000000 0.567327 0.615966
v 0.000000 0.317817 0.615966
v -0.218161 0.579476 1.413021
v -0.218161 0.376295 0.584608
v -0.461218 0.376295 0.584608
v -0.461218 0.579476 1.413021
v -0.218161 0.697607 1.413021
v -0.461218 0.697607 1.413021
v -0.218161 0.697607 0.584608
v -0.218161 0.376295 0.985134
v -0.461218 0.697607 0.584608
v -0.461218 0.376295 0.985134
v -0.602509 0.963188 0.731837
v -0.602509 0.963188 -0.339032
v -0.769011 0.963188 -0.339032
v -0.769011 0.963188 0.731837
v -0.602509 1.026072 0.731837
v -0.602509 1.129690 -0.339032
v -0.769011 1.129690 -0.339032
v -0.769011 1.026072 0.731837
v -0.602509 1.129690 0.490654
v -0.769011 1.129690 0.490654
v -0.148492 0.879863 0.897311
v -0.148492 1.193103 -0.831195
v -0.148492 1.073888 0.897311
v 0.000000 1.193103 -0.831196
v 0.000000 1.019621 -0.831195
v 0.000000 1.073888 0.897311
v 0.000000 0.879863 0.897311
v -0.148492 1.316606 0.459592
v 0.000000 1.316607 0.459591
v -0.148492 1.019621 -0.831195
v -0.148492 1.316606 -0.717523
v 0.000000 1.316607 -0.717525
v -0.141224 1.061223 0.366517
v -0.141224 1.061223 0.199473
v -0.499826 1.061223 0.199473
v -0.499826 1.061223 0.366517
v -0.141224 1.228267 0.366517
v -0.141224 1.228267 0.199473
v -0.499826 1.127603 0.199473
v -0.499826 1.127603 0.366517
v -0.135253 0.381782 -1.027730
v -0.135253 0.523885 -1.472110
v -0.579634 0.523885 -1.472110
v -0.579634 0.381782 -1.027730
v -0.135253 1.028057 -1.027730
v -0.135253 0.885953 -1.472110
v -0.579634 0.885953 -1.472110
v -0.579634 1.028057 -1.027730
v -0.135253 1.028057 -1.316194
v -0.135253 0.381781 -1.316194
v -0.579634 1.028057 -1.316194
v -0.579634 0.381781 -1.316194
v -0.141224 1.061223 -0.377159
v -0.141224 1.061223 -0.544204
v -0.499826 1.061223 -0.544204
v -0.499826 1.061223 -0.377159
v -0.141224 1.228267 -0.377159
v -0.141224 1.228267 -0.544204
v -0.499826 1.127603 -0.544204
v -0.499826 1.127603 -0.377159
vt 0.620849 0.934017
vt 0.564609 0.934018
vt 0.564609 0.881402
vt 0.620848 0.881401
vt 0.510034 0.934018
vt 0.510034 0.881402
vt 0.453794 0.934017
vt 0.418327 0.934016
vt 0.418329 0.881400
vt 0.453795 0.881402
vt 0.656316 0.934016
vt 0.656315 0.881400
vt 0.072955 0.729858
vt 0.145053 0.729858
vt 0.084683 0.757309
vt 0.065294 0.737271
vt 0.995978 0.491832
vt 0.765303 0.491832
vt 0.765303 0.416184
vt 0.995979 0.416184
vt 0.750594 0.417627
vt 0.698985 0.491834
vt 0.684276 0.417629
vt 0.765303 0.581500
vt 0.765304 0.607170
vt 0.698986 0.607170
vt 0.698986 0.581500
vt 0.496339 0.120187
vt 0.545815 0.181842
vt 0.540172 0.181842
vt 0.145053 0.685025
vt 0.072956 0.685025
vt 0.524223 0.075353
vt 0.524223 0.030519
vt 0.545815 0.004849
vt 0.910690 0.004849
vt 0.910690 0.120186
vt 0.838964 0.181842
vt 0.838964 0.004849
vt 0.702828 0.388290
vt 0.995979 0.388291
vt 0.702828 0.393933
vt 0.765304 0.536666
vt 0.995978 0.607170
vt 0.496340 0.030519
vt 0.496340 0.004849
vt 0.496339 0.075353
vt 0.698986 0.536668
vt 0.866857 0.181842
vt 0.065295 0.677613
vt 0.084684 0.657574
vt 0.062296 0.729858
vt 0.062296 0.685025
vt 0.686656 0.192890
vt 0.686655 0.330284
vt 0.652432 0.286594
vt 0.652432 0.192889
vt 0.652432 0.342093
vt 0.423361 0.342094
vt 0.423361 0.286595
vt 0.423361 0.192890
vt 0.389137 0.330286
vt 0.389137 0.192890
vt 0.424722 0.351400
vt 0.424705 0.465029
vt 0.408502 0.465027
vt 0.380641 0.406332
vt 0.458044 0.465030
vt 0.458046 0.481229
vt 0.424708 0.481236
vt 0.458069 0.546197
vt 0.458099 0.601135
vt 0.424758 0.601152
vt 0.424730 0.546211
vt 0.458060 0.351405
vt 0.502123 0.406347
vt 0.474247 0.465032
vt 0.502130 0.351411
vt 0.380650 0.351394
vt 0.647045 0.717820
vt 0.647045 0.694983
vt 0.669882 0.694983
vt 0.669882 0.717820
vt 0.497236 0.694981
vt 0.497236 0.717821
vt 0.488609 0.717821
vt 0.488610 0.694981
vt 0.533244 0.694982
vt 0.533244 0.717820
vt 0.647045 0.740658
vt 0.500163 0.740658
vt 0.500163 0.680769
vt 0.500163 0.672144
vt 0.500163 0.732033
vt 0.647046 0.672145
vt 0.719948 0.832715
vt 0.719949 0.853084
vt 0.693335 0.853085
vt 0.693334 0.832717
vt 0.950060 0.832715
vt 0.973083 0.832716
vt 0.973082 0.853083
vt 0.950060 0.853082
vt 0.788605 0.832711
vt 0.788606 0.853079
vt 0.996878 0.832718
vt 0.996876 0.853085
vt 0.728567 0.799418
vt 0.728567 0.772805
vt 0.965653 0.791980
vt 0.965652 0.815775
vt 0.256095 0.808344
vt 0.315353 0.808364
vt 0.318204 0.818534
vt 0.263269 0.833934
vt 0.315362 0.781788
vt 0.325923 0.781792
vt 0.325914 0.808368
vt 0.256104 0.781768
vt 0.263296 0.756183
vt 0.318220 0.771621
vt 0.442119 0.745348
vt 0.420733 0.725857
vt 0.420733 0.676194
vt 0.442119 0.656702
vt 0.359781 0.725857
vt 0.359781 0.676195
vt 0.338395 0.745348
vt 0.298829 0.745348
vt 0.298829 0.656704
vt 0.338395 0.656704
vt 0.420732 0.647259
vt 0.359781 0.647260
vt 0.359781 0.754793
vt 0.420734 0.754792
vt 0.481686 0.745348
vt 0.481686 0.656701
vt 0.420732 0.607693
vt 0.359780 0.607694
vt 0.359781 0.794359
vt 0.420734 0.794359
vn 0.429700 -0.000000 -0.903000
vn 0.942400 -0.000000 -0.334600
vn 0.942400 0.000000 0.334600
vn 0.429700 0.000000 0.903000
vn 0.000000 0.000000 1.000000
vn 0.000000 0.000000 -1.000000
vn -0.429700 -0.000000 -0.903000
vn -0.942400 -0.000000 -0.334600
vn -0.942400 0.000000 0.334600
vn -0.429700 0.000000 0.903000
vn 0.631600 0.718600 0.290700
vn 0.071200 0.960100 0.270400
vn 0.597500 0.462200 0.655200
vn 0.301500 0.301500 0.904500
vn 0.232500 0.728300 -0.644600
vn 0.292200 0.943100 0.158800
vn 0.866100 0.491500 0.090900
vn 0.699300 0.360900 -0.617000
vn 0.210900 0.614300 0.760300
vn 0.692700 0.278400 0.665300
vn 0.000000 0.985400 0.170200
vn 0.000000 0.576400 0.817100
vn 0.577300 -0.577300 0.577300
vn -0.071200 0.960100 0.270400
vn -0.631600 0.718600 0.290700
vn -0.301500 0.301500 0.904500
vn 0.000000 -0.707100 0.707100
vn 0.000000 0.707100 -0.707100
vn 0.577300 -0.577300 -0.577300
vn 0.000000 -0.707100 -0.707100
vn -0.597500 0.462200 0.655200
vn -0.232500 0.728300 -0.644600
vn -0.699300 0.360900 -0.617000
vn -0.866100 0.491500 0.090900
vn -0.292200 0.943100 0.158800
vn -0.692700 0.278400 0.665300
vn -0.210900 0.614300 0.760300
vn -0.577300 -0.577300 0.577300
vn -0.577300 -0.577300 -0.577300
vn 0.567900 -0.725000 -0.389600
vn 0.250500 -0.725900 -0.640500
vn 0.567900 -0.725000 0.389600
vn 0.250500 -0.725900 0.640500
vn -0.250500 -0.725900 -0.640500
vn -0.567900 -0.725000 -0.389600
vn -0.250500 -0.725900 0.640500
vn -0.567900 -0.725000 0.389600
vn 0.707100 0.707100 -0.000000
vn 0.577300 0.577300 0.577300
vn 0.604300 -0.425700 0.673500
vn 0.660800 -0.732200 0.165000
vn -0.577300 0.577300 0.577300
vn -0.604300 -0.425700 0.673500
vn -0.660800 -0.732200 0.165000
vn -0.707100 -0.707100 0.000000
vn 0.707100 -0.707100 0.000000
vn -0.707100 0.707100 -0.000000
vn -0.577300 0.577300 -0.577300
vn 0.577300 0.577300 -0.577300
vn 0.707100 -0.000000 -0.707100
vn -0.707100 0.000000 -0.707100
vn 0.601700 0.439300 0.667000
vn -0.601700 0.439300 0.667000
vn -0.707100 0.000000 0.707100
vn 0.707100 -0.000000 0.707100
vn 0.664400 0.732000 0.150600
vn -0.664400 0.732000 0.150600
vn 0.608700 0.402600 0.683600
vn 0.000000 0.507500 0.861700
vn 0.688200 0.000000 0.725500
vn 0.626900 0.713500 -0.313000
vn 0.633700 0.281100 -0.720600
vn 0.000000 0.363400 -0.931600
vn 0.000000 0.915700 -0.401700
vn 0.654800 0.731700 0.189300
vn 0.000000 0.968100 0.250400
vn 0.724600 -0.000000 -0.689200
vn -0.608700 0.402600 0.683600
vn -0.688200 -0.000000 0.725500
vn -0.626900 0.713500 -0.313000
vn -0.633700 0.281100 -0.720600
vn -0.654800 0.731700 0.189300
vn -0.724600 -0.000000 -0.689200
vn 0.208400 0.742400 -0.636700
vn 0.641600 0.486300 -0.593100
vn 0.641600 0.486300 0.593100
vn 0.208400 0.742400 0.636700
vn -0.634100 0.721000 -0.279300
vn -0.626500 0.314900 -0.713000
vn -0.626500 -0.314900 -0.713000
vn -0.634100 -0.721000 -0.279300
vn 0.626500 0.314900 -0.713000
vn 0.626500 -0.314900 -0.713000
vn 0.634100 0.721000 -0.279300
vn 0.634100 -0.721000 -0.279300
vn -0.208400 0.742400 -0.636700
vn -0.641600 0.486300 -0.593100
vn -0.641600 0.486300 0.593100
vn -0.208400 0.742400 0.636700
s 1
f 5/1/1 3/2/2 1/3/2 7/4/1
f 3/2/2 4/5/3 2/6/3 1/3/2
f 8/7/4 15/8/5 16/9/5 6/10/4
f 13/11/6 5/1/1 7/4/1 14/12/6
f 4/5/3 8/7/4 6/10/4 2/6/3
f 17/1/7 19/4/7 9/3/8 11/2/8
f 11/2/8 9/3/8 10/6/9 12/5/9
f 20/7/10 18/10/10 16/9/5 15/8/5
f 13/11/6 14/12/6 19/4/7 17/1/7
f 12/5/9 10/6/9 18/10/10 20/7/10
s 2
f 28/13/11 25/14/12 32/15/13 35/16/14
f 21/17/15 22/18/16 24/19/17 23/20/18
f 24/21/17 22/18/16 30/22/19 31/23/20
f 25/24/12 98/25/21 108/26/22 32/27/13
f 30/28/19 34/29/23 31/30/20
f 27/31/24 25/14/12 28/13/11 29/32/25
f 36/33/26 35/34/14 113/35/27 34/29/23
f 101/36/28 21/37/15 26/38/29 97/39/30
f 23/20/18 24/19/17 34/40/23 26/41/29
f 34/40/23 24/19/17 31/42/20
f 22/18/16 21/17/15 27/43/24
f 113/35/27 97/39/30 26/38/29 34/29/23
f 27/43/24 21/17/15 101/44/28 25/24/12
f 32/45/13 108/46/22 113/35/27 35/34/14
f 30/28/19 33/47/31 36/33/26 34/29/23
f 22/18/16 27/43/24 33/48/31 30/22/19
f 26/38/29 21/37/15 23/49/18
f 27/31/24 29/32/25 36/50/26 33/51/31
f 25/24/12 101/44/28 98/25/21
f 29/32/25 28/13/11 35/52/14 36/53/26
f 105/13/25 114/16/26 110/15/31 102/14/24
f 95/17/32 99/20/33 100/19/34 96/18/35
f 100/21/34 109/23/36 107/22/37 96/18/35
f 102/24/24 110/27/31 108/26/22 98/25/21
f 107/28/37 109/30/36 112/29/38
f 104/31/12 106/32/11 105/13/25 102/14/24
f 115/33/14 112/29/38 113/35/27 114/34/26
f 101/36/28 97/39/30 103/38/39 95/37/32
f 99/20/33 103/41/39 112/40/38 100/19/34
f 112/40/38 109/42/36 100/19/34
f 96/18/35 104/43/12 95/17/32
f 113/35/27 112/29/38 103/38/39 97/39/30
f 104/43/12 102/24/24 101/44/28 95/17/32
f 110/45/31 114/34/26 113/35/27 108/46/22
f 107/28/37 112/29/38 115/33/14 111/47/13
f 96/18/35 107/22/37 111/48/13 104/43/12
f 103/38/39 99/49/33 95/37/32
f 104/31/12 111/51/13 115/50/14 106/32/11
f 102/24/24 98/25/21 101/44/28
f 106/32/11 115/53/14 114/52/26 105/13/25
s 3
f 120/54/6 39/55/40 37/56/41 121/57/30
f 39/58/40 40/59/42 38/60/43 37/56/41
f 123/61/27 121/57/30 37/56/41 38/60/43
f 40/62/42 122/63/5 123/61/27 38/60/43
f 120/54/6 121/57/30 116/56/44 118/55/45
f 118/58/45 116/56/44 117/60/46 119/59/47
f 123/61/27 117/60/46 116/56/44 121/57/30
f 119/62/47 117/60/46 123/61/27 122/63/5
s 4
f 49/64/48 46/65/49 44/66/50 50/67/51
f 46/65/49 45/68/52 41/69/53 44/70/50
f 48/71/54 42/72/55 43/73/56 50/74/51
f 45/68/52 47/75/57 48/76/54 41/77/53
f 41/69/53 48/71/54 50/74/51 44/70/50
f 46/65/49 49/64/48 47/75/57 45/68/52
f 47/75/57 42/78/55 48/76/54
f 49/64/48 50/67/51 43/79/56
s 5
f 56/80/58 57/81/59 53/82/60 52/83/61
f 58/84/62 55/85/63 51/86/64 54/87/65
f 60/88/66 57/81/59 56/80/58 59/89/67
f 58/84/62 60/88/66 59/89/67 55/85/63
f 59/89/67 56/80/58 52/90/61 51/91/64
f 60/88/66 58/92/62 54/93/65
f 55/94/63 59/89/67 51/91/64
f 57/81/59 60/88/66 54/93/65 53/95/60
s 6
f 63/96/68 149/97/69 150/98/5 61/99/70
f 66/100/71 62/101/72 147/102/73 155/103/74
f 63/96/68 64/104/75 152/105/76 149/97/69
f 64/104/75 66/100/71 155/103/74 152/105/76
f 147/102/73 62/101/72 65/106/77 148/107/6
f 64/104/75 63/108/68 61/109/70
f 66/100/71 64/104/75 61/109/70 65/110/77
f 62/111/72 66/100/71 65/110/77
f 146/96/78 144/99/79 150/98/5 149/97/69
f 154/100/80 155/103/74 147/102/73 145/101/81
f 146/96/78 149/97/69 152/105/76 151/104/82
f 151/104/82 152/105/76 155/103/74 154/100/80
f 147/102/73 148/107/6 153/106/83 145/101/81
f 151/104/82 144/109/79 146/108/78
f 154/100/80 153/110/83 144/109/79 151/104/82
f 145/111/81 153/110/83 154/100/80
s 7
f 72/112/84 73/113/85 69/114/60 68/115/6
f 73/113/85 74/116/86 70/117/65 69/118/60
f 74/116/86 71/119/87 67/120/5 70/121/65
f 74/116/86 73/113/85 72/112/84 71/119/87
s 8
f 83/122/88 80/123/89 76/124/90 84/125/91
f 80/123/89 81/126/92 77/127/93 76/124/90
f 85/128/94 82/129/48 78/130/56 86/131/95
f 84/132/91 76/124/90 77/127/93 86/133/95
f 85/134/94 81/126/92 80/123/89 83/135/88
f 79/136/57 83/122/88 84/125/91 75/137/55
f 81/126/92 85/128/94 86/131/95 77/127/93
f 75/138/55 84/132/91 86/133/95 78/139/56
f 82/140/48 85/134/94 83/135/88 79/141/57
s 9
f 92/112/84 93/113/85 89/114/60 88/115/6
f 93/113/85 94/116/86 90/117/65 89/118/60
f 94/116/86 91/119/87 87/120/5 90/121/65
f 94/116/86 93/113/85 92/112/84 91/119/87
s 10
f 132/64/57 133/67/54 127/66/53 129/65/52
f 129/65/52 127/70/53 124/69/50 128/68/49
f 131/71/51 133/74/54 126/73/55 125/72/56
f 128/68/49 124/77/50 131/76/51 130/75/48
f 124/69/50 127/70/53 133/74/54 131/71/51
f 129/65/52 128/68/49 130/75/48 132/64/57
f 130/75/48 131/76/51 125/78/56
f 132/64/57 126/79/55 133/67/54
s 11
f 139/80/59 135/83/60 136/82/61 140/81/58
f 141/84/63 137/87/64 134/86/65 138/85/62
f 143/88/67 142/89/66 139/80/59 140/81/58
f 141/84/63 138/85/62 142/89/66 143/88/67
f 142/89/66 134/91/65 135/90/60 139/80/59
f 143/88/67 137/93/64 141/92/63
f 138/94/62 134/91/65 142/89/66
f 140/81/58 136/95/61 137/93/64 143/88/67
s 12
f 161/112/96 157/115/6 158/114/61 162/113/97
f 162/113/97 158/118/61 159/117/64 163/116/98
f 163/116/98 159/121/64 156/120/5 160/119/99
f 163/116/98 160/119/99 161/112/96 162/113/97
s 13
f 172/122/94 173/125/95 165/124/93 169/123/92
f 169/123/92 165/124/93 166/127/90 170/126/89
f 174/128/88 175/131/91 167/130/55 171/129/57
f 173/132/95 175/133/91 166/127/90 165/124/93
f 174/134/88 172/135/94 169/123/92 170/126/89
f 168/136/48 164/137/56 173/125/95 172/122/94
f 170/126/89 166/127/90 175/131/91 174/128/88
f 164/138/56 167/139/55 175/133/91 173/132/95
f 171/140/57 168/141/48 172/135/94 174/134/88
s 14
f 181/112/96 177/115/6 178/114/61 182/113/97
f 182/113/97 178/118/61 179/117/64 183/116/98
f 183/116/98 179/121/64 176/120/5 180/119/99
f 183/116/98 180/119/99 181/112/96 182/113/97
