# Blender v2.71 (sub 0) OBJ File: 'WeaponPlatforms.blend'
# www.blender.org
o PlatformMediumTurretBarrel_Cube.711
v 0.240783 0.111625 -0.080531
v 0.271067 0.063076 -0.080531
v 0.271067 -0.063075 -0.080531
v 0.271067 0.063076 1.182470
v 0.271067 -0.063075 1.182470
v 0.264640 0.046463 1.225256
v 0.264640 -0.046462 1.225256
v 0.242602 0.062423 1.225256
v 0.259537 0.035273 1.225256
v 0.259537 -0.035273 1.225256
v 0.242602 0.062423 1.181779
v 0.259537 -0.035273 1.181779
v 0.203749 -0.111625 -0.080531
v 0.203749 -0.111625 1.182470
v 0.203749 0.111625 -0.080531
v 0.203749 0.111625 1.182470
v 0.240783 -0.111625 -0.080531
v 0.240783 0.111625 1.182470
v 0.240783 -0.111625 1.182470
v 0.173465 0.063076 -0.080531
v 0.173465 -0.063075 -0.080531
v 0.173465 0.063075 1.182470
v 0.173465 -0.063076 1.182470
v 0.242602 -0.062423 1.225256
v 0.202199 -0.082226 1.225256
v 0.202199 0.082225 1.225256
v 0.242332 0.082226 1.225256
v 0.242332 -0.082225 1.225256
v 0.179891 0.046462 1.225256
v 0.179891 -0.046463 1.225256
v 0.201929 0.062422 1.225256
v 0.201929 -0.062423 1.225256
v 0.184994 0.035272 1.225256
v 0.184994 -0.035274 1.225256
v 0.242602 -0.062423 1.181779
v 0.201929 0.062422 1.181779
v 0.201929 -0.062423 1.181779
v 0.184994 0.035272 1.181779
v 0.184994 -0.035274 1.181779
v 0.259537 0.035273 1.181779
v -0.240783 0.111625 -0.080531
v -0.271067 0.063076 -0.080531
v -0.271067 -0.063075 -0.080531
v -0.271067 0.063076 1.182470
v -0.271067 -0.063075 1.182470
v -0.264640 0.046463 1.225256
v -0.264640 -0.046462 1.225256
v -0.242602 0.062423 1.225256
v -0.259537 0.035273 1.225256
v -0.259537 -0.035273 1.225256
v -0.242602 0.062423 1.181779
v -0.259537 -0.035273 1.181779
v -0.203749 -0.111625 -0.080531
v -0.203749 -0.111625 1.182470
v -0.203749 0.111625 -0.080531
v -0.203749 0.111625 1.182470
v -0.240783 -0.111625 -0.080531
v -0.240783 0.111625 1.182470
v -0.240783 -0.111625 1.182470
v -0.173465 0.063076 -0.080531
v -0.173465 -0.063075 -0.080531
v -0.173465 0.063075 1.182470
v -0.173465 -0.063076 1.182470
v -0.242602 -0.062423 1.225256
v -0.202199 -0.082226 1.225256
v -0.202199 0.082225 1.225256
v -0.242332 0.082226 1.225256
v -0.242332 -0.082225 1.225256
v -0.179891 0.046462 1.225256
v -0.179891 -0.046463 1.225256
v -0.201929 0.062422 1.225256
v -0.201929 -0.062423 1.225256
v -0.184994 0.035272 1.225256
v -0.184994 -0.035274 1.225256
v -0.242602 -0.062423 1.181779
v -0.201929 0.062422 1.181779
v -0.201929 -0.062423 1.181779
v -0.184994 0.035272 1.181779
v -0.184994 -0.035274 1.181779
v -0.259537 0.035273 1.181779
v 0.018082 0.111625 -0.080531
v 0.048366 0.063076 -0.080531
v 0.048366 -0.063075 -0.080531
v 0.048366 0.063076 1.182470
v 0.048366 -0.063075 1.182470
v 0.041939 0.046463 1.225256
v 0.041939 -0.046462 1.225256
v 0.019901 0.062423 1.225256
v 0.036837 0.035273 1.225256
v 0.036837 -0.035273 1.225256
v 0.019901 0.062423 1.181779
v 0.036837 -0.035273 1.181779
v -0.018952 -0.111625 -0.080531
v -0.018952 -0.111625 1.182470
v -0.018952 0.111625 -0.080531
v -0.018952 0.111625 1.182470
v 0.018082 -0.111625 -0.080531
v 0.018082 0.111625 1.182470
v 0.018082 -0.111625 1.182470
v -0.049236 0.063076 -0.080531
v -0.049236 -0.063075 -0.080531
v -0.049236 0.063075 1.182470
v -0.049236 -0.063076 1.182470
v 0.019901 -0.062423 1.225256
v -0.020502 -0.082226 1.225256
v -0.020502 0.082225 1.225256
v 0.019632 0.082226 1.225256
v 0.019632 -0.082225 1.225256
v -0.042809 0.046462 1.225256
v -0.042809 -0.046463 1.225256
v -0.020772 0.062422 1.225256
v -0.020772 -0.062423 1.225256
v -0.037707 0.035272 1.225256
v -0.037707 -0.035274 1.225256
v 0.019901 -0.062423 1.181779
v -0.020772 0.062422 1.181779
v -0.020772 -0.062423 1.181779
v -0.037707 0.035272 1.181779
v -0.037707 -0.035274 1.181779
v 0.036837 0.035273 1.181779
vt 0.670871 0.778524
vt 0.497626 0.778527
vt 0.497626 0.761223
vt 0.670871 0.761220
vt 0.472883 0.783165
vt 0.485603 0.783133
vt 0.484072 0.783835
vt 0.474416 0.783859
vt 0.491691 0.776249
vt 0.491691 0.763502
vt 0.670871 0.816606
vt 0.670871 0.824455
vt 0.497629 0.824455
vt 0.497629 0.816606
vt 0.497626 0.753374
vt 0.497625 0.748295
vt 0.670871 0.748290
vt 0.670871 0.753371
vt 0.490505 0.753587
vt 0.490505 0.748082
vt 0.670871 0.791454
vt 0.670871 0.799303
vt 0.497629 0.799303
vt 0.497630 0.791454
vt 0.491444 0.800769
vt 0.491444 0.794988
vt 0.491444 0.820921
vt 0.491444 0.815139
vt 0.472910 0.794764
vt 0.474440 0.794062
vt 0.484095 0.794040
vt 0.485628 0.794735
vt 0.467995 0.786229
vt 0.470705 0.786186
vt 0.470718 0.791753
vt 0.468008 0.791723
vt 0.491695 0.814328
vt 0.491695 0.801581
vt 0.490517 0.791673
vt 0.490509 0.786174
vt 0.497626 0.786377
vt 0.487807 0.791714
vt 0.922801 0.336749
vt 0.934773 0.336750
vt 0.934773 0.347949
vt 0.922801 0.347949
vt 0.928437 0.358106
vt 0.942248 0.352612
vt 0.935912 0.362769
vt 0.968006 0.362768
vt 0.961671 0.352612
vt 0.969146 0.347948
vt 0.975482 0.358105
vt 0.942248 0.364582
vt 0.961671 0.364582
vt 0.670871 0.786373
vt 0.491441 0.782842
vt 0.491440 0.777061
vt 0.491440 0.762690
vt 0.491440 0.756909
vt 0.487796 0.786144
vt 0.928438 0.326593
vt 0.935913 0.321931
vt 0.942249 0.332088
vt 0.968006 0.321935
vt 0.975479 0.326597
vt 0.969145 0.336751
vt 0.961671 0.332088
vt 0.942249 0.320118
vt 0.961672 0.320118
vt 0.981116 0.347948
vt 0.981115 0.336750
vn 0.961400 0.275300 -0.000000
vn 0.946500 0.296400 0.127700
vn 0.946500 -0.296400 0.127700
vn 0.961400 -0.275300 0.000000
vn 0.664900 -0.149200 0.731800
vn 0.664900 0.149200 0.731800
vn -0.608000 -0.174100 0.774600
vn -0.608000 0.174100 0.774600
vn -0.961400 -0.275300 -0.000000
vn -0.485200 -0.874400 -0.000000
vn -0.441700 -0.861300 0.251000
vn -0.946500 -0.296400 0.127700
vn 0.441700 -0.861300 0.251000
vn 0.485200 -0.874400 0.000000
vn 0.361900 -0.498900 0.787500
vn -0.361800 -0.498900 0.787500
vn -0.485200 0.874400 0.000000
vn -0.961400 0.275300 0.000000
vn -0.946500 0.296400 0.127700
vn -0.441700 0.861300 0.251000
vn -0.664900 0.149200 0.731800
vn -0.361900 0.498900 0.787500
vn -0.664900 -0.149200 0.731800
vn 0.608000 0.174100 0.774600
vn 0.608000 -0.174100 0.774600
vn -0.267600 0.482300 0.834100
vn 0.267600 0.482300 0.834100
vn 0.361800 0.498900 0.787500
vn 0.441700 0.861300 0.251000
vn 0.267600 -0.482300 0.834100
vn -0.383500 0.691200 0.612500
vn 0.383500 0.691200 0.612500
vn 0.730500 0.209100 0.650100
vn 0.730500 -0.209100 0.650100
vn 0.383500 -0.691200 0.612500
vn 0.485200 0.874400 -0.000000
vn -0.267600 -0.482300 0.834100
vn -0.730500 0.209100 0.650100
vn -0.383500 -0.691200 0.612500
vn -0.730500 -0.209100 0.650100
vn 0.361800 -0.498900 0.787500
vn -0.361900 -0.498900 0.787500
vn 0.361900 0.498900 0.787500
vn -0.361800 0.498900 0.787500
s 1
f 2/1/1 4/2/2 5/3/3 3/4/4
f 7/5/5 6/6/6 9/7/7 10/8/8
f 5/3/3 4/2/2 6/9/6 7/10/5
f 21/11/9 13/12/10 14/13/11 23/14/12
f 19/15/13 14/16/11 13/17/10 17/18/14
f 19/15/13 28/19/15 25/20/16 14/16/11
f 15/21/17 20/22/18 22/23/19 16/24/20
f 20/22/18 21/11/9 23/14/12 22/23/19
f 22/23/19 29/25/21 26/26/22 16/24/20
f 14/13/11 25/27/16 30/28/23 23/14/12
f 30/29/23 34/30/24 33/31/25 29/32/21
f 28/33/15 24/34/26 32/35/27 25/36/16
f 23/14/12 30/37/23 29/38/21 22/23/19
f 16/24/20 26/39/22 27/40/28 18/41/29
f 25/36/16 32/35/27 34/30/24 30/29/23
f 29/32/21 33/31/25 31/42/30 26/39/22
f 24/43/26 35/44/31 37/45/32 32/46/27
f 32/47/27 37/45/32 39/48/33 34/49/24
f 33/50/25 38/51/34 36/52/35 31/53/30
f 34/54/24 39/48/33 38/51/34 33/55/25
f 3/4/4 5/3/3 19/15/13 17/18/14
f 1/56/36 18/41/29 4/2/2 2/1/1
f 4/2/2 18/41/29 27/57/28 6/58/6
f 19/15/13 5/3/3 7/59/5 28/60/15
f 28/33/15 7/5/5 10/8/8 24/34/26
f 6/6/6 27/40/28 8/61/37 9/7/7
f 24/62/26 10/63/8 12/64/38 35/44/31
f 9/65/7 8/66/37 11/67/39 40/68/40
f 10/69/8 9/70/7 40/68/40 12/64/38
f 16/24/20 18/41/29 1/56/36 15/21/17
f 26/39/22 31/42/30 8/61/37 27/40/28
f 31/71/30 36/52/35 11/67/39 8/72/37
f 39/48/33 12/64/38 40/68/40 38/51/34
f 37/45/32 35/44/31 12/64/38 39/48/33
f 38/51/34 40/68/40 11/67/39 36/52/35
s 2
f 42/1/18 43/4/9 45/3/12 44/2/19
f 47/5/23 50/8/24 49/7/25 46/6/21
f 45/3/12 47/10/23 46/9/21 44/2/19
f 61/11/4 63/14/3 54/13/13 53/12/14
f 59/15/11 57/18/10 53/17/14 54/16/13
f 59/15/11 54/16/13 65/20/41 68/19/42
f 55/21/36 56/24/29 62/23/2 60/22/1
f 60/22/1 62/23/2 63/14/3 61/11/4
f 62/23/2 56/24/29 66/26/43 69/25/6
f 54/13/13 63/14/3 70/28/5 65/27/41
f 70/29/5 69/32/6 73/31/7 74/30/8
f 68/33/42 65/36/41 72/35/26 64/34/27
f 63/14/3 62/23/2 69/38/6 70/37/5
f 56/24/29 58/41/20 67/40/44 66/39/43
f 65/36/41 70/29/5 74/30/8 72/35/26
f 69/32/6 66/39/43 71/42/37 73/31/7
f 64/43/27 72/46/26 77/45/31 75/44/32
f 72/47/26 74/49/8 79/48/38 77/45/31
f 73/50/7 71/53/37 76/52/39 78/51/40
f 74/54/8 73/55/7 78/51/40 79/48/38
f 43/4/9 57/18/10 59/15/11 45/3/12
f 41/56/17 42/1/18 44/2/19 58/41/20
f 44/2/19 46/58/21 67/57/44 58/41/20
f 59/15/11 68/60/42 47/59/23 45/3/12
f 68/33/42 64/34/27 50/8/24 47/5/23
f 46/6/21 49/7/25 48/61/30 67/40/44
f 64/62/27 75/44/32 52/64/33 50/63/24
f 49/65/25 80/68/34 51/67/35 48/66/30
f 50/69/24 52/64/33 80/68/34 49/70/25
f 56/24/29 55/21/36 41/56/17 58/41/20
f 66/39/43 67/40/44 48/61/30 71/42/37
f 71/71/37 48/72/30 51/67/35 76/52/39
f 79/48/38 78/51/40 80/68/34 52/64/33
f 77/45/31 79/48/38 52/64/33 75/44/32
f 78/51/40 76/52/39 51/67/35 80/68/34
s 3
f 82/1/1 84/2/2 85/3/3 83/4/4
f 87/5/5 86/6/6 89/7/7 90/8/8
f 85/3/3 84/2/2 86/9/6 87/10/5
f 101/11/9 93/12/10 94/13/11 103/14/12
f 99/15/13 94/16/11 93/17/10 97/18/14
f 99/15/13 108/19/15 105/20/16 94/16/11
f 95/21/17 100/22/18 102/23/19 96/24/20
f 100/22/18 101/11/9 103/14/12 102/23/19
f 102/23/19 109/25/21 106/26/22 96/24/20
f 94/13/11 105/27/16 110/28/23 103/14/12
f 110/29/23 114/30/24 113/31/25 109/32/21
f 108/33/15 104/34/26 112/35/27 105/36/16
f 103/14/12 110/37/23 109/38/21 102/23/19
f 96/24/20 106/39/22 107/40/28 98/41/29
f 105/36/16 112/35/27 114/30/24 110/29/23
f 109/32/21 113/31/25 111/42/30 106/39/22
f 104/43/26 115/44/31 117/45/32 112/46/27
f 112/47/27 117/45/32 119/48/33 114/49/24
f 113/50/25 118/51/34 116/52/35 111/53/30
f 114/54/24 119/48/33 118/51/34 113/55/25
f 83/4/4 85/3/3 99/15/13 97/18/14
f 81/56/36 98/41/29 84/2/2 82/1/1
f 84/2/2 98/41/29 107/57/28 86/58/6
f 99/15/13 85/3/3 87/59/5 108/60/15
f 108/33/15 87/5/5 90/8/8 104/34/26
f 86/6/6 107/40/28 88/61/37 89/7/7
f 104/62/26 90/63/8 92/64/38 115/44/31
f 89/65/7 88/66/37 91/67/39 120/68/40
f 90/69/8 89/70/7 120/68/40 92/64/38
f 96/24/20 98/41/29 81/56/36 95/21/17
f 106/39/22 111/42/30 88/61/37 107/40/28
f 111/71/30 116/52/35 91/67/39 88/72/37
f 119/48/33 92/64/38 120/68/40 118/51/34
f 117/45/32 115/44/31 92/64/38 119/48/33
f 118/51/34 120/68/40 91/67/39 116/52/35
