# Blender v2.71 (sub 0) OBJ File: 'WeaponPlatforms.blend'
# www.blender.org
o PlatformEngine_Cube.590
v 0.448777 -0.103252 -0.094480
v 0.448777 -0.103252 0.132895
v 0.448777 0.103252 -0.094480
v 0.448777 0.103252 0.132895
v 0.331133 0.191717 -0.094480
v 0.331133 -0.191717 0.132895
v 0.331133 -0.191717 -0.094480
v 0.331133 0.191717 0.132895
v 0.412869 -0.086729 -0.132895
v 0.412869 0.086729 -0.132895
v 0.314051 0.161037 -0.132895
v 0.314051 -0.161037 -0.132895
v 0.395615 -0.074525 -0.132895
v 0.395615 0.074525 -0.132895
v 0.305056 0.138376 -0.132895
v 0.305056 -0.138376 -0.132895
v 0.395615 -0.074525 -0.009942
v 0.395615 0.074525 -0.009942
v 0.305056 0.138376 -0.009942
v 0.305056 -0.138376 -0.009942
v 0.044339 -0.150951 -0.005832
v 0.044339 -0.150951 -0.051728
v 0.064462 -0.150951 -0.051728
v 0.064462 -0.150951 -0.005832
v 0.044339 0.153071 -0.005832
v 0.044339 0.153071 -0.051728
v 0.064462 0.153071 -0.051728
v 0.064462 0.153071 -0.005832
v 0.151035 -0.150951 -0.005832
v 0.151035 -0.150951 -0.051728
v 0.171158 -0.150951 -0.051728
v 0.171158 -0.150951 -0.005832
v 0.151035 0.153071 -0.005832
v 0.151035 0.153071 -0.051728
v 0.171158 0.153071 -0.051728
v 0.171158 0.153071 -0.005832
v 0.266166 -0.150951 -0.005832
v 0.266166 -0.150951 -0.051728
v 0.286289 -0.150951 -0.051728
v 0.286289 -0.150951 -0.005832
v 0.266166 0.153071 -0.005832
v 0.266166 0.153071 -0.051728
v 0.286289 0.153071 -0.051728
v 0.286289 0.153071 -0.005832
v -0.448777 -0.103252 -0.094480
v -0.448777 -0.103252 0.132895
v -0.448777 0.103252 -0.094480
v -0.448777 0.103252 0.132895
v 0.000000 0.191717 -0.094481
v 0.000000 -0.191717 -0.094481
v 0.000000 0.191717 0.132895
v 0.000000 -0.191717 0.132895
v -0.331133 0.191717 -0.094480
v -0.331133 -0.191717 0.132895
v -0.331133 -0.191717 -0.094480
v -0.331133 0.191717 0.132895
v -0.412869 -0.086729 -0.132895
v -0.412869 0.086729 -0.132895
v 0.000000 0.161037 -0.132895
v 0.000000 -0.161037 -0.132895
v -0.314051 0.161037 -0.132895
v -0.314051 -0.161037 -0.132895
v -0.395615 -0.074525 -0.132895
v -0.395615 0.074525 -0.132895
v 0.000000 0.138376 -0.132895
v 0.000000 -0.138376 -0.132895
v -0.305056 0.138376 -0.132895
v -0.305056 -0.138376 -0.132895
v -0.395615 -0.074525 -0.009942
v -0.395615 0.074525 -0.009942
v -0.305056 0.138376 -0.009942
v -0.305056 -0.138376 -0.009942
v 0.000000 0.138376 -0.009942
v 0.000000 -0.138376 -0.009942
v -0.044339 -0.150951 -0.005832
v -0.044339 -0.150951 -0.051728
v -0.064462 -0.150951 -0.051728
v -0.064462 -0.150951 -0.005832
v -0.044339 0.153071 -0.005832
v -0.044339 0.153071 -0.051728
v -0.064462 0.153071 -0.051728
v -0.064462 0.153071 -0.005832
v -0.151035 -0.150951 -0.005832
v -0.151035 -0.150951 -0.051728
v -0.171158 -0.150951 -0.051728
v -0.171158 -0.150951 -0.005832
v -0.151035 0.153071 -0.005832
v -0.151035 0.153071 -0.051728
v -0.171158 0.153071 -0.051728
v -0.171158 0.153071 -0.005832
v -0.266166 -0.150951 -0.005832
v -0.266166 -0.150951 -0.051728
v -0.286289 -0.150951 -0.051728
v -0.286289 -0.150951 -0.005832
v -0.266166 0.153071 -0.005832
v -0.266166 0.153071 -0.051728
v -0.286289 0.153071 -0.051728
v -0.286289 0.153071 -0.005832
vt 0.038852 0.993205
vt 0.038867 0.947786
vt 0.045609 0.950132
vt 0.045595 0.993207
vt 0.038874 0.927597
vt 0.007687 0.927586
vt 0.007696 0.899262
vt 0.038884 0.899273
vt 0.007703 0.879072
vt 0.038891 0.879083
vt 0.007679 0.947776
vt 0.007665 0.993195
vt 0.046095 0.901542
vt 0.046087 0.925333
vt 0.007719 0.833652
vt 0.038907 0.833663
vt 0.048717 0.951366
vt 0.048704 0.993208
vt 0.045975 0.947132
vt 0.045981 0.930174
vt 0.048741 0.931060
vt 0.049201 0.946252
vt 0.045650 0.833665
vt 0.045635 0.876742
vt 0.045999 0.879742
vt 0.045993 0.896701
vt 0.048461 0.903216
vt 0.048454 0.923660
vt 0.048759 0.833666
vt 0.048744 0.875509
vt 0.049225 0.880625
vt 0.048754 0.895816
vt 0.220344 0.652292
vt 0.220344 0.672737
vt 0.203479 0.672737
vt 0.203479 0.652292
vt 0.213198 0.686520
vt 0.200776 0.695278
vt 0.191058 0.681495
vt 0.200776 0.629751
vt 0.213198 0.638509
vt 0.191058 0.643534
vt 0.149216 0.626670
vt 0.191058 0.626670
vt 0.149216 0.643534
vt 0.191058 0.698359
vt 0.149216 0.698359
vt 0.149216 0.681495
vt 0.111254 0.138546
vt 0.099654 0.138546
vt 0.099654 0.061703
vt 0.111254 0.061703
vt 0.094568 0.138546
vt 0.094568 0.061703
vt 0.082967 0.138547
vt 0.082967 0.061703
vn 0.000000 0.943800 -0.330600
vn 0.305800 0.890600 -0.336500
vn 0.135900 0.453700 -0.880700
vn 0.000000 0.433500 -0.901100
vn 0.837400 0.416100 -0.354300
vn 0.894700 0.446700 -0.000000
vn 0.894700 -0.446700 0.000000
vn 0.837400 -0.416100 -0.354300
vn 0.316800 -0.948500 0.000000
vn 0.305800 -0.890600 -0.336500
vn 0.316800 0.948500 -0.000000
vn 0.000000 1.000000 -0.000000
vn 0.412200 -0.210600 -0.886400
vn 0.412200 0.210600 -0.886400
vn 0.000000 -1.000000 0.000000
vn 0.000000 -0.943800 -0.330600
vn -0.188400 -0.594300 -0.781900
vn 0.000000 -0.707100 -0.707100
vn -0.499400 -0.258900 -0.826700
vn 0.000000 -0.433500 -0.901100
vn 0.135900 -0.453700 -0.880700
vn -0.499400 0.258900 -0.826700
vn 0.000000 0.707100 -0.707100
vn -0.188400 0.594300 -0.781900
vn -0.698800 0.362300 -0.616700
vn -0.698800 -0.362300 -0.616700
vn -0.231000 0.728400 -0.645000
vn -0.231000 -0.728400 -0.645000
vn -0.135900 0.453700 -0.880700
vn -0.305800 0.890600 -0.336500
vn -0.837400 0.416100 -0.354300
vn -0.837400 -0.416100 -0.354300
vn -0.894700 -0.446700 0.000000
vn -0.894700 0.446700 -0.000000
vn -0.316800 -0.948500 0.000000
vn -0.305800 -0.890600 -0.336500
vn -0.316800 0.948500 -0.000000
vn -0.412200 0.210600 -0.886400
vn -0.412200 -0.210600 -0.886400
vn 0.188400 -0.594300 -0.781900
vn 0.499400 -0.258900 -0.826700
vn -0.135900 -0.453700 -0.880700
vn 0.499400 0.258900 -0.826700
vn 0.188400 0.594300 -0.781900
vn 0.698800 -0.362300 -0.616700
vn 0.698800 0.362300 -0.616700
vn 0.231000 0.728400 -0.645000
vn 0.231000 -0.728400 -0.645000
vn -1.000000 0.000000 0.000000
vn -0.707100 -0.000000 -0.707100
vn 0.707100 -0.000000 -0.707100
vn 1.000000 0.000000 0.000000
s 1
f 49/1/1 5/2/2 11/3/3 59/4/4
f 3/5/5 4/6/6 2/7/7 1/8/8
f 6/9/9 7/10/10 1/8/8 2/7/7
f 8/11/11 5/2/2 49/1/1 51/12/12
f 3/5/5 1/8/8 9/13/13 10/14/14
f 52/15/15 50/16/16 7/10/10 6/9/9
f 4/6/6 3/5/5 5/2/2 8/11/11
f 59/4/4 11/3/3 15/17/17 65/18/18
f 11/19/3 10/20/14 14/21/19 15/22/17
f 5/2/2 3/5/5 10/20/14 11/19/3
f 7/10/10 50/16/16 60/23/20 12/24/21
f 1/8/8 7/10/10 12/25/21 9/26/13
f 10/14/14 9/13/13 13/27/22 14/28/19
f 12/24/21 60/23/20 66/29/23 16/30/24
f 9/26/13 12/25/21 16/31/24 13/32/22
f 14/33/19 13/34/22 17/35/25 18/36/26
f 13/37/22 16/38/24 20/39/27 17/35/25
f 15/40/17 14/41/19 18/36/26 19/42/28
f 65/43/18 15/44/17 19/42/28 73/45/18
f 16/46/24 66/47/23 74/48/23 20/39/27
f 18/36/26 17/35/25 74/48/23 73/45/18
f 19/42/28 18/36/26 73/45/18
f 17/35/25 20/39/27 74/48/23
f 49/1/1 59/4/4 61/3/29 53/2/30
f 47/5/31 45/8/32 46/7/33 48/6/34
f 54/9/35 46/7/33 45/8/32 55/10/36
f 56/11/37 51/12/12 49/1/1 53/2/30
f 47/5/31 58/14/38 57/13/39 45/8/32
f 52/15/15 54/9/35 55/10/36 50/16/16
f 48/6/34 56/11/37 53/2/30 47/5/31
f 59/4/4 65/18/18 67/17/40 61/3/29
f 61/19/29 67/22/40 64/21/41 58/20/38
f 53/2/30 61/19/29 58/20/38 47/5/31
f 55/10/36 62/24/42 60/23/20 50/16/16
f 45/8/32 57/26/39 62/25/42 55/10/36
f 58/14/38 64/28/41 63/27/43 57/13/39
f 62/24/42 68/30/44 66/29/23 60/23/20
f 57/26/39 63/32/43 68/31/44 62/25/42
f 64/33/41 70/36/45 69/35/46 63/34/43
f 63/37/43 69/35/46 72/39/47 68/38/44
f 67/40/40 71/42/48 70/36/45 64/41/41
f 65/43/18 73/45/18 71/42/48 67/44/40
f 68/46/44 72/39/47 74/48/23 66/47/23
f 70/36/45 73/45/18 74/48/23 69/35/46
f 71/42/48 73/45/18 70/36/45
f 69/35/46 74/48/23 72/39/47
s 2
f 25/49/49 26/50/50 22/51/50 21/52/49
f 26/50/50 27/53/51 23/54/51 22/51/50
f 27/53/51 28/55/52 24/56/52 23/54/51
s 3
f 33/49/49 34/50/50 30/51/50 29/52/49
f 34/50/50 35/53/51 31/54/51 30/51/50
f 35/53/51 36/55/52 32/56/52 31/54/51
s 4
f 41/49/49 42/50/50 38/51/50 37/52/49
f 42/50/50 43/53/51 39/54/51 38/51/50
f 43/53/51 44/55/52 40/56/52 39/54/51
s 5
f 79/49/52 75/52/52 76/51/51 80/50/51
f 80/50/51 76/51/51 77/54/50 81/53/50
f 81/53/50 77/54/50 78/56/49 82/55/49
s 6
f 87/49/52 83/52/52 84/51/51 88/50/51
f 88/50/51 84/51/51 85/54/50 89/53/50
f 89/53/50 85/54/50 86/56/49 90/55/49
s 7
f 95/49/52 91/52/52 92/51/51 96/50/51
f 96/50/51 92/51/51 93/54/50 97/53/50
f 97/53/50 93/54/50 94/56/49 98/55/49
