# Blender v2.71 (sub 0) OBJ File: 'Carriers.blend'
# www.blender.org
o MediumTorpedo_Plane.009
v 0.038559 -0.000000 -0.198145
v 0.019280 0.033393 -0.198145
v -0.019279 0.033393 -0.198145
v -0.038559 -0.000000 -0.198145
v -0.019279 -0.033393 -0.198145
v 0.019280 -0.033393 -0.198145
v 0.038559 0.000000 0.234041
v 0.019280 0.033393 0.234041
v -0.019279 0.033393 0.234041
v -0.038559 0.000000 0.234041
v -0.019279 -0.033393 0.234041
v 0.019280 -0.033393 0.234041
v 0.024805 0.000000 0.252451
v 0.012402 0.021482 0.252451
v -0.012402 0.021482 0.252451
v -0.024805 0.000000 0.252451
v -0.012402 -0.021481 0.252451
v 0.012402 -0.021481 0.252451
v 0.000000 0.000000 0.260599
v -0.012705 -0.022006 -0.214178
v -0.025410 -0.000000 -0.214178
v -0.012705 0.022006 -0.214178
v 0.012705 0.022006 -0.214178
v 0.025410 -0.000000 -0.214178
v 0.012705 -0.022006 -0.214178
v -0.012705 -0.022006 -0.224531
v -0.025410 -0.000000 -0.224531
v -0.012705 0.022006 -0.224531
v 0.012705 0.022006 -0.224531
v 0.025410 -0.000000 -0.224531
v 0.012705 -0.022006 -0.224531
v -0.018649 -0.032301 -0.238577
v -0.037299 -0.000000 -0.238577
v -0.018649 0.032301 -0.238577
v 0.018649 0.032301 -0.238577
v 0.037299 -0.000000 -0.238577
v 0.018649 -0.032301 -0.238577
v -0.018649 -0.032301 -0.260599
v -0.037299 -0.000000 -0.260599
v -0.018649 0.032301 -0.260599
v 0.018649 0.032301 -0.260599
v 0.037299 -0.000000 -0.260599
v 0.018649 -0.032301 -0.260599
v -0.014395 -0.024934 -0.260599
v -0.028791 -0.000000 -0.260599
v -0.014395 0.024934 -0.260599
v 0.014395 0.024934 -0.260599
v 0.028791 -0.000000 -0.260599
v 0.014396 -0.024934 -0.260599
v -0.014395 -0.024934 -0.241877
v -0.028791 -0.000000 -0.241877
v -0.014395 0.024934 -0.241877
v 0.014395 0.024934 -0.241877
v 0.028791 -0.000000 -0.241877
v 0.014396 -0.024934 -0.241877
vt 0.761116 0.022549
vt 0.804946 0.022563
vt 0.804939 0.513767
vt 0.761116 0.513790
vt 0.848771 0.022584
vt 0.892588 0.022602
vt 0.892517 0.513783
vt 0.848698 0.513762
vt 0.717286 0.022549
vt 0.717285 0.513801
vt 0.936412 0.022611
vt 0.980235 0.022616
vt 0.980159 0.513799
vt 0.936338 0.513788
vt 0.972338 0.538714
vt 0.944149 0.538707
vt 0.900331 0.538707
vt 0.928523 0.538705
vt 0.768949 0.538705
vt 0.797136 0.538687
vt 0.856502 0.538680
vt 0.884688 0.538696
vt 0.725107 0.538731
vt 0.753304 0.538724
vt 0.812790 0.538592
vt 0.840846 0.538576
vt 0.972766 0.000264
vt 0.943886 0.000262
vt 0.841310 0.000230
vt 0.812431 0.000216
vt 0.753641 0.000193
vt 0.724757 0.000195
vt 0.885123 0.000262
vt 0.856254 0.000243
vt 0.797480 0.000204
vt 0.768594 0.000195
vt 0.928945 0.000255
vt 0.900064 0.000253
vt 0.697612 0.093793
vt 0.663975 0.093951
vt 0.663520 0.011362
vt 0.697170 0.011184
vt 0.870585 0.564797
vt 0.739211 0.564843
vt 0.826843 0.564508
vt 0.958240 0.564820
vt 0.914430 0.564820
vt 0.783059 0.564804
vt 0.697751 0.341348
vt 0.664186 0.341243
vt 0.664371 0.258895
vt 0.697962 0.258929
vt 0.697955 0.176392
vt 0.664325 0.176467
vt 0.697407 0.423694
vt 0.663870 0.423568
vt 0.697137 0.505985
vt 0.663599 0.505875
vt 0.826161 0.894023
vt 0.845976 0.887317
vt 0.845865 0.929716
vt 0.826084 0.922908
vt 0.989161 0.922974
vt 0.969399 0.929753
vt 0.969336 0.887406
vt 0.989120 0.894126
vt 0.895041 0.972723
vt 0.879259 0.986472
vt 0.854252 0.971986
vt 0.858333 0.951452
vt 0.920164 0.844604
vt 0.935903 0.830855
vt 0.960886 0.845291
vt 0.956837 0.865789
vt 0.956910 0.951535
vt 0.960960 0.972097
vt 0.935904 0.986560
vt 0.920130 0.972767
vt 0.858497 0.865748
vt 0.854470 0.845259
vt 0.879454 0.830855
vt 0.895172 0.844605
vt 0.944371 0.929815
vt 0.907600 0.951047
vt 0.870980 0.887398
vt 0.907656 0.866258
vt 0.870894 0.929780
vt 0.944331 0.887440
vt 0.935970 0.892278
vt 0.935978 0.924991
vt 0.907612 0.941363
vt 0.879286 0.924956
vt 0.907653 0.875917
vt 0.879329 0.892245
vt 0.805114 0.612855
vt 0.826387 0.612862
vt 0.826376 0.645578
vt 0.805101 0.645564
vt 0.748439 0.645573
vt 0.727149 0.645581
vt 0.727149 0.612842
vt 0.748439 0.612848
vt 0.776775 0.661925
vt 0.766142 0.680354
vt 0.737805 0.664004
vt 0.776780 0.596491
vt 0.787419 0.578065
vt 0.815751 0.594426
vt 0.815737 0.663986
vt 0.787412 0.680345
vt 0.737800 0.594417
vt 0.766142 0.578058
vn 0.475900 -0.824200 -0.306900
vn 0.951800 0.000000 -0.306900
vn 0.957400 0.000000 0.288800
vn 0.478700 -0.829100 0.288800
vn 0.475900 0.824200 -0.306900
vn -0.475900 0.824200 -0.306900
vn -0.478700 0.829100 0.288800
vn 0.478700 0.829100 0.288800
vn -0.475900 -0.824200 -0.306900
vn -0.478700 -0.829100 0.288800
vn -0.951800 0.000000 -0.306900
vn -0.957400 0.000000 0.288800
vn -0.320800 -0.555700 0.767000
vn -0.641700 0.000000 0.767000
vn -0.320800 0.555700 0.767000
vn 0.320800 -0.555700 0.767000
vn 0.641700 0.000000 0.767000
vn 0.320800 0.555700 0.767000
vn -0.463200 -0.802300 -0.376500
vn -0.926400 0.000000 -0.376600
vn 0.463200 0.802300 -0.376500
vn 0.926400 0.000000 -0.376600
vn 0.463200 -0.802300 -0.376500
vn -0.463200 0.802300 -0.376500
vn 0.461300 -0.799000 0.385600
vn -0.461300 -0.799000 0.385600
vn 0.000000 0.000000 1.000000
vn -0.461300 0.799000 0.385600
vn 0.461300 0.799000 0.385600
vn 0.922600 0.000000 0.385600
vn -0.922600 0.000000 0.385600
vn -0.949700 0.000000 0.313000
vn -0.474900 -0.822500 0.313000
vn 0.949700 0.000000 0.313000
vn 0.474900 0.822500 0.313000
vn 0.474900 -0.822500 0.313000
vn -0.474900 0.822500 0.313000
vn 0.792400 0.000000 -0.610000
vn 0.396200 -0.686200 -0.610000
vn -0.792400 0.000000 -0.610000
vn -0.396200 0.686200 -0.610000
vn -0.396200 -0.686200 -0.610000
vn 0.396200 0.686200 -0.610000
vn -0.272300 -0.471700 -0.838600
vn -0.544700 0.000000 -0.838600
vn -0.272300 0.471700 -0.838600
vn 0.272300 0.471700 -0.838600
vn 0.272300 -0.471700 -0.838600
vn 0.544700 0.000000 -0.838600
s 1
f 6/1/1 1/2/2 7/3/3 12/4/4
f 2/5/5 3/6/6 9/7/7 8/8/8
f 5/9/9 6/1/1 12/4/4 11/10/10
f 1/2/2 2/5/5 8/8/8 7/3/3
f 4/11/11 5/12/9 11/13/10 10/14/12
f 11/13/10 17/15/13 16/16/14 10/14/12
f 15/17/15 9/7/7 10/14/12 16/18/14
f 18/19/16 12/4/4 7/3/3 13/20/17
f 14/21/18 8/8/8 9/7/7 15/22/15
f 17/23/13 11/10/10 12/4/4 18/24/16
f 13/25/17 7/3/3 8/8/8 14/26/18
f 20/27/19 5/12/9 4/11/11 21/28/20
f 23/29/21 2/5/5 1/2/2 24/30/22
f 25/31/23 6/1/1 5/9/9 20/32/19
f 22/33/24 3/6/6 2/5/5 23/34/21
f 24/35/22 1/2/2 6/1/1 25/36/23
f 21/37/20 4/11/11 3/6/6 22/38/24
f 31/39/25 25/40/23 20/41/19 26/42/26
f 14/21/18 15/22/15 19/43/27
f 17/23/13 18/24/16 19/44/27
f 13/25/17 14/26/18 19/45/27
f 16/16/14 17/15/13 19/46/27
f 15/17/15 16/18/14 19/47/27
f 18/19/16 13/20/17 19/48/27
f 28/49/28 22/50/24 23/51/21 29/52/29
f 30/53/30 24/54/22 25/40/23 31/39/25
f 27/55/31 21/56/20 22/50/24 28/49/28
f 29/52/29 23/51/21 24/54/22 30/53/30
f 26/57/26 20/58/19 21/56/20 27/55/31
f 27/59/31 33/60/32 32/61/33 26/62/26
f 30/63/30 36/64/34 35/65/35 29/66/29
f 37/67/36 31/68/25 26/69/26 32/70/33
f 34/71/37 28/72/28 29/73/29 35/74/35
f 36/75/34 30/76/30 31/77/25 37/78/36
f 33/79/32 27/80/31 28/81/28 34/82/37
f 42/83/38 36/75/34 37/78/36 43/84/39
f 39/85/40 33/79/32 34/82/37 40/86/41
f 38/87/42 32/61/33 33/60/32 39/85/40
f 41/88/43 35/65/35 36/64/34 42/83/38
f 43/84/39 37/67/36 32/70/33 38/87/42
f 40/86/41 34/71/37 35/74/35 41/88/43
f 47/89/44 41/88/43 42/83/38 48/90/45
f 49/91/46 43/84/39 38/87/42 44/92/47
f 46/93/48 40/86/41 41/88/43 47/89/44
f 48/90/45 42/83/38 43/84/39 49/91/46
f 45/94/49 39/85/40 40/86/41 46/93/48
f 44/92/47 38/87/42 39/85/40 45/94/49
f 54/95/40 48/96/45 49/97/46 55/98/41
f 51/99/38 45/100/49 46/101/48 52/102/39
f 50/103/43 44/104/47 45/105/49 51/99/38
f 53/106/42 47/107/44 48/108/45 54/95/40
f 55/98/41 49/109/46 44/110/47 50/103/43
f 52/102/39 46/111/48 47/112/44 53/106/42
f 3/6/6 4/11/11 10/14/12 9/7/7
f 54/95/40 51/99/38 52/102/39 53/106/42
f 51/99/38 54/95/40 55/98/41 50/103/43
