# Blender v2.71 (sub 0) OBJ File: 'WeaponPlatforms.blend'
# www.blender.org
o PlatformHeavyTurretBarrel_Cube.707
v 0.239001 -0.117240 2.255957
v 0.239001 -0.117240 -0.080724
v 0.460276 -0.117240 -0.080724
v 0.460276 -0.117240 2.255957
v 0.239001 0.104035 2.255957
v 0.239001 0.104034 -0.080724
v 0.460276 0.104034 -0.080724
v 0.460276 0.104035 2.255957
v 0.295243 0.201245 2.255957
v 0.295243 0.201245 -0.080724
v 0.404035 0.201245 -0.080724
v 0.404035 0.201245 2.255957
v 0.207498 -0.238279 2.833320
v 0.207498 -0.189273 2.209502
v 0.494260 -0.189273 2.209502
v 0.494260 -0.238279 2.833320
v 0.281633 0.238279 2.833320
v 0.281633 0.238279 2.209502
v 0.420125 0.238279 2.209502
v 0.420125 0.238279 2.833320
v 0.207498 0.107865 2.209502
v 0.207498 0.107865 2.833320
v 0.494260 0.107865 2.209502
v 0.494260 0.107865 2.833320
v 0.244986 -0.075060 2.833320
v 0.456772 -0.075060 2.833320
v 0.299738 0.175979 2.833320
v 0.402020 0.175979 2.833320
v 0.244986 0.079663 2.833320
v 0.456772 0.079663 2.833320
v 0.244986 -0.075060 2.649612
v 0.456772 -0.075060 2.649612
v 0.299738 0.175979 2.649612
v 0.402020 0.175979 2.649612
v 0.244986 0.079663 2.649612
v 0.456772 0.079663 2.649612
v 0.207498 -0.238279 2.285599
v 0.494260 -0.238279 2.285599
v 0.313024 -0.195691 2.237510
v 0.313024 -0.150371 0.920335
v 0.395581 -0.150371 0.920335
v 0.395581 -0.195691 2.237510
v 0.313024 -0.088898 2.237510
v 0.313024 -0.088898 0.920335
v 0.395581 -0.088898 0.920335
v 0.395581 -0.088898 2.237510
v 0.313024 -0.195691 1.169168
v 0.395581 -0.195691 1.169168
v -0.239001 -0.117240 2.255957
v -0.239001 -0.117240 -0.080724
v -0.460276 -0.117240 -0.080724
v -0.460276 -0.117240 2.255957
v -0.239001 0.104035 2.255957
v -0.239001 0.104034 -0.080724
v -0.460276 0.104034 -0.080724
v -0.460276 0.104035 2.255957
v -0.295243 0.201245 2.255957
v -0.295243 0.201245 -0.080724
v -0.404035 0.201245 -0.080724
v -0.404035 0.201245 2.255957
v -0.207498 -0.238279 2.833320
v -0.207498 -0.189273 2.209502
v -0.494260 -0.189273 2.209502
v -0.494260 -0.238279 2.833320
v -0.281633 0.238279 2.833320
v -0.281633 0.238279 2.209502
v -0.420125 0.238279 2.209502
v -0.420125 0.238279 2.833320
v -0.207498 0.107865 2.209502
v -0.207498 0.107865 2.833320
v -0.494260 0.107865 2.209502
v -0.494260 0.107865 2.833320
v -0.244986 -0.075060 2.833320
v -0.456772 -0.075060 2.833320
v -0.299738 0.175979 2.833320
v -0.402020 0.175979 2.833320
v -0.244986 0.079663 2.833320
v -0.456772 0.079663 2.833320
v -0.244986 -0.075060 2.649612
v -0.456772 -0.075060 2.649612
v -0.299738 0.175979 2.649612
v -0.402020 0.175979 2.649612
v -0.244986 0.079663 2.649612
v -0.456772 0.079663 2.649612
v -0.207498 -0.238279 2.285599
v -0.494260 -0.238279 2.285599
v -0.313024 -0.195691 2.237510
v -0.313024 -0.150371 0.920335
v -0.395581 -0.150371 0.920335
v -0.395581 -0.195691 2.237510
v -0.313024 -0.088898 2.237510
v -0.313024 -0.088898 0.920335
v -0.395581 -0.088898 0.920335
v -0.395581 -0.088898 2.237510
v -0.313024 -0.195691 1.169168
v -0.395581 -0.195691 1.169168
vt 0.676268 0.720806
vt 0.996777 0.720806
vt 0.996777 0.751157
vt 0.676268 0.751156
vt 0.996777 0.675076
vt 0.676269 0.675075
vt 0.676269 0.644725
vt 0.996777 0.644725
vt 0.676270 0.614375
vt 0.996777 0.614375
vt 0.676268 0.705401
vt 0.996777 0.705402
vt 0.676268 0.690479
vt 0.996777 0.690480
vt 0.326545 0.264475
vt 0.365876 0.264477
vt 0.365873 0.305232
vt 0.326542 0.305229
vt 0.355701 0.458142
vt 0.336702 0.458142
vt 0.339186 0.449595
vt 0.353217 0.449596
vt 0.326541 0.317644
vt 0.365873 0.317646
vt 0.336714 0.246588
vt 0.355709 0.246590
vt 0.326537 0.392770
vt 0.365870 0.392772
vt 0.360728 0.415160
vt 0.331678 0.415158
vt 0.326534 0.440250
vt 0.331676 0.436382
vt 0.365871 0.440252
vt 0.360728 0.436383
vt 0.268409 0.730364
vt 0.268409 0.744394
vt 0.243211 0.744394
vt 0.243210 0.730364
vt 0.242451 0.700948
vt 0.255663 0.708457
vt 0.229999 0.722854
vt 0.208777 0.697657
vt 0.229999 0.697657
vt 0.208777 0.722854
vt 0.229995 0.777101
vt 0.208774 0.777099
vt 0.208776 0.751902
vt 0.229997 0.751904
vt 0.255665 0.766306
vt 0.242450 0.773816
vt 0.183581 0.751901
vt 0.183581 0.722854
vt 0.622601 0.581769
vt 0.663358 0.581769
vt 0.670080 0.592207
vt 0.562453 0.581770
vt 0.562452 0.667334
vt 0.514975 0.667333
vt 0.514975 0.592207
vt 0.583029 0.581769
vt 0.583029 0.667334
vt 0.622602 0.667335
vt 0.670080 0.667335
vt 0.521697 0.581769
vt 0.602025 0.581769
vt 0.602024 0.667334
vt 0.893357 0.335983
vt 0.893357 0.347305
vt 0.884927 0.347305
vt 0.884927 0.335983
vt 0.850240 0.335983
vt 0.850240 0.347306
vt 0.703701 0.335982
vt 0.703700 0.347306
vt 0.884371 0.321335
vt 0.884371 0.329767
vt 0.884371 0.361954
vt 0.703701 0.361954
vt 0.703701 0.321333
vt 0.884371 0.353522
vn -0.965800 0.259300 -0.000000
vn -0.707100 -0.707100 0.000000
vn 0.965800 0.259300 -0.000000
vn 0.707100 -0.707100 0.000000
vn -0.499600 0.866300 -0.000000
vn 0.499600 0.866300 -0.000000
vn -0.731500 0.193400 -0.653800
vn 0.731500 0.193400 -0.653800
vn 0.613500 -0.378100 -0.693200
vn -0.613500 -0.378100 -0.693200
vn 0.398700 0.685200 0.609500
vn -0.398700 0.685200 0.609500
vn 0.273200 -0.469600 0.839500
vn -0.273200 -0.469600 0.839500
vn -0.648800 -0.730000 -0.214700
vn 0.648800 -0.730000 -0.214700
vn -0.398700 0.685200 -0.609500
vn 0.398700 0.685200 -0.609500
vn -0.577300 -0.577300 0.577300
vn 0.577300 -0.577300 0.577300
vn -0.301500 0.301500 0.904500
vn 0.301500 0.301500 0.904500
vn -0.731500 0.193400 0.653800
vn 0.617500 -0.163200 0.769400
vn 0.731500 0.193400 0.653800
vn -0.617500 -0.163200 0.769400
vn 0.398700 -0.685200 0.609500
vn -0.398700 -0.685200 0.609500
vn -0.731500 -0.193400 0.653800
vn -0.577300 0.577300 0.577300
vn 0.577300 0.577300 0.577300
vn 0.731500 -0.193400 0.653800
vn -0.707100 0.000000 -0.707100
vn 0.707100 0.000000 -0.707100
vn 0.587400 -0.518400 -0.621400
vn -0.587400 -0.518400 -0.621400
vn -0.687400 -0.723300 -0.065300
vn 0.687400 -0.723300 -0.065300
vn 1.000000 0.000000 0.000000
vn -1.000000 0.000000 0.000000
s 1
f 5/1/1 6/2/1 2/3/2 1/4/2
f 7/5/3 8/6/3 4/7/4 3/8/4
f 1/9/2 2/10/2 3/8/4 4/7/4
f 6/2/1 5/1/1 9/11/5 10/12/5
f 12/13/6 11/14/6 10/12/5 9/11/5
f 8/6/3 7/5/3 11/14/6 12/13/6
s 2
f 21/15/7 23/16/8 15/17/9 14/18/10
f 20/19/11 17/20/12 27/21/13 28/22/14
f 37/23/15 14/18/10 15/17/9 38/24/16
f 18/25/17 19/26/18 23/16/8 21/15/7
f 13/27/19 16/28/20 26/29/21 25/30/22
f 17/20/12 22/31/23 29/32/24 27/21/13
f 22/31/23 13/27/19 25/30/22 29/32/24
f 24/33/25 20/19/11 28/22/14 30/34/26
f 16/28/20 24/33/25 30/34/26 26/29/21
f 28/35/14 27/36/13 33/37/27 34/38/28
f 30/39/26 28/40/14 34/38/28 36/41/29
f 26/42/21 30/43/26 36/41/29 32/44/30
f 29/45/24 25/46/22 31/47/31 35/48/32
f 27/49/13 29/50/24 35/48/32 33/37/27
f 25/51/22 26/52/21 32/44/30 31/47/31
f 36/41/29 35/48/32 31/47/31 32/44/30
f 35/48/32 36/41/29 34/38/28 33/37/27
f 13/27/19 37/23/15 38/24/16 16/28/20
f 21/53/7 14/54/10 37/55/15
f 23/56/8 24/57/25 16/58/20 38/59/16
f 19/60/18 20/61/11 24/57/25 23/56/8
f 22/62/23 21/53/7 37/55/15 13/63/19
f 23/56/8 38/59/16 15/64/9
f 20/61/11 19/60/18 18/65/17 17/66/12
f 17/66/12 18/65/17 21/53/7 22/62/23
s 3
f 44/67/33 45/68/34 41/69/35 40/70/36
f 47/71/37 40/70/36 41/69/35 48/72/38
f 39/73/2 47/71/37 48/72/38 42/74/4
f 44/75/33 40/76/36 47/71/37
f 45/77/34 46/78/39 42/74/4 48/72/38
f 43/79/40 44/75/33 47/71/37 39/73/2
f 45/77/34 48/72/38 41/80/35
s 4
f 53/1/3 49/4/4 50/3/4 54/2/3
f 55/5/1 51/8/2 52/7/2 56/6/1
f 49/9/4 52/7/2 51/8/2 50/10/4
f 54/2/3 58/12/6 57/11/6 53/1/3
f 60/13/5 57/11/6 58/12/6 59/14/5
f 56/6/1 60/13/5 59/14/5 55/5/1
s 5
f 69/15/8 62/18/9 63/17/10 71/16/7
f 68/19/12 76/22/13 75/21/14 65/20/11
f 85/23/16 86/24/15 63/17/10 62/18/9
f 66/25/18 69/15/8 71/16/7 67/26/17
f 61/27/20 73/30/21 74/29/22 64/28/19
f 65/20/11 75/21/14 77/32/26 70/31/25
f 70/31/25 77/32/26 73/30/21 61/27/20
f 72/33/23 78/34/24 76/22/13 68/19/12
f 64/28/19 74/29/22 78/34/24 72/33/23
f 76/35/13 82/38/27 81/37/28 75/36/14
f 78/39/24 84/41/32 82/38/27 76/40/13
f 74/42/22 80/44/31 84/41/32 78/43/24
f 77/45/26 83/48/29 79/47/30 73/46/21
f 75/49/14 81/37/28 83/48/29 77/50/26
f 73/51/21 79/47/30 80/44/31 74/52/22
f 84/41/32 80/44/31 79/47/30 83/48/29
f 83/48/29 81/37/28 82/38/27 84/41/32
f 61/27/20 64/28/19 86/24/15 85/23/16
f 69/53/8 85/55/16 62/54/9
f 71/56/7 86/59/15 64/58/19 72/57/23
f 67/60/17 71/56/7 72/57/23 68/61/12
f 70/62/25 61/63/20 85/55/16 69/53/8
f 71/56/7 63/64/10 86/59/15
f 68/61/12 65/66/11 66/65/18 67/60/17
f 65/66/11 70/62/25 69/53/8 66/65/18
s 6
f 92/67/34 88/70/35 89/69/36 93/68/33
f 95/71/38 96/72/37 89/69/36 88/70/35
f 87/73/4 90/74/2 96/72/37 95/71/38
f 92/75/34 95/71/38 88/76/35
f 93/77/33 96/72/37 90/74/2 94/78/40
f 91/79/39 87/73/4 95/71/38 92/75/34
f 93/77/33 89/80/36 96/72/37
