# Blender v2.71 (sub 0) OBJ File: 'WeaponPlatforms.blend'
# www.blender.org
o Platform1_Cube.703
v 0.857029 0.933416 -0.723353
v 0.857029 0.933416 0.723352
v 0.857029 1.028654 -0.723353
v 0.857029 1.028654 0.723352
v 0.703656 1.028654 -0.857029
v 0.703656 0.933416 0.857029
v 0.703656 0.933416 -0.857029
v 0.703656 1.028654 0.857029
v -0.857029 0.933416 -0.723353
v -0.857029 0.933416 0.723352
v -0.857029 1.028654 -0.723353
v -0.857029 1.028654 0.723352
v 0.000000 1.028654 -0.857029
v 0.000000 0.933416 -0.857029
v 0.000000 1.028654 0.857029
v 0.000000 0.933416 0.857029
v -0.703656 1.028654 -0.857029
v -0.703656 0.933416 0.857029
v -0.703656 0.933416 -0.857029
v -0.703656 1.028654 0.857029
v 0.625259 0.971397 -0.819863
v 0.341106 0.680786 -1.537804
v 0.625259 1.007361 -0.834419
v 0.341106 0.716751 -1.552361
v -0.625259 0.971397 -0.819863
v -0.341106 0.680786 -1.537804
v -0.625259 1.007361 -0.834419
v -0.341106 0.716751 -1.552361
v -0.000000 1.007361 -0.834419
v 0.000000 0.971397 -0.819863
v -0.000000 0.716751 -1.552361
v -0.000000 0.680786 -1.537804
v 0.625259 0.971398 0.819862
v 0.341106 0.680787 1.537804
v 0.625259 1.007362 0.834419
v 0.341106 0.716751 1.552361
v -0.625259 0.971398 0.819862
v -0.341106 0.680787 1.537804
v -0.625259 1.007362 0.834419
v -0.341106 0.716751 1.552361
v -0.000000 1.007362 0.834419
v 0.000000 0.971398 0.819862
v -0.000000 0.716751 1.552361
v -0.000000 0.680787 1.537804
v 0.819863 0.971398 0.625259
v 0.819863 0.971397 -0.579155
v 1.537803 0.680787 -0.295002
v 1.537803 0.680787 0.341106
v 0.834420 1.007362 0.625259
v 0.834420 1.007362 -0.579155
v 1.552361 0.716751 -0.295002
v 1.552361 0.716751 0.341106
v 0.602207 0.714502 -0.602207
v 0.602207 0.714502 0.602207
v 0.602207 0.965654 -0.602207
v 0.602207 0.965655 0.602207
v 0.441078 0.454038 -0.602207
v 0.441078 0.454038 0.602207
v 0.441078 -0.008111 -0.602207
v 0.441078 -0.008111 0.602207
v 0.355526 -0.078118 -0.602207
v 0.355526 -0.078118 0.602207
v 0.747318 0.578420 -0.188975
v 0.747318 0.578420 0.188974
v 0.369368 0.956370 0.188974
v 0.369368 0.956370 -0.188975
v 0.747318 0.956370 -0.188975
v 0.747318 0.956370 0.188974
v 0.369368 0.132822 0.188974
v 0.369368 0.132822 -0.188974
v 0.514492 0.132822 -0.188974
v 0.514492 0.132822 0.188974
v 0.058991 -0.259469 0.292381
v 0.058991 -0.259469 0.410362
v 0.058991 -0.063453 0.292381
v 0.058991 -0.063453 0.410362
v 0.045728 -0.409994 0.318907
v 0.045728 -0.409994 0.383837
v 0.024293 -1.028654 0.318907
v 0.024293 -1.028654 0.383837
v 0.013270 -0.513981 -0.216127
v 0.013270 -0.513981 -0.189588
v 0.013270 -0.071208 -0.216127
v 0.013270 -0.071208 -0.189589
v -0.819863 0.971398 0.625259
v -0.819863 0.971397 -0.579155
v -1.537803 0.680787 -0.295002
v -1.537803 0.680787 0.341106
v -0.834420 1.007362 0.625259
v -0.834420 1.007362 -0.579155
v -1.552361 0.716751 -0.295002
v -1.552361 0.716751 0.341106
v -0.602207 0.714502 -0.602207
v -0.602207 0.714502 0.602207
v -0.602207 0.965654 -0.602207
v -0.602207 0.965655 0.602207
v 0.000000 0.965654 -0.602206
v 0.000000 0.965655 0.602207
v -0.441078 0.454038 -0.602207
v -0.441078 0.454038 0.602207
v -0.441078 -0.008111 -0.602207
v -0.441078 -0.008111 0.602207
v 0.000000 -0.078119 -0.602205
v 0.000000 -0.078118 0.602207
v -0.355526 -0.078118 -0.602207
v -0.355526 -0.078118 0.602207
v -0.747318 0.578420 -0.188975
v -0.747318 0.578420 0.188974
v -0.369368 0.956370 0.188974
v -0.369368 0.956370 -0.188975
v -0.747318 0.956370 -0.188975
v -0.747318 0.956370 0.188974
v -0.369368 0.132822 0.188974
v -0.369368 0.132822 -0.188974
v -0.514492 0.132822 -0.188974
v -0.514492 0.132822 0.188974
v -0.058991 -0.259469 0.292381
v -0.058991 -0.259469 0.410362
v -0.058991 -0.063453 0.292381
v -0.058991 -0.063453 0.410362
v 0.000000 -0.063453 0.292381
v 0.000000 -0.259469 0.292381
v 0.000000 -0.063453 0.410362
v 0.000000 -0.259469 0.410362
v -0.045728 -0.409994 0.318907
v -0.045728 -0.409994 0.383837
v 0.000000 -0.409994 0.318907
v 0.000000 -0.409994 0.383837
v -0.024293 -1.028654 0.318907
v -0.024293 -1.028654 0.383837
v 0.000000 -1.028653 0.318907
v 0.000000 -1.028653 0.383837
v -0.013270 -0.513981 -0.216127
v -0.013270 -0.513981 -0.189588
v -0.013270 -0.071208 -0.216127
v -0.013270 -0.071208 -0.189589
v 0.000000 -0.071208 -0.216127
v 0.000000 -0.513981 -0.216127
v 0.000000 -0.071208 -0.189589
v 0.000000 -0.513981 -0.189588
vt 0.203359 0.966634
vt 0.260455 0.966654
vt 0.260443 0.993387
vt 0.203351 0.993367
vt 0.246420 0.929103
vt 0.246517 0.522894
vt 0.273285 0.522894
vt 0.273151 0.929103
vt 0.316386 0.485414
vt 0.316193 0.966674
vt 0.203431 0.485333
vt 0.005833 0.485333
vt 0.005831 0.458590
vt 0.203434 0.458579
vt 0.005789 0.966603
vt 0.005792 0.993336
vt 0.513958 0.485516
vt 0.513757 0.966776
vt 0.260593 0.485344
vt 0.260594 0.458579
vt 0.993054 0.802929
vt 0.909945 0.802930
vt 0.909946 0.793477
vt 0.993053 0.793477
vt 0.840712 0.991642
vt 0.831837 0.988385
vt 0.901070 0.799674
vt 0.840719 0.604772
vt 0.993055 0.604774
vt 0.993055 0.991642
vt 0.857518 0.834183
vt 0.788320 0.645464
vt 0.797197 0.642210
vt 0.866393 0.830929
vt 0.633338 0.645444
vt 0.633338 0.635999
vt 0.788323 0.636006
vt 0.564072 0.834129
vt 0.555199 0.830871
vt 0.624464 0.642186
vt 0.564104 0.447292
vt 0.857556 0.447292
vt 0.555210 0.372501
vt 0.261763 0.372498
vt 0.261764 0.311307
vt 0.555210 0.311309
vt 0.261765 0.236686
vt 0.555211 0.236688
vt 0.261765 0.124087
vt 0.555211 0.124089
vt 0.261766 0.097154
vt 0.555211 0.097155
vt 0.809519 0.010532
vt 0.809520 0.157256
vt 0.748329 0.157256
vt 0.007460 0.157254
vt 0.007461 0.010532
vt 0.068651 0.157254
vt 0.132111 0.117997
vt 0.261766 0.010533
vt 0.244709 0.117997
vt 0.684868 0.117999
vt 0.572268 0.117999
vt 0.555211 0.010534
vt 0.755825 0.429812
vt 0.663740 0.429812
vt 0.663740 0.337727
vt 0.755824 0.337727
vt 0.663740 0.215235
vt 0.755824 0.215234
vt 0.663740 0.179876
vt 0.755824 0.179876
vt 0.847909 0.429812
vt 0.571656 0.429812
vt 0.812551 0.229161
vt 0.847909 0.229161
vt 0.571656 0.229161
vt 0.607014 0.229161
vt 0.878070 0.009858
vt 0.905912 0.009858
vt 0.905912 0.102369
vt 0.878070 0.102370
vt 0.961595 0.009858
vt 0.961594 0.102371
vt 0.989436 0.102371
vt 0.989435 0.174511
vt 0.967852 0.174510
vt 0.989437 0.009858
vt 0.989428 0.466518
vt 0.977961 0.466518
vt 0.899657 0.174505
vt 0.878075 0.174507
vt 0.949071 0.173688
vt 0.918428 0.173686
vt 0.949038 0.477288
vt 0.918397 0.477285
vt 0.918398 0.465821
vt 0.949040 0.465824
vt 0.889579 0.466496
vt 0.878112 0.466498
vt 0.542668 0.389376
vt 0.542668 0.402350
vt 0.109824 0.402353
vt 0.109824 0.389376
vt 0.542668 0.428291
vt 0.109825 0.428294
vt 0.096852 0.428294
vt 0.096849 0.402353
vt 0.542668 0.441262
vt 0.109826 0.441271
vn 0.270700 0.636000 -0.722600
vn 0.710700 0.624700 -0.323300
vn 0.710700 -0.624700 -0.323300
vn 0.270700 -0.636000 -0.722600
vn 0.710700 0.624700 0.323300
vn 0.710700 -0.624700 0.323300
vn 0.270700 -0.636000 0.722600
vn 0.270700 0.636000 0.722600
vn 0.000000 0.707100 0.707100
vn 0.000000 -0.707100 0.707100
vn 0.000000 0.707100 -0.707100
vn 0.000000 -0.707100 -0.707100
vn -0.270700 0.636000 -0.722600
vn -0.270700 -0.636000 -0.722600
vn -0.710700 -0.624700 -0.323300
vn -0.710700 0.624700 -0.323300
vn -0.710700 -0.624700 0.323300
vn -0.710700 0.624700 0.323300
vn -0.270700 -0.636000 0.722600
vn -0.270700 0.636000 0.722600
vn 0.000000 0.390100 -0.920700
vn 0.458800 0.307900 -0.833500
vn 0.458800 -0.801000 -0.384600
vn 0.000000 -0.920700 -0.390100
vn 0.741600 0.466300 -0.482300
vn 0.741600 -0.670400 -0.022200
vn -0.000000 -0.926900 0.375200
vn 0.000000 0.926900 -0.375200
vn -0.458800 -0.801000 -0.384600
vn -0.458800 0.307900 -0.833500
vn -0.741600 -0.670400 -0.022200
vn -0.741600 0.466300 -0.482300
vn 0.000000 0.390100 0.920700
vn 0.000000 -0.920700 0.390100
vn 0.458800 -0.801000 0.384600
vn 0.458800 0.307900 0.833500
vn 0.741600 -0.670400 0.022200
vn 0.741600 0.466300 0.482300
vn 0.000000 -0.926900 -0.375200
vn 0.000000 0.926900 0.375200
vn -0.458800 0.307900 0.833500
vn -0.458800 -0.801000 0.384600
vn -0.741600 0.466300 0.482300
vn -0.741600 -0.670400 0.022200
vn 0.482300 0.466300 -0.741600
vn 0.833500 0.307900 -0.458800
vn 0.384600 -0.801000 -0.458800
vn 0.022200 -0.670400 -0.741600
vn 0.833500 0.307900 0.458800
vn 0.384600 -0.801000 0.458800
vn 0.482300 0.466300 0.741600
vn 0.022200 -0.670400 0.741600
vn 0.707100 0.000000 -0.707100
vn 0.707100 0.000000 0.707100
vn 0.730600 -0.207700 0.650400
vn 0.730600 -0.207700 -0.650400
vn 0.608900 -0.173100 0.774100
vn 0.608900 -0.173100 -0.774100
vn 0.707400 -0.335200 0.622200
vn 0.707400 -0.335200 -0.622200
vn 0.258700 -0.724700 0.638700
vn 0.258700 -0.724700 -0.638700
vn 0.000000 0.000000 -1.000000
vn 0.000000 0.000000 1.000000
vn -0.707100 0.000000 -0.707100
vn -0.730600 -0.207700 -0.650400
vn -0.730600 -0.207700 0.650400
vn -0.707100 0.000000 0.707100
vn -0.608900 -0.173100 -0.774100
vn -0.608900 -0.173100 0.774100
vn -0.707400 -0.335200 -0.622200
vn -0.707400 -0.335200 0.622200
vn -0.258700 -0.724700 -0.638700
vn -0.258700 -0.724700 0.638700
vn 0.732000 -0.179700 0.657200
vn 0.732000 -0.179700 -0.657200
vn 0.411800 -0.679700 0.607000
vn 0.411800 -0.679700 -0.607000
vn 0.696000 -0.089300 -0.712500
vn 0.000000 -0.087100 -0.996200
vn 0.696000 -0.089300 0.712500
vn 0.000000 -0.087100 0.996200
vn 0.717900 -0.107500 0.687700
vn 0.566300 -0.586300 0.579200
vn 0.717900 -0.107500 -0.687700
vn 0.566300 -0.586300 -0.579200
vn -0.696000 -0.089300 -0.712500
vn -0.696000 -0.089300 0.712500
vn -0.717900 -0.107500 0.687700
vn -0.566300 -0.586300 0.579200
vn -0.717900 -0.107500 -0.687700
vn -0.566300 -0.586300 -0.579200
vn 0.577300 -0.577300 -0.577300
vn 0.577300 -0.577300 0.577300
vn -0.577300 -0.577300 -0.577300
vn -0.577300 -0.577300 0.577300
vn -0.482300 0.466300 -0.741600
vn -0.022200 -0.670400 -0.741600
vn -0.384600 -0.801000 -0.458800
vn -0.833500 0.307900 -0.458800
vn -0.384600 -0.801000 0.458800
vn -0.833500 0.307900 0.458800
vn -0.022200 -0.670400 0.741600
vn -0.482300 0.466300 0.741600
vn -0.732000 -0.179700 -0.657200
vn -0.732000 -0.179700 0.657200
vn -0.411800 -0.679700 -0.607000
vn -0.411800 -0.679700 0.607000
s 1
f 5/1/1 3/2/2 1/3/3 7/4/4
f 3/5/2 4/6/5 2/7/6 1/8/3
f 6/9/7 7/10/4 1/8/3 2/7/6
f 8/11/8 15/12/9 16/13/10 6/14/7
f 8/11/8 5/1/1 13/15/11 15/12/9
f 13/15/11 5/1/1 7/4/4 14/16/12
f 16/17/10 14/18/12 7/10/4 6/9/7
f 4/19/5 8/11/8 6/14/7 2/20/6
f 4/6/5 3/5/2 5/1/1 8/11/8
f 17/1/13 19/4/14 9/3/15 11/2/16
f 11/5/16 9/8/15 10/7/17 12/6/18
f 18/9/19 10/7/17 9/8/15 19/10/14
f 20/11/20 18/14/19 16/13/10 15/12/9
f 20/11/20 15/12/9 13/15/11 17/1/13
f 13/15/11 14/16/12 19/4/14 17/1/13
f 16/17/10 18/9/19 19/10/14 14/18/12
f 12/19/18 10/20/17 18/14/19 20/11/20
f 12/6/18 20/11/20 17/1/13 11/5/16
s 2
f 31/21/21 24/22/22 22/23/23 32/24/24
f 24/22/22 23/25/25 21/26/26 22/27/23
f 21/28/26 30/29/27 32/24/24 22/23/23
f 24/22/22 31/21/21 29/30/28 23/25/25
f 31/21/21 32/24/24 26/23/29 28/22/30
f 28/22/30 26/27/29 25/26/31 27/25/32
f 25/28/31 26/23/29 32/24/24 30/29/27
f 28/22/30 27/25/32 29/30/28 31/21/21
s 3
f 43/21/33 44/24/34 34/23/35 36/22/36
f 36/22/36 34/27/35 33/26/37 35/25/38
f 33/28/37 34/23/35 44/24/34 42/29/39
f 36/22/36 35/25/38 41/30/40 43/21/33
f 43/21/33 40/22/41 38/23/42 44/24/34
f 40/22/41 39/25/43 37/26/44 38/27/42
f 37/28/44 42/29/39 44/24/34 38/23/42
f 40/22/41 43/21/33 41/30/40 39/25/43
s 4
f 50/31/45 51/32/46 47/33/47 46/34/48
f 51/32/46 52/35/49 48/36/50 47/37/47
f 52/35/49 49/38/51 45/39/52 48/40/50
f 45/41/52 46/42/48 47/37/47 48/36/50
f 52/35/49 51/32/46 50/31/45 49/38/51
s 5
f 55/43/53 56/44/54 54/45/55 53/46/56
f 53/46/56 54/45/55 58/47/57 57/48/58
f 57/48/58 58/47/57 60/49/59 59/50/60
f 59/50/60 60/49/59 62/51/61 61/52/62
f 97/53/63 55/54/53 53/55/56
f 56/56/54 98/57/64 54/58/55
f 58/59/57 98/57/64 104/60/10 60/61/59
f 54/58/55 98/57/64 58/59/57
f 97/53/63 53/55/56 57/62/58
f 60/61/59 104/60/10 62/51/61
f 97/53/63 57/62/58 59/63/60 103/64/12
f 104/60/10 103/64/12 61/52/62 62/51/61
f 103/64/12 59/63/60 61/52/62
f 95/43/65 93/46/66 94/45/67 96/44/68
f 93/46/66 99/48/69 100/47/70 94/45/67
f 99/48/69 101/50/71 102/49/72 100/47/70
f 101/50/71 105/52/73 106/51/74 102/49/72
f 97/53/63 93/55/66 95/54/65
f 96/56/68 94/58/67 98/57/64
f 100/59/70 102/61/72 104/60/10 98/57/64
f 94/58/67 100/59/70 98/57/64
f 97/53/63 99/62/69 93/55/66
f 102/61/72 106/51/74 104/60/10
f 97/53/63 103/64/12 101/63/71 99/62/69
f 104/60/10 106/51/74 105/52/73 103/64/12
f 103/64/12 105/52/73 101/63/71
s 6
f 67/65/53 68/66/54 64/67/75 63/68/76
f 63/68/76 64/67/75 72/69/77 71/70/78
f 69/71/10 70/72/12 71/70/78 72/69/77
f 66/73/63 67/65/53 63/68/76
f 68/66/54 65/74/64 64/67/75
f 66/73/63 63/68/76 71/75/78 70/76/12
f 64/67/75 65/74/64 69/77/10 72/78/77
s 7
f 121/79/63 75/80/53 73/81/79 122/82/80
f 75/80/53 76/83/54 74/84/81 73/81/79
f 74/84/81 124/85/82 128/86/82 78/87/83
f 76/83/54 123/88/64 124/85/82 74/84/81
f 78/87/83 128/86/82 132/89/10 80/90/84
f 122/82/80 73/81/79 77/91/85 127/92/80
f 73/81/79 74/84/81 78/93/83 77/94/85
f 132/95/10 131/96/12 79/97/86 80/98/84
f 127/92/80 77/91/85 79/99/86 131/100/12
f 77/94/85 78/93/83 80/98/84 79/97/86
f 121/79/63 122/82/80 117/81/87 119/80/65
f 119/80/65 117/81/87 118/84/88 120/83/68
f 118/84/88 126/87/89 128/86/82 124/85/82
f 120/83/68 118/84/88 124/85/82 123/88/64
f 126/87/89 130/90/90 132/89/10 128/86/82
f 122/82/80 127/92/80 125/91/91 117/81/87
f 117/81/87 125/94/91 126/93/89 118/84/88
f 132/95/10 130/98/90 129/97/92 131/96/12
f 127/92/80 131/100/12 129/99/92 125/91/91
f 125/94/91 129/97/92 130/98/90 126/93/89
s 8
f 137/101/63 83/102/53 81/103/93 138/104/12
f 83/102/53 84/105/54 82/106/94 81/103/93
f 140/107/10 138/108/12 81/103/93 82/106/94
f 84/105/54 139/109/64 140/110/10 82/106/94
f 137/101/63 138/104/12 133/103/95 135/102/65
f 135/102/65 133/103/95 134/106/96 136/105/68
f 140/107/10 134/106/96 133/103/95 138/108/12
f 136/105/68 134/106/96 140/110/10 139/109/64
s 9
f 90/31/97 86/34/98 87/33/99 91/32/100
f 91/32/100 87/37/99 88/36/101 92/35/102
f 92/35/102 88/40/101 85/39/103 89/38/104
f 85/41/103 88/36/101 87/37/99 86/42/98
f 92/35/102 89/38/104 90/31/97 91/32/100
s 10
f 111/65/65 107/68/105 108/67/106 112/66/68
f 107/68/105 115/70/107 116/69/108 108/67/106
f 113/71/10 116/69/108 115/70/107 114/72/12
f 110/73/63 107/68/105 111/65/65
f 112/66/68 108/67/106 109/74/64
f 110/73/63 114/76/12 115/75/107 107/68/105
f 108/67/106 116/78/108 113/77/10 109/74/64
