# Blender v2.71 (sub 0) OBJ File: 'WeaponPlatforms.blend'
# www.blender.org
o PlatformMissileLauncher_Cube.002
v 0.315414 -0.051479 0.128939
v 0.315414 -0.051479 -0.128938
v 0.573290 -0.051479 -0.128938
v 0.573290 -0.051479 0.128939
v 0.315414 0.051479 0.128939
v 0.315414 0.051479 -0.128938
v 0.573290 0.051479 -0.128938
v 0.573290 0.051479 0.128939
v 0.315414 0.128938 0.042979
v 0.315414 0.128938 -0.042980
v 0.315414 -0.128938 -0.042980
v 0.315414 -0.128938 0.042979
v 0.573290 0.128938 -0.042980
v 0.573290 0.128938 0.042979
v 0.573290 -0.128938 0.042979
v 0.573290 -0.128938 -0.042980
v -0.315414 -0.051479 0.128938
v -0.315414 -0.051479 -0.128939
v -0.573290 -0.051479 -0.128939
v -0.573290 -0.051479 0.128938
v -0.315414 0.051479 0.128938
v -0.315414 0.051479 -0.128939
v -0.573290 0.051479 -0.128939
v -0.573290 0.051479 0.128938
v -0.315414 0.128938 0.042978
v -0.315414 0.128938 -0.042981
v -0.315414 -0.128938 -0.042981
v -0.315414 -0.128938 0.042978
v -0.573290 0.128938 -0.042981
v -0.573290 0.128938 0.042978
v -0.573290 -0.128938 0.042978
v -0.573290 -0.128938 -0.042981
v 0.543069 -0.319299 0.436942
v 0.543069 -0.319299 -0.395509
v 0.912249 -0.319299 -0.395509
v 0.912249 -0.319299 0.436942
v 0.543069 0.309466 0.436942
v 0.543069 0.309466 -0.395509
v 0.912249 0.309466 -0.395509
v 0.912249 0.309466 0.436942
v 1.077758 -0.208126 -0.395509
v 1.077758 -0.208126 0.436942
v 1.077758 0.198293 -0.395509
v 1.077758 0.198293 0.436942
v 0.583165 -0.272147 0.436942
v 0.896976 -0.272147 0.436942
v 0.583165 0.262314 0.436942
v 0.896976 0.262314 0.436942
v 1.037661 -0.177648 0.436942
v 1.037661 0.167815 0.436942
v 0.583165 -0.272147 0.359908
v 0.896976 -0.272147 0.359908
v 0.583165 0.262314 0.359908
v 0.896976 0.262314 0.359908
v 1.037661 -0.177648 0.359908
v 1.037661 0.167815 0.359908
v 1.050863 -0.133076 0.315919
v 1.130886 -0.133076 -0.356721
v 1.130886 -0.133076 0.315919
v 1.050863 0.125263 0.315919
v 1.130886 0.125263 -0.356721
v 1.130886 0.125263 0.315919
v 1.050863 0.125263 -0.356721
v 1.050863 -0.133076 -0.356721
v 1.197851 0.125263 -0.300344
v 1.197851 -0.133076 -0.300344
v 1.197851 0.125263 -0.117152
v 1.197851 -0.133076 -0.117152
v 0.585775 -0.264998 -0.368367
v 0.585775 -0.135950 -0.491170
v 0.627817 -0.135950 -0.491170
v 0.627817 -0.264998 -0.368367
v 0.585775 0.254760 -0.368367
v 0.585775 0.125711 -0.491170
v 0.627817 0.125711 -0.491170
v 0.627817 0.254760 -0.368367
v 0.585775 0.254759 -0.440198
v 0.585775 -0.264998 -0.440198
v 0.627817 0.254759 -0.440198
v 0.627817 -0.264998 -0.440198
v 0.854108 -0.264998 -0.368367
v 0.854108 -0.135950 -0.491170
v 0.896150 -0.135950 -0.491170
v 0.896150 -0.264998 -0.368367
v 0.854108 0.254760 -0.368367
v 0.854108 0.125711 -0.491170
v 0.896150 0.125711 -0.491170
v 0.896150 0.254760 -0.368367
v 0.854108 0.254759 -0.440198
v 0.854108 -0.264998 -0.440198
v 0.896150 0.254759 -0.440198
v 0.896150 -0.264998 -0.440198
v -0.543069 -0.319299 0.436941
v -0.543069 -0.319299 -0.395510
v -0.912249 -0.319299 -0.395510
v -0.912249 -0.319299 0.436941
v -0.543069 0.309466 0.436941
v -0.543069 0.309466 -0.395510
v -0.912249 0.309466 -0.395510
v -0.912249 0.309466 0.436941
v -1.077758 -0.208126 -0.395510
v -1.077758 -0.208126 0.436941
v -1.077758 0.198293 -0.395510
v -1.077758 0.198293 0.436941
v -0.583165 -0.272147 0.436941
v -0.896976 -0.272147 0.436941
v -0.583165 0.262314 0.436941
v -0.896976 0.262314 0.436941
v -1.037661 -0.177648 0.436941
v -1.037661 0.167815 0.436941
v -0.583165 -0.272147 0.359907
v -0.896976 -0.272147 0.359907
v -0.583165 0.262314 0.359907
v -0.896976 0.262314 0.359907
v -1.037661 -0.177648 0.359907
v -1.037661 0.167815 0.359907
v -1.050863 -0.133076 0.315918
v -1.130886 -0.133076 -0.356722
v -1.130886 -0.133076 0.315918
v -1.050863 0.125263 0.315918
v -1.130886 0.125263 -0.356722
v -1.130886 0.125263 0.315918
v -1.050863 0.125263 -0.356722
v -1.050863 -0.133076 -0.356722
v -1.197851 0.125263 -0.300344
v -1.197851 -0.133076 -0.300344
v -1.197851 0.125263 -0.117153
v -1.197851 -0.133076 -0.117153
v -0.585775 -0.264998 -0.368368
v -0.585775 -0.135950 -0.491171
v -0.627817 -0.135950 -0.491171
v -0.627817 -0.264998 -0.368368
v -0.585775 0.254760 -0.368368
v -0.585775 0.125711 -0.491171
v -0.627817 0.125711 -0.491171
v -0.627817 0.254760 -0.368368
v -0.585775 0.254759 -0.440199
v -0.585775 -0.264998 -0.440199
v -0.627817 0.254759 -0.440199
v -0.627817 -0.264998 -0.440199
v -0.854108 -0.264998 -0.368368
v -0.854108 -0.135950 -0.491171
v -0.896150 -0.135950 -0.491171
v -0.896150 -0.264998 -0.368368
v -0.854108 0.254760 -0.368368
v -0.854108 0.125711 -0.491171
v -0.896150 0.125711 -0.491171
v -0.896150 0.254760 -0.368368
v -0.854108 0.254759 -0.440199
v -0.854108 -0.264998 -0.440199
v -0.896150 0.254759 -0.440199
v -0.896150 -0.264998 -0.440199
vt 0.382986 0.546418
vt 0.418358 0.546415
vt 0.418361 0.560539
vt 0.382986 0.560540
vt 0.418354 0.502884
vt 0.382986 0.502886
vt 0.382987 0.488765
vt 0.418354 0.488764
vt 0.382985 0.576412
vt 0.418361 0.576412
vt 0.418356 0.530544
vt 0.382986 0.530546
vt 0.382987 0.472895
vt 0.418353 0.472895
vt 0.382985 0.588205
vt 0.418361 0.588205
vt 0.418355 0.518754
vt 0.382986 0.518756
vt 0.909274 0.306287
vt 0.909271 0.192106
vt 0.995514 0.192106
vt 0.995516 0.306287
vt 0.909271 0.141468
vt 0.995514 0.141469
vt 0.924520 0.379623
vt 0.909273 0.356922
vt 0.915740 0.354827
vt 0.928701 0.374124
vt 0.980264 0.379626
vt 0.976084 0.374126
vt 0.697568 0.306306
vt 0.697539 0.192123
vt 0.748182 0.192114
vt 0.748202 0.306296
vt 0.858637 0.306288
vt 0.858632 0.192106
vt 0.831282 0.192106
vt 0.831291 0.306289
vt 0.775547 0.306294
vt 0.775533 0.192111
vt 0.924520 0.118767
vt 0.980266 0.118767
vt 0.915741 0.311786
vt 0.989048 0.311787
vt 0.995514 0.356925
vt 0.989047 0.354830
vt 0.200010 0.606708
vt 0.180713 0.619669
vt 0.174822 0.610898
vt 0.194118 0.597937
vt 0.174822 0.621464
vt 0.131779 0.621464
vt 0.131779 0.610898
vt 0.180713 0.528819
vt 0.200011 0.541780
vt 0.194120 0.550552
vt 0.174822 0.537590
vt 0.204686 0.550552
vt 0.204684 0.597937
vt 0.121213 0.610898
vt 0.121213 0.537590
vt 0.131779 0.537590
vt 0.131779 0.527024
vt 0.174823 0.527024
vt 0.115986 0.443269
vt 0.055878 0.443270
vt 0.055878 0.407835
vt 0.115986 0.407834
vt 0.044901 0.443270
vt 0.044901 0.407835
vt 0.153119 0.443264
vt 0.141115 0.443266
vt 0.141112 0.407834
vt 0.153117 0.407834
vt 0.164092 0.443263
vt 0.164092 0.407834
vt 0.148842 0.387674
vt 0.148843 0.398649
vt 0.148851 0.452450
vt 0.148854 0.463427
vt 0.056592 0.387676
vt 0.056593 0.398651
vt 0.056574 0.452471
vt 0.056577 0.463449
vt 0.034824 0.629903
vt 0.027832 0.612202
vt 0.027832 0.576310
vt 0.034823 0.558609
vt 0.022066 0.612202
vt 0.022066 0.576312
vt 0.015075 0.629903
vt 0.005223 0.629903
vt 0.005223 0.558609
vt 0.015075 0.558610
vt 0.027816 0.557283
vt 0.022052 0.557288
vt 0.022065 0.631239
vt 0.027833 0.631239
vt 0.044677 0.629903
vt 0.044676 0.558608
vt 0.027807 0.547434
vt 0.022042 0.547440
vt 0.022066 0.641095
vt 0.027835 0.641094
vn 0.000000 0.406600 -0.913600
vn 0.000000 -0.406600 -0.913600
vn 0.000000 0.406600 0.913600
vn 0.000000 -0.406600 0.913600
vn 0.000000 -0.933500 -0.358600
vn 0.000000 0.933500 -0.358600
vn 0.000000 -0.933500 0.358600
vn 0.000000 0.933500 0.358500
vn -0.577300 0.577300 0.577300
vn -0.577300 0.577300 -0.577300
vn -0.577300 -0.577300 -0.577300
vn -0.577300 -0.577300 0.577300
vn 0.222200 0.729400 -0.647000
vn 0.222200 -0.729400 -0.647000
vn 0.695900 0.370900 0.615000
vn 0.222200 0.729400 0.647000
vn -0.182700 -0.599800 0.779000
vn -0.492600 -0.262500 0.829700
vn 0.695900 -0.370900 0.615000
vn -0.492600 0.262500 0.829700
vn 0.222200 -0.729400 0.647000
vn 0.695900 0.370900 -0.615000
vn 0.695900 -0.370900 -0.615000
vn 0.301500 -0.301500 0.904500
vn 0.301500 0.301500 0.904500
vn -0.182700 0.599800 0.779000
vn -0.222200 -0.729400 0.647000
vn -0.695900 -0.370900 0.615000
vn 0.577300 -0.577300 0.577300
vn -0.695900 0.370900 0.615000
vn -0.222200 0.729400 0.647000
vn 0.577300 0.577300 0.577300
vn 0.721400 0.690200 0.055400
vn 0.527500 0.585800 0.615300
vn 0.527500 -0.585800 0.615300
vn 0.721400 -0.690200 0.055400
vn 0.000000 0.707100 0.707100
vn -0.000000 -0.707100 0.707100
vn 0.264100 0.637500 -0.723800
vn 0.708900 0.623300 -0.329900
vn 0.708900 -0.623300 -0.329900
vn 0.264100 -0.637500 -0.723800
vn 0.000000 0.707100 -0.707100
vn -0.000000 -0.707100 -0.707100
vn -0.599700 0.661600 -0.450000
vn -0.667300 0.139200 -0.731600
vn -0.667300 -0.139200 -0.731600
vn -0.599700 -0.661600 -0.450000
vn 0.667300 0.139200 -0.731600
vn 0.667300 -0.139200 -0.731600
vn 0.599700 0.661600 -0.450000
vn 0.707100 0.707100 -0.000000
vn 0.707100 -0.707100 0.000000
vn 0.599700 -0.661600 -0.450000
vn -0.707100 0.707100 -0.000000
vn -0.707100 -0.707100 0.000000
vn 0.577300 -0.577300 -0.577300
vn 0.577300 0.577300 -0.577300
vn -0.222200 -0.729400 -0.647000
vn -0.222200 0.729400 -0.647000
vn 0.492600 -0.262500 0.829700
vn 0.182700 -0.599800 0.779000
vn 0.492600 0.262500 0.829700
vn -0.695900 0.370900 -0.615000
vn -0.695900 -0.370900 -0.615000
vn -0.301500 -0.301500 0.904500
vn -0.301500 0.301500 0.904500
vn 0.182700 0.599800 0.779000
vn -0.721400 0.690200 0.055400
vn -0.721400 -0.690200 0.055400
vn -0.527500 -0.585800 0.615300
vn -0.527500 0.585800 0.615300
vn -0.264100 0.637500 -0.723800
vn -0.264100 -0.637500 -0.723800
vn -0.708900 -0.623300 -0.329900
vn -0.708900 0.623300 -0.329900
s 1
f 6/1/1 7/2/1 3/3/2 2/4/2
f 8/5/3 5/6/3 1/7/4 4/8/4
f 11/9/5 2/4/2 3/3/2 16/10/5
f 13/11/6 7/2/1 6/1/1 10/12/6
f 1/7/4 12/13/7 15/14/7 4/8/4
f 12/15/7 11/9/5 16/10/5 15/16/7
f 8/5/3 14/17/8 9/18/8 5/6/3
f 14/17/8 13/11/6 10/12/6 9/18/8
s 2
f 22/1/1 18/4/2 19/3/2 23/2/1
f 24/5/3 20/8/4 17/7/4 21/6/3
f 27/9/5 32/10/5 19/3/2 18/4/2
f 29/11/6 26/12/6 22/1/1 23/2/1
f 17/7/4 20/8/4 31/14/7 28/13/7
f 28/15/7 31/16/7 32/10/5 27/9/5
f 24/5/3 21/6/3 25/18/8 30/17/8
f 30/17/8 25/18/8 26/12/6 29/11/6
s 3
f 37/19/9 38/20/10 34/21/11 33/22/12
f 38/20/10 39/23/13 35/24/14 34/21/11
f 44/25/15 40/26/16 48/27/17 50/28/18
f 42/29/19 44/25/15 50/28/18 49/30/20
f 33/31/12 34/32/11 35/33/14 36/34/21
f 40/35/16 39/36/13 38/20/10 37/19/9
f 43/37/22 44/38/15 42/39/19 41/40/23
f 35/24/14 39/23/13 43/41/22 41/42/23
f 36/34/21 35/33/14 41/40/23 42/39/19
f 39/36/13 40/35/16 44/38/15 43/37/22
f 40/26/16 37/19/9 47/43/24 48/27/17
f 37/19/9 33/22/12 45/44/25 47/43/24
f 36/45/21 42/29/19 49/30/20 46/46/26
f 33/22/12 36/45/21 46/46/26 45/44/25
f 50/47/18 48/48/17 54/49/27 56/50/28
f 48/51/17 47/52/24 53/53/29 54/49/27
f 46/54/26 49/55/20 55/56/30 52/57/31
f 49/58/20 50/59/18 56/50/28 55/56/30
f 47/60/24 45/61/25 51/62/32 53/53/29
f 45/63/25 46/64/26 52/57/31 51/62/32
f 51/62/32 52/57/31 54/49/27 53/53/29
f 56/50/28 54/49/27 52/57/31 55/56/30
s 4
f 67/65/33 62/66/34 59/67/35 68/68/36
f 62/66/34 60/69/37 57/70/38 59/67/35
f 61/71/39 65/72/40 66/73/41 58/74/42
f 65/72/40 67/65/33 68/68/36 66/73/41
f 63/75/43 61/71/39 58/74/42 64/76/44
f 64/77/44 58/78/42 66/73/41
f 65/72/40 61/79/39 63/80/43
f 64/77/44 66/73/41 68/68/36
f 67/65/33 65/72/40 63/80/43
f 57/81/38 64/77/44 68/68/36 59/82/35
f 62/83/34 67/65/33 63/80/43 60/84/37
s 5
f 77/85/45 74/86/46 70/87/47 78/88/48
f 74/86/46 75/89/49 71/90/50 70/87/47
f 79/91/51 76/92/52 72/93/53 80/94/54
f 78/95/48 70/87/47 71/90/50 80/96/54
f 79/97/51 75/89/49 74/86/46 77/98/45
f 73/99/55 77/85/45 78/88/48 69/100/56
f 75/89/49 79/91/51 80/94/54 71/90/50
f 69/101/56 78/95/48 80/96/54 72/102/53
f 76/103/52 79/97/51 77/98/45 73/104/55
s 6
f 89/85/45 86/86/46 82/87/47 90/88/48
f 86/86/46 87/89/49 83/90/50 82/87/47
f 91/91/51 88/92/52 84/93/53 92/94/54
f 90/95/48 82/87/47 83/90/50 92/96/54
f 91/97/51 87/89/49 86/86/46 89/98/45
f 85/99/55 89/85/45 90/88/48 81/100/56
f 87/89/49 91/91/51 92/94/54 83/90/50
f 81/101/56 90/95/48 92/96/54 84/102/53
f 88/103/52 91/97/51 89/98/45 85/104/55
s 7
f 97/19/32 93/22/29 94/21/57 98/20/58
f 98/20/58 94/21/57 95/24/59 99/23/60
f 104/25/30 110/28/61 108/27/62 100/26/31
f 102/29/28 109/30/63 110/28/61 104/25/30
f 93/31/29 96/34/27 95/33/59 94/32/57
f 100/35/31 97/19/32 98/20/58 99/36/60
f 103/37/64 101/40/65 102/39/28 104/38/30
f 95/24/59 101/42/65 103/41/64 99/23/60
f 96/34/27 102/39/28 101/40/65 95/33/59
f 99/36/60 103/37/64 104/38/30 100/35/31
f 100/26/31 108/27/62 107/43/66 97/19/32
f 97/19/32 107/43/66 105/44/67 93/22/29
f 96/45/27 106/46/68 109/30/63 102/29/28
f 93/22/29 105/44/67 106/46/68 96/45/27
f 110/47/61 116/50/19 114/49/21 108/48/62
f 108/51/62 114/49/21 113/53/12 107/52/66
f 106/54/68 112/57/16 115/56/15 109/55/63
f 109/58/63 115/56/15 116/50/19 110/59/61
f 107/60/66 113/53/12 111/62/9 105/61/67
f 105/63/67 111/62/9 112/57/16 106/64/68
f 111/62/9 113/53/12 114/49/21 112/57/16
f 116/50/19 115/56/15 112/57/16 114/49/21
s 8
f 127/65/69 128/68/70 119/67/71 122/66/72
f 122/66/72 119/67/71 117/70/38 120/69/37
f 121/71/73 118/74/74 126/73/75 125/72/76
f 125/72/76 126/73/75 128/68/70 127/65/69
f 123/75/43 124/76/44 118/74/74 121/71/73
f 124/77/44 126/73/75 118/78/74
f 125/72/76 123/80/43 121/79/73
f 124/77/44 128/68/70 126/73/75
f 127/65/69 123/80/43 125/72/76
f 117/81/38 119/82/71 128/68/70 124/77/44
f 122/83/72 120/84/37 123/80/43 127/65/69
s 9
f 137/85/51 138/88/54 130/87/50 134/86/49
f 134/86/49 130/87/50 131/90/47 135/89/46
f 139/91/45 140/94/48 132/93/56 136/92/55
f 138/95/54 140/96/48 131/90/47 130/87/50
f 139/97/45 137/98/51 134/86/49 135/89/46
f 133/99/52 129/100/53 138/88/54 137/85/51
f 135/89/46 131/90/47 140/94/48 139/91/45
f 129/101/53 132/102/56 140/96/48 138/95/54
f 136/103/55 133/104/52 137/98/51 139/97/45
s 10
f 149/85/51 150/88/54 142/87/50 146/86/49
f 146/86/49 142/87/50 143/90/47 147/89/46
f 151/91/45 152/94/48 144/93/56 148/92/55
f 150/95/54 152/96/48 143/90/47 142/87/50
f 151/97/45 149/98/51 146/86/49 147/89/46
f 145/99/52 141/100/53 150/88/54 149/85/51
f 147/89/46 143/90/47 152/94/48 151/91/45
f 141/101/53 144/102/56 152/96/48 150/95/54
f 148/103/55 145/104/52 149/98/51 151/97/45
