# Blender v2.71 (sub 0) OBJ File: 'WeaponPlatforms.blend'
# www.blender.org
o PlatformFlakBarrelStatic_Cube.049
v 0.346138 -0.051478 0.128938
v 0.346138 -0.051479 -0.128939
v 0.604016 -0.051479 -0.128939
v 0.604016 -0.051478 0.128938
v 0.346138 0.051479 0.128938
v 0.346138 0.051479 -0.128939
v 0.604016 0.051479 -0.128939
v 0.604016 0.051479 0.128938
v 0.346138 0.128939 0.042978
v 0.346138 0.128939 -0.042981
v 0.346138 -0.128938 -0.042981
v 0.346138 -0.128938 0.042978
v 0.604016 0.128939 -0.042981
v 0.604016 0.128939 0.042978
v 0.604016 -0.128938 0.042978
v 0.604016 -0.128938 -0.042981
v -0.346138 -0.051479 0.128939
v -0.346138 -0.051479 -0.128938
v -0.604016 -0.051479 -0.128938
v -0.604016 -0.051479 0.128939
v -0.346138 0.051479 0.128939
v -0.346138 0.051478 -0.128938
v -0.604016 0.051478 -0.128938
v -0.604016 0.051479 0.128939
v -0.346138 0.128938 0.042979
v -0.346138 0.128938 -0.042980
v -0.346138 -0.128939 -0.042980
v -0.346138 -0.128939 0.042979
v -0.604016 0.128938 -0.042980
v -0.604016 0.128938 0.042979
v -0.604016 -0.128939 0.042979
v -0.604016 -0.128939 -0.042980
v 0.554642 -0.284099 0.228763
v 0.554642 -0.284099 -0.372046
v 0.749227 -0.284099 -0.372046
v 0.749227 -0.284099 0.228763
v 0.554642 0.298748 0.228763
v 0.554642 0.298748 -0.372047
v 0.749227 0.298748 -0.372047
v 0.749227 0.298748 0.228763
v 0.554642 -0.158639 -0.513106
v 0.749227 -0.158639 -0.513106
v 0.554642 0.173287 -0.513106
v 0.749227 0.173287 -0.513106
v 0.868628 -0.192134 -0.372046
v 0.868628 -0.192134 0.228763
v 0.868628 0.206783 -0.372047
v 0.868628 0.206783 0.228763
v 0.868628 -0.065944 -0.513106
v 0.868628 0.080592 -0.513106
v 0.822419 -0.038018 0.171260
v 0.708749 -0.038018 -0.580859
v 0.892467 -0.038018 -0.580859
v 0.901966 -0.038018 0.171260
v 0.822419 0.051662 0.171260
v 0.708749 0.051662 -0.580859
v 0.892467 0.051662 -0.580859
v 0.901966 0.051662 0.171260
v 0.646666 0.051662 -0.179065
v 0.646666 -0.038018 -0.179065
v 0.954551 0.051662 -0.179065
v 0.954551 -0.038018 -0.179065
v 0.646666 0.051662 -0.536269
v 0.954551 -0.038018 -0.536269
v 0.646666 -0.038018 -0.536269
v 0.954551 0.051662 -0.536269
v -0.554642 -0.284099 0.228764
v -0.554642 -0.284099 -0.372045
v -0.749227 -0.284099 -0.372045
v -0.749227 -0.284099 0.228764
v -0.554642 0.298748 0.228764
v -0.554642 0.298748 -0.372046
v -0.749227 0.298748 -0.372046
v -0.749227 0.298748 0.228764
v -0.554642 -0.158639 -0.513105
v -0.749227 -0.158639 -0.513105
v -0.554642 0.173287 -0.513105
v -0.749227 0.173287 -0.513105
v -0.868628 -0.192134 -0.372046
v -0.868628 -0.192134 0.228764
v -0.868628 0.206783 -0.372046
v -0.868628 0.206783 0.228764
v -0.868628 -0.065944 -0.513105
v -0.868628 0.080592 -0.513105
v -0.822419 -0.038018 0.171261
v -0.708749 -0.038018 -0.580858
v -0.892467 -0.038018 -0.580858
v -0.901966 -0.038018 0.171261
v -0.822419 0.051662 0.171261
v -0.708749 0.051661 -0.580858
v -0.892467 0.051661 -0.580858
v -0.901966 0.051662 0.171261
v -0.646666 0.051662 -0.179064
v -0.646666 -0.038018 -0.179064
v -0.954551 0.051662 -0.179064
v -0.954551 -0.038018 -0.179064
v -0.646666 0.051661 -0.536268
v -0.954551 -0.038018 -0.536268
v -0.646666 -0.038018 -0.536268
v -0.954551 0.051661 -0.536268
v 0.698965 0.235158 0.197409
v 0.642272 0.202426 0.197409
v 0.642272 0.136963 0.197409
v 0.698965 0.104232 0.197409
v 0.755658 0.136963 0.197409
v 0.755658 0.202426 0.197409
v 0.698965 0.235158 1.627846
v 0.642272 0.202426 1.627846
v 0.642272 0.136963 1.627846
v 0.698965 0.104232 1.627846
v 0.755658 0.136963 1.627846
v 0.755658 0.202426 1.627846
v 0.698965 0.264480 1.699091
v 0.616879 0.217087 1.699091
v 0.616879 0.122303 1.699091
v 0.698965 0.074910 1.699091
v 0.781051 0.122303 1.699091
v 0.781051 0.217087 1.699091
v 0.698965 0.264480 2.041666
v 0.616879 0.217088 2.041666
v 0.616879 0.122303 2.041666
v 0.698965 0.074910 2.041666
v 0.781051 0.122303 2.041666
v 0.781051 0.217088 2.041666
v 0.698965 0.232981 2.041666
v 0.644158 0.201338 2.041666
v 0.644158 0.138052 2.041666
v 0.698965 0.106410 2.041666
v 0.753772 0.138052 2.041666
v 0.753772 0.201338 2.041666
v 0.698965 0.232981 1.898310
v 0.644158 0.201338 1.898310
v 0.644158 0.138052 1.898310
v 0.698965 0.106410 1.898310
v 0.753772 0.138052 1.898310
v 0.753772 0.201338 1.898310
v 0.698965 -0.094555 0.197409
v 0.642272 -0.127286 0.197409
v 0.642272 -0.192749 0.197409
v 0.698965 -0.225480 0.197409
v 0.755658 -0.192749 0.197409
v 0.755658 -0.127286 0.197409
v 0.698965 -0.094554 1.627846
v 0.642272 -0.127286 1.627846
v 0.642272 -0.192749 1.627846
v 0.698965 -0.225480 1.627846
v 0.755658 -0.192749 1.627846
v 0.755658 -0.127286 1.627846
v 0.698965 -0.065233 1.699091
v 0.616879 -0.112625 1.699091
v 0.616879 -0.207410 1.699091
v 0.698965 -0.254802 1.699091
v 0.781051 -0.207410 1.699091
v 0.781051 -0.112625 1.699091
v 0.698965 -0.065233 2.041666
v 0.616879 -0.112625 2.041666
v 0.616879 -0.207410 2.041666
v 0.698965 -0.254802 2.041666
v 0.781051 -0.207410 2.041666
v 0.781051 -0.112625 2.041666
v 0.698965 -0.096732 2.041666
v 0.644158 -0.128375 2.041666
v 0.644158 -0.191660 2.041666
v 0.698965 -0.223303 2.041666
v 0.753772 -0.191660 2.041666
v 0.753772 -0.128375 2.041666
v 0.698965 -0.096732 1.898310
v 0.644158 -0.128375 1.898310
v 0.644158 -0.191660 1.898310
v 0.698965 -0.223303 1.898310
v 0.753772 -0.191660 1.898310
v 0.753772 -0.128375 1.898310
v -0.698965 0.235158 0.197410
v -0.642272 0.202426 0.197410
v -0.642272 0.136963 0.197410
v -0.698965 0.104232 0.197410
v -0.755658 0.136963 0.197410
v -0.755658 0.202426 0.197410
v -0.698965 0.235158 1.627847
v -0.642272 0.202426 1.627847
v -0.642272 0.136963 1.627847
v -0.698965 0.104232 1.627847
v -0.755658 0.136963 1.627847
v -0.755658 0.202426 1.627847
v -0.698965 0.264479 1.699092
v -0.616879 0.217087 1.699092
v -0.616879 0.122302 1.699092
v -0.698965 0.074910 1.699092
v -0.781051 0.122302 1.699092
v -0.781051 0.217087 1.699092
v -0.698965 0.264480 2.041667
v -0.616879 0.217087 2.041667
v -0.616879 0.122303 2.041667
v -0.698965 0.074910 2.041667
v -0.781051 0.122303 2.041667
v -0.781051 0.217087 2.041667
v -0.698965 0.232980 2.041667
v -0.644158 0.201338 2.041667
v -0.644158 0.138052 2.041667
v -0.698965 0.106410 2.041667
v -0.753772 0.138052 2.041667
v -0.753772 0.201338 2.041667
v -0.698965 0.232980 1.898311
v -0.644158 0.201338 1.898311
v -0.644158 0.138052 1.898311
v -0.698965 0.106410 1.898311
v -0.753772 0.138052 1.898311
v -0.753772 0.201338 1.898311
v -0.698965 -0.094555 0.197410
v -0.642272 -0.127286 0.197410
v -0.642272 -0.192749 0.197410
v -0.698965 -0.225481 0.197410
v -0.755658 -0.192749 0.197410
v -0.755658 -0.127286 0.197410
v -0.698965 -0.094555 1.627847
v -0.642272 -0.127286 1.627847
v -0.642272 -0.192749 1.627847
v -0.698965 -0.225480 1.627847
v -0.755658 -0.192749 1.627847
v -0.755658 -0.127286 1.627847
v -0.698965 -0.065233 1.699092
v -0.616879 -0.112625 1.699092
v -0.616879 -0.207410 1.699092
v -0.698965 -0.254802 1.699092
v -0.781051 -0.207410 1.699092
v -0.781051 -0.112625 1.699092
v -0.698965 -0.065233 2.041667
v -0.616879 -0.112625 2.041667
v -0.616879 -0.207410 2.041667
v -0.698965 -0.254802 2.041667
v -0.781051 -0.207410 2.041667
v -0.781051 -0.112625 2.041667
v -0.698965 -0.096732 2.041667
v -0.644158 -0.128375 2.041667
v -0.644158 -0.191660 2.041667
v -0.698965 -0.223303 2.041667
v -0.753772 -0.191660 2.041667
v -0.753772 -0.128375 2.041667
v -0.698965 -0.096732 1.898311
v -0.644158 -0.128375 1.898311
v -0.644158 -0.191660 1.898311
v -0.698965 -0.223303 1.898311
v -0.753772 -0.191660 1.898311
v -0.753772 -0.128375 1.898311
vt 0.465384 0.543693
vt 0.500755 0.543692
vt 0.500756 0.557814
vt 0.465385 0.557815
vt 0.500755 0.500160
vt 0.465384 0.500160
vt 0.465384 0.486038
vt 0.500755 0.486038
vt 0.465385 0.573686
vt 0.500756 0.573685
vt 0.500755 0.527821
vt 0.465384 0.527822
vt 0.465383 0.470166
vt 0.500755 0.470166
vt 0.465385 0.585476
vt 0.500757 0.585475
vt 0.500755 0.516031
vt 0.465384 0.516031
vt 0.322075 0.285283
vt 0.322075 0.367691
vt 0.242130 0.367691
vt 0.242131 0.285283
vt 0.304868 0.387040
vt 0.259338 0.387040
vt 0.260553 0.114054
vt 0.342964 0.114059
vt 0.342961 0.134729
vt 0.260553 0.134727
vt 0.322075 0.258594
vt 0.242132 0.258594
vt 0.260555 0.087364
vt 0.342966 0.087368
vt 0.260552 0.210116
vt 0.342962 0.210116
vt 0.342962 0.236807
vt 0.260553 0.236807
vt 0.304870 0.413730
vt 0.259338 0.413732
vt 0.260552 0.189444
vt 0.342961 0.189445
vt 0.368860 0.087370
vt 0.368858 0.114060
vt 0.368856 0.210115
vt 0.368857 0.236806
vt 0.362309 0.152037
vt 0.362309 0.172136
vt 0.366630 0.199615
vt 0.366675 0.178882
vt 0.254746 0.242218
vt 0.309461 0.242218
vt 0.366629 0.124565
vt 0.366668 0.145297
vt 0.292156 0.430112
vt 0.272054 0.430112
vt 0.216842 0.560739
vt 0.216838 0.550252
vt 0.229141 0.550248
vt 0.229145 0.560734
vt 0.216830 0.525049
vt 0.229132 0.525046
vt 0.216833 0.465560
vt 0.216831 0.417012
vt 0.229121 0.417010
vt 0.229129 0.465561
vt 0.216827 0.406113
vt 0.229118 0.406108
vt 0.271364 0.514561
vt 0.262848 0.520678
vt 0.237646 0.520678
vt 0.229130 0.514561
vt 0.216827 0.514562
vt 0.208309 0.520678
vt 0.183104 0.520674
vt 0.174589 0.514556
vt 0.216805 0.352399
vt 0.229096 0.352394
vt 0.247255 0.417504
vt 0.271364 0.465561
vt 0.236343 0.417503
vt 0.209626 0.417500
vt 0.174596 0.465554
vt 0.198714 0.417499
vt 0.162286 0.514555
vt 0.162293 0.465552
vt 0.589305 0.977371
vt 0.393102 0.977371
vt 0.393102 0.968391
vt 0.589306 0.968391
vt 0.589305 0.950433
vt 0.393102 0.950433
vt 0.393102 0.941454
vt 0.589305 0.941454
vt 0.589306 0.995329
vt 0.393102 0.995329
vt 0.393102 0.986350
vt 0.589305 0.986349
vt 0.393102 0.959412
vt 0.589306 0.959412
vt 0.106621 0.525905
vt 0.106621 0.534884
vt 0.096247 0.536896
vt 0.096246 0.523895
vt 0.106621 0.486905
vt 0.106620 0.495884
vt 0.096246 0.497895
vt 0.096247 0.484895
vt 0.106619 0.512905
vt 0.106620 0.521883
vt 0.096245 0.510895
vt 0.106621 0.473907
vt 0.106620 0.482885
vt 0.096248 0.471895
vt 0.106622 0.538906
vt 0.106624 0.547885
vt 0.096248 0.549898
vt 0.106620 0.499908
vt 0.106618 0.508887
vt 0.049256 0.549898
vt 0.049256 0.536896
vt 0.049257 0.510891
vt 0.049258 0.497890
vt 0.049255 0.523893
vt 0.049260 0.484890
vt 0.049262 0.471889
vt 0.045513 0.534736
vt 0.045510 0.526054
vt 0.045517 0.495729
vt 0.045518 0.487049
vt 0.045513 0.521732
vt 0.045515 0.513051
vt 0.045519 0.482729
vt 0.045521 0.474048
vt 0.045515 0.547737
vt 0.045515 0.539056
vt 0.045515 0.508730
vt 0.045516 0.500050
vt 0.377971 0.126929
vt 0.377973 0.118249
vt 0.397637 0.118249
vt 0.397637 0.126931
vt 0.377972 0.100891
vt 0.377969 0.092213
vt 0.397627 0.092206
vt 0.397633 0.100885
vt 0.377970 0.135612
vt 0.397637 0.135613
vt 0.377974 0.109570
vt 0.397636 0.109566
vt 0.377969 0.144294
vt 0.397636 0.144296
vt 0.412665 0.100869
vt 0.405154 0.105216
vt 0.412656 0.092189
vt 0.405135 0.087858
vn 0.000000 0.406600 -0.913600
vn 0.000000 -0.406600 -0.913600
vn 0.000000 0.406600 0.913600
vn 0.000000 -0.406600 0.913600
vn 0.000000 -0.933500 -0.358600
vn 0.000000 0.933500 -0.358600
vn 0.000000 -0.933500 0.358600
vn 0.000000 0.933500 0.358500
vn -0.577300 0.577300 0.577300
vn -0.635200 0.721900 -0.274600
vn -0.635200 -0.721900 -0.274600
vn -0.577300 -0.577300 0.577300
vn -0.625500 0.319500 -0.711800
vn -0.625500 -0.319500 -0.711800
vn 0.247300 -0.726400 0.641200
vn 0.291700 -0.899700 -0.324700
vn 0.843600 -0.489100 -0.221700
vn 0.704000 -0.346400 0.619900
vn 0.247300 0.726400 0.641200
vn 0.291700 0.899700 -0.324700
vn 0.185100 0.457800 -0.869500
vn 0.185100 -0.457800 -0.869500
vn 0.704000 0.346400 0.619900
vn 0.843600 0.489100 -0.221700
vn 0.693400 -0.179200 -0.697900
vn 0.693400 0.179200 -0.697900
vn -0.699900 0.617400 -0.359100
vn -0.234400 0.644200 -0.728000
vn -0.234400 -0.644200 -0.728000
vn -0.699900 -0.617400 -0.359100
vn 0.234400 0.644200 -0.728000
vn 0.234400 -0.644200 -0.728000
vn 0.721100 0.690700 0.053800
vn 0.528900 0.585600 0.614200
vn 0.528900 -0.585600 0.614200
vn 0.721100 -0.690700 0.053800
vn -0.417800 0.605800 0.677100
vn -0.417800 -0.605800 0.677100
vn 0.699900 -0.617400 -0.359100
vn 0.699900 0.617400 -0.359100
vn -0.732100 0.658700 0.173300
vn -0.732100 -0.658700 0.173300
vn 0.577300 0.577300 0.577300
vn 0.577300 -0.577300 0.577300
vn 0.635200 -0.721900 -0.274600
vn 0.635200 0.721900 -0.274600
vn 0.625500 -0.319500 -0.711800
vn 0.625500 0.319500 -0.711800
vn -0.247300 -0.726400 0.641200
vn -0.704000 -0.346400 0.619900
vn -0.843600 -0.489100 -0.221700
vn -0.291700 -0.899700 -0.324700
vn -0.247300 0.726400 0.641200
vn -0.291700 0.899700 -0.324700
vn -0.185100 -0.457800 -0.869500
vn -0.185100 0.457800 -0.869500
vn -0.843600 0.489100 -0.221700
vn -0.704000 0.346400 0.619900
vn -0.693400 0.179200 -0.697900
vn -0.693400 -0.179200 -0.697900
vn -0.721100 0.690700 0.053800
vn -0.721100 -0.690700 0.053800
vn -0.528900 -0.585600 0.614200
vn -0.528900 0.585600 0.614200
vn 0.417800 -0.605800 0.677100
vn 0.417800 0.605800 0.677100
vn 0.732100 -0.658700 0.173300
vn 0.732100 0.658700 0.173300
vn -0.866000 0.500000 -0.000000
vn -0.847300 0.489200 -0.206900
vn 0.000000 0.978400 -0.206900
vn 0.000000 1.000000 -0.000000
vn 0.866000 -0.500000 0.000000
vn 0.847300 -0.489200 -0.206900
vn 0.000000 -0.978400 -0.206900
vn 0.000000 -1.000000 0.000000
vn -0.847300 -0.489200 -0.206900
vn -0.866000 -0.500000 0.000000
vn 0.847300 0.489200 -0.206900
vn 0.866000 0.500000 -0.000000
vn -0.851300 -0.491500 -0.183100
vn -0.851300 0.491500 -0.183100
vn 0.851300 0.491500 -0.183100
vn 0.851300 -0.491500 -0.183100
vn 0.000000 0.983100 -0.183100
vn 0.000000 -0.983100 -0.183100
vn 0.000000 -0.792400 0.610000
vn -0.686200 -0.396200 0.610000
vn 0.000000 0.792400 0.610000
vn 0.686200 0.396200 0.610000
vn -0.686200 0.396200 0.610000
vn 0.686200 -0.396200 0.610000
vn 0.471700 0.272300 0.838600
vn 0.471700 -0.272300 0.838600
vn -0.471700 -0.272300 0.838600
vn -0.471700 0.272300 0.838600
vn 0.000000 -0.544700 0.838600
vn 0.000000 0.544700 0.838600
s 1
f 6/1/1 7/2/1 3/3/2 2/4/2
f 8/5/3 5/6/3 1/7/4 4/8/4
f 11/9/5 2/4/2 3/3/2 16/10/5
f 13/11/6 7/2/1 6/1/1 10/12/6
f 1/7/4 12/13/7 15/14/7 4/8/4
f 12/15/7 11/9/5 16/10/5 15/16/7
f 8/5/3 14/17/8 9/18/8 5/6/3
f 14/17/8 13/11/6 10/12/6 9/18/8
s 2
f 22/1/1 18/4/2 19/3/2 23/2/1
f 24/5/3 20/8/4 17/7/4 21/6/3
f 27/9/5 32/10/5 19/3/2 18/4/2
f 29/11/6 26/12/6 22/1/1 23/2/1
f 17/7/4 20/8/4 31/14/7 28/13/7
f 28/15/7 31/16/7 32/10/5 27/9/5
f 24/5/3 21/6/3 25/18/8 30/17/8
f 30/17/8 25/18/8 26/12/6 29/11/6
s 3
f 37/19/9 38/20/10 34/21/11 33/22/12
f 34/21/11 38/20/10 43/23/13 41/24/14
f 36/25/15 35/26/16 45/27/17 46/28/18
f 40/29/19 37/19/9 33/22/12 36/30/15
f 33/31/12 34/32/11 35/26/16 36/25/15
f 40/33/19 39/34/20 38/35/10 37/36/9
f 43/23/13 44/37/21 42/38/22 41/24/14
f 39/34/20 40/33/19 48/39/23 47/40/24
f 35/26/16 34/32/11 41/41/14 42/42/22
f 38/35/10 39/34/20 44/43/21 43/44/13
f 47/40/24 48/39/23 46/28/18 45/27/17
f 47/40/24 45/27/17 49/45/25 50/46/26
f 44/47/21 39/34/20 47/40/24 50/48/26
f 40/29/19 36/30/15 46/49/18 48/50/23
f 35/26/16 42/51/22 49/52/25 45/27/17
f 42/38/22 44/37/21 50/53/26 49/54/25
s 4
f 63/55/27 56/56/28 52/57/29 65/58/30
f 56/56/28 57/59/31 53/60/32 52/57/29
f 61/61/33 58/62/34 54/63/35 62/64/36
f 58/62/34 55/65/37 51/66/38 54/63/35
f 65/67/30 52/68/29 53/69/32 64/70/39
f 66/71/40 57/72/31 56/73/28 63/74/27
f 55/65/37 59/75/41 60/76/42 51/66/38
f 66/71/40 61/61/33 62/64/36 64/70/39
f 51/77/38 60/78/42 62/64/36 54/79/35
f 58/80/34 61/61/33 59/81/41 55/82/37
f 59/81/41 63/74/27 65/83/30 60/84/42
f 60/78/42 65/67/30 64/70/39 62/64/36
f 61/61/33 66/71/40 63/74/27 59/81/41
f 57/59/31 66/71/40 64/70/39 53/60/32
s 5
f 71/19/43 67/22/44 68/21/45 72/20/46
f 68/21/45 75/24/47 77/23/48 72/20/46
f 70/25/49 80/28/50 79/27/51 69/26/52
f 74/29/53 70/30/49 67/22/44 71/19/43
f 67/31/44 70/25/49 69/26/52 68/32/45
f 74/33/53 71/36/43 72/35/46 73/34/54
f 77/23/48 75/24/47 76/38/55 78/37/56
f 73/34/54 81/40/57 82/39/58 74/33/53
f 69/26/52 76/42/55 75/41/47 68/32/45
f 72/35/46 77/44/48 78/43/56 73/34/54
f 81/40/57 79/27/51 80/28/50 82/39/58
f 81/40/57 84/46/59 83/45/60 79/27/51
f 78/47/56 84/48/59 81/40/57 73/34/54
f 74/29/53 82/50/58 80/49/50 70/30/49
f 69/26/52 79/27/51 83/52/60 76/51/55
f 76/38/55 83/54/60 84/53/59 78/37/56
s 6
f 97/55/40 99/58/39 86/57/32 90/56/31
f 90/56/31 86/57/32 87/60/29 91/59/28
f 95/61/61 96/64/62 88/63/63 92/62/64
f 92/62/64 88/63/63 85/66/65 89/65/66
f 99/67/39 98/70/30 87/69/29 86/68/32
f 100/71/27 97/74/40 90/73/31 91/72/28
f 89/65/66 85/66/65 94/76/67 93/75/68
f 100/71/27 98/70/30 96/64/62 95/61/61
f 85/77/65 88/79/63 96/64/62 94/78/67
f 92/80/64 89/82/66 93/81/68 95/61/61
f 93/81/68 94/84/67 99/83/39 97/74/40
f 94/78/67 96/64/62 98/70/30 99/67/39
f 95/61/61 93/81/68 97/74/40 100/71/27
f 91/59/28 87/60/29 98/70/30 100/71/27
s 7
f 102/85/69 108/86/70 107/87/71 101/88/72
f 105/89/73 111/90/74 110/91/75 104/92/76
f 104/93/76 110/94/75 109/95/77 103/96/78
f 101/88/72 107/87/71 112/97/79 106/98/80
f 103/96/78 109/95/77 108/86/70 102/85/69
f 106/98/80 112/97/79 111/90/74 105/89/73
f 108/99/70 109/100/77 115/101/81 114/102/82
f 111/103/74 112/104/79 118/105/83 117/106/84
f 107/107/71 108/108/70 114/102/82 113/109/85
f 110/110/75 111/111/74 117/106/84 116/112/86
f 109/113/77 110/114/75 116/115/86 115/101/81
f 112/116/79 107/117/71 113/109/85 118/105/83
f 115/101/81 116/115/86 122/118/87 121/119/88
f 118/105/83 113/109/85 119/120/89 124/121/90
f 114/102/82 115/101/81 121/119/88 120/122/91
f 117/106/84 118/105/83 124/121/90 123/123/92
f 113/109/85 114/102/82 120/122/91 119/120/89
f 116/112/86 117/106/84 123/123/92 122/124/87
f 120/122/91 121/119/88 127/125/93 126/126/94
f 123/123/92 124/121/90 130/127/95 129/128/96
f 119/120/89 120/122/91 126/129/94 125/130/97
f 122/124/87 123/123/92 129/131/96 128/132/98
f 121/119/88 122/118/87 128/133/98 127/134/93
f 124/121/90 119/120/89 125/135/97 130/136/95
f 127/137/93 128/138/98 134/139/89 133/140/90
f 130/141/95 125/142/97 131/143/87 136/144/88
f 126/145/94 127/137/93 133/140/90 132/146/92
f 129/147/96 130/141/95 136/144/88 135/148/91
f 125/149/97 126/145/94 132/146/92 131/150/87
f 128/138/98 129/147/96 135/148/91 134/139/89
f 134/151/89 135/152/91 136/144/88 133/153/90
f 132/154/92 133/153/90 136/144/88 131/143/87
s 8
f 138/85/69 144/86/70 143/87/71 137/88/72
f 141/89/73 147/90/74 146/91/75 140/92/76
f 140/93/76 146/94/75 145/95/77 139/96/78
f 137/88/72 143/87/71 148/97/79 142/98/80
f 139/96/78 145/95/77 144/86/70 138/85/69
f 142/98/80 148/97/79 147/90/74 141/89/73
f 144/99/70 145/100/77 151/101/81 150/102/82
f 147/103/74 148/104/79 154/105/83 153/106/84
f 143/107/71 144/108/70 150/102/82 149/109/85
f 146/110/75 147/111/74 153/106/84 152/112/86
f 145/113/77 146/114/75 152/115/86 151/101/81
f 148/116/79 143/117/71 149/109/85 154/105/83
f 151/101/81 152/115/86 158/118/87 157/119/88
f 154/105/83 149/109/85 155/120/89 160/121/90
f 150/102/82 151/101/81 157/119/88 156/122/91
f 153/106/84 154/105/83 160/121/90 159/123/92
f 149/109/85 150/102/82 156/122/91 155/120/89
f 152/112/86 153/106/84 159/123/92 158/124/87
f 156/122/91 157/119/88 163/125/93 162/126/94
f 159/123/92 160/121/90 166/127/95 165/128/96
f 155/120/89 156/122/91 162/129/94 161/130/97
f 158/124/87 159/123/92 165/131/96 164/132/98
f 157/119/88 158/118/87 164/133/98 163/134/93
f 160/121/90 155/120/89 161/135/97 166/136/95
f 163/137/93 164/138/98 170/139/89 169/140/90
f 166/141/95 161/142/97 167/143/87 172/144/88
f 162/145/94 163/137/93 169/140/90 168/146/92
f 165/147/96 166/141/95 172/144/88 171/148/91
f 161/149/97 162/145/94 168/146/92 167/150/87
f 164/138/98 165/147/96 171/148/91 170/139/89
f 170/151/89 171/152/91 172/144/88 169/153/90
f 168/154/92 169/153/90 172/144/88 167/143/87
s 9
f 174/85/80 173/88/72 179/87/71 180/86/79
f 177/89/78 176/92/76 182/91/75 183/90/77
f 176/93/76 175/96/73 181/95/74 182/94/75
f 173/88/72 178/98/69 184/97/70 179/87/71
f 175/96/73 174/85/80 180/86/79 181/95/74
f 178/98/69 177/89/78 183/90/77 184/97/70
f 180/99/79 186/102/83 187/101/84 181/100/74
f 183/103/77 189/106/81 190/105/82 184/104/70
f 179/107/71 185/109/85 186/102/83 180/108/79
f 182/110/75 188/112/86 189/106/81 183/111/77
f 181/113/74 187/101/84 188/115/86 182/114/75
f 184/116/70 190/105/82 185/109/85 179/117/71
f 187/101/84 193/119/92 194/118/87 188/115/86
f 190/105/82 196/121/91 191/120/89 185/109/85
f 186/102/83 192/122/90 193/119/92 187/101/84
f 189/106/81 195/123/88 196/121/91 190/105/82
f 185/109/85 191/120/89 192/122/90 186/102/83
f 188/112/86 194/124/87 195/123/88 189/106/81
f 192/122/90 198/126/95 199/125/96 193/119/92
f 195/123/88 201/128/93 202/127/94 196/121/91
f 191/120/89 197/130/97 198/129/95 192/122/90
f 194/124/87 200/132/98 201/131/93 195/123/88
f 193/119/92 199/134/96 200/133/98 194/118/87
f 196/121/91 202/136/94 197/135/97 191/120/89
f 199/137/96 205/140/91 206/139/89 200/138/98
f 202/141/94 208/144/92 203/143/87 197/142/97
f 198/145/95 204/146/88 205/140/91 199/137/96
f 201/147/93 207/148/90 208/144/92 202/141/94
f 197/149/97 203/150/87 204/146/88 198/145/95
f 200/138/98 206/139/89 207/148/90 201/147/93
f 206/151/89 205/153/91 208/144/92 207/152/90
f 204/154/88 203/143/87 208/144/92 205/153/91
s 10
f 210/85/80 209/88/72 215/87/71 216/86/79
f 213/89/78 212/92/76 218/91/75 219/90/77
f 212/93/76 211/96/73 217/95/74 218/94/75
f 209/88/72 214/98/69 220/97/70 215/87/71
f 211/96/73 210/85/80 216/86/79 217/95/74
f 214/98/69 213/89/78 219/90/77 220/97/70
f 216/99/79 222/102/83 223/101/84 217/100/74
f 219/103/77 225/106/81 226/105/82 220/104/70
f 215/107/71 221/109/85 222/102/83 216/108/79
f 218/110/75 224/112/86 225/106/81 219/111/77
f 217/113/74 223/101/84 224/115/86 218/114/75
f 220/116/70 226/105/82 221/109/85 215/117/71
f 223/101/84 229/119/92 230/118/87 224/115/86
f 226/105/82 232/121/91 227/120/89 221/109/85
f 222/102/83 228/122/90 229/119/92 223/101/84
f 225/106/81 231/123/88 232/121/91 226/105/82
f 221/109/85 227/120/89 228/122/90 222/102/83
f 224/112/86 230/124/87 231/123/88 225/106/81
f 228/122/90 234/126/95 235/125/96 229/119/92
f 231/123/88 237/128/93 238/127/94 232/121/91
f 227/120/89 233/130/97 234/129/95 228/122/90
f 230/124/87 236/132/98 237/131/93 231/123/88
f 229/119/92 235/134/96 236/133/98 230/118/87
f 232/121/91 238/136/94 233/135/97 227/120/89
f 235/137/96 241/140/91 242/139/89 236/138/98
f 238/141/94 244/144/92 239/143/87 233/142/97
f 234/145/95 240/146/88 241/140/91 235/137/96
f 237/147/93 243/148/90 244/144/92 238/141/94
f 233/149/97 239/150/87 240/146/88 234/145/95
f 236/138/98 242/139/89 243/148/90 237/147/93
f 242/151/89 241/153/91 244/144/92 243/152/90
f 240/154/88 239/143/87 244/144/92 241/153/91
